<ttFont>
<head>
    <!-- Most of this table will be recalculated by the compiler -->
    <tableVersion value="1.0"/>
    <fontRevision value="2.136"/>
    <checkSumAdjustment value="0x921c4b7b"/>
    <magicNumber value="0x5f0f3cf5"/>
    <flags value="00000000 00011011"/>
    <unitsPerEm value="2048"/>
    <created value="Fri Sep 12 16:29:34 2008"/>
    <modified value="Wed Feb 21 14:39:53 2018"/>
    <xMin value="-100"/>
    <yMin value="-536"/>
    <xMax value="2360"/>
    <yMax value="1970"/>
    <macStyle value="00000000 00000000"/>
    <lowestRecPPEM value="9"/>
    <fontDirectionHint value="2"/>
    <indexToLocFormat value="0"/>
    <glyphDataFormat value="0"/>
  </head>
    <TTGlyph name=".notdef" xMin="102" yMin="-416" xMax="922" yMax="1536">
      <contour>
        <pt x="102" y="-416" on="1"/>
        <pt x="922" y="-416" on="1"/>
        <pt x="922" y="1536" on="1"/>
        <pt x="102" y="1536" on="1"/>
      </contour>
      <contour>
        <pt x="204" y="-314" on="1"/>
        <pt x="204" y="1434" on="1"/>
        <pt x="820" y="1434" on="1"/>
        <pt x="820" y="-314" on="1"/>
      </contour>
    </TTGlyph>
    <TTGlyph name="A" xMin="0" yMin="0" xMax="1280" yMax="1466">
      <contour>
        <pt x="0" y="0" on="1"/>
        <pt x="192" y="0" on="1"/>
        <pt x="596" y="1100" on="1"/>
        <pt x="608" y="1133" on="0"/>
        <pt x="626" y="1195" on="0"/>
        <pt x="633" y="1228" on="1"/>
        <pt x="643" y="1228" on="1"/>
        <pt x="650" y="1195" on="0"/>
        <pt x="668" y="1133" on="0"/>
        <pt x="680" y="1100" on="1"/>
        <pt x="1080" y="0" on="1"/>
        <pt x="1280" y="0" on="1"/>
        <pt x="726" y="1466" on="1"/>
        <pt x="554" y="1466" on="1"/>
      </contour>
      <contour>
        <pt x="238" y="380" on="1"/>
        <pt x="1039" y="380" on="1"/>
        <pt x="981" y="538" on="1"/>
        <pt x="297" y="538" on="1"/>
      </contour>
    </TTGlyph>
    <TTGlyph name="AE" xMin="-60" yMin="0" xMax="1714" yMax="1456">
      <contour>
        <pt x="-60" y="0" on="1"/>
        <pt x="142" y="0" on="1"/>
        <pt x="880" y="1326" on="1"/>
        <pt x="890" y="1326" on="1"/>
        <pt x="890" y="0" on="1"/>
        <pt x="1714" y="0" on="1"/>
        <pt x="1714" y="158" on="1"/>
        <pt x="1082" y="158" on="1"/>
        <pt x="1082" y="672" on="1"/>
        <pt x="1612" y="672" on="1"/>
        <pt x="1612" y="830" on="1"/>
        <pt x="1082" y="830" on="1"/>
        <pt x="1082" y="1298" on="1"/>
        <pt x="1704" y="1298" on="1"/>
        <pt x="1704" y="1456" on="1"/>
        <pt x="762" y="1456" on="1"/>
      </contour>
      <contour>
        <pt x="254" y="380" on="1"/>
        <pt x="986" y="380" on="1"/>
        <pt x="986" y="538" on="1"/>
        <pt x="343" y="538" on="1"/>
      </contour>
    </TTGlyph>
    <TTGlyph name="Aacute" xMin="0" yMin="0" xMax="1280" yMax="1836">
      <component glyphName="A" x="0" y="0" flags="0x204"/>
      <component glyphName="acute" x="128" y="380" flags="0x4"/>
    </TTGlyph>
    <TTGlyph name="Acircumflex" xMin="0" yMin="0" xMax="1280" yMax="1836">
      <component glyphName="A" x="0" y="0" flags="0x204"/>
      <component glyphName="circumflex" x="128" y="380" flags="0x4"/>
    </TTGlyph>
    <TTGlyph name="Adieresis" xMin="0" yMin="0" xMax="1280" yMax="1748">
      <component glyphName="A" x="0" y="0" flags="0x204"/>
      <component glyphName="dieresis" x="128" y="380" flags="0x4"/>
    </TTGlyph>
    <TTGlyph name="Agrave" xMin="0" yMin="0" xMax="1280" yMax="1836">
      <component glyphName="A" x="0" y="0" flags="0x204"/>
      <component glyphName="grave" x="128" y="380" flags="0x4"/>
    </TTGlyph>
    <TTGlyph name="Aring" xMin="0" yMin="0" xMax="1280" yMax="1970">
      <component glyphName="A" x="0" y="0" flags="0x204"/>
      <component glyphName="ring" x="128" y="380" flags="0x4"/>
    </TTGlyph>
    <TTGlyph name="Atilde" xMin="0" yMin="0" xMax="1280" yMax="1792">
      <component glyphName="A" x="0" y="0" flags="0x204"/>
      <component glyphName="tilde" x="128" y="380" flags="0x4"/>
    </TTGlyph>
    <TTGlyph name="B" xMin="170" yMin="0" xMax="1160" yMax="1456">
      <contour>
        <pt x="170" y="0" on="1"/>
        <pt x="680" y="0" on="1"/>
        <pt x="897" y="0" on="0"/>
        <pt x="1160" y="220" on="0"/>
        <pt x="1160" y="420" on="1"/>
        <pt x="1160" y="560" on="0"/>
        <pt x="1020" y="732" on="0"/>
        <pt x="910" y="764" on="1"/>
        <pt x="910" y="768" on="1"/>
        <pt x="1000" y="800" on="0"/>
        <pt x="1122" y="950" on="0"/>
        <pt x="1122" y="1070" on="1"/>
        <pt x="1122" y="1270" on="0"/>
        <pt x="870" y="1456" on="0"/>
        <pt x="650" y="1456" on="1"/>
        <pt x="170" y="1456" on="1"/>
      </contour>
      <contour>
        <pt x="358" y="158" on="1"/>
        <pt x="358" y="680" on="1"/>
        <pt x="680" y="680" on="1"/>
        <pt x="830" y="680" on="0"/>
        <pt x="970" y="540" on="0"/>
        <pt x="970" y="420" on="1"/>
        <pt x="970" y="300" on="0"/>
        <pt x="830" y="158" on="0"/>
        <pt x="680" y="158" on="1"/>
      </contour>
      <contour>
        <pt x="358" y="836" on="1"/>
        <pt x="358" y="1298" on="1"/>
        <pt x="650" y="1298" on="1"/>
        <pt x="800" y="1298" on="0"/>
        <pt x="932" y="1180" on="0"/>
        <pt x="932" y="1070" on="1"/>
        <pt x="932" y="960" on="0"/>
        <pt x="800" y="836" on="0"/>
        <pt x="650" y="836" on="1"/>
      </contour>
    </TTGlyph>
    <TTGlyph name="C" xMin="115" yMin="-30" xMax="1275" yMax="1486">
      <contour>
        <pt x="115" y="682" on="1"/>
        <pt x="115" y="346" on="0"/>
        <pt x="460" y="-30" on="0"/>
        <pt x="720" y="-30" on="1"/>
        <pt x="980" y="-30" on="0"/>
        <pt x="1254" y="256" on="0"/>
        <pt x="1274" y="456" on="1"/>
        <pt x="1275" y="466" on="1"/>
        <pt x="1083" y="466" on="1"/>
        <pt x="1082" y="456" on="1"/>
        <pt x="1070" y="336" on="0"/>
        <pt x="900" y="134" on="0"/>
        <pt x="720" y="134" on="1"/>
        <pt x="540" y="134" on="0"/>
        <pt x="309" y="426" on="0"/>
        <pt x="309" y="682" on="1"/>
        <pt x="309" y="774" on="1"/>
        <pt x="309" y="1030" on="0"/>
        <pt x="540" y="1322" on="0"/>
        <pt x="720" y="1322" on="1"/>
        <pt x="900" y="1322" on="0"/>
        <pt x="1070" y="1120" on="0"/>
        <pt x="1082" y="1000" on="1"/>
        <pt x="1083" y="990" on="1"/>
        <pt x="1275" y="990" on="1"/>
        <pt x="1274" y="1000" on="1"/>
        <pt x="1254" y="1200" on="0"/>
        <pt x="980" y="1486" on="0"/>
        <pt x="720" y="1486" on="1"/>
        <pt x="460" y="1486" on="0"/>
        <pt x="115" y="1110" on="0"/>
        <pt x="115" y="774" on="1"/>
      </contour>
    </TTGlyph>
    <TTGlyph name="Ccedilla" xMin="115" yMin="-536" xMax="1275" yMax="1486">
      <component glyphName="C" x="0" y="0" flags="0x204"/>
      <component glyphName="cedilla" x="208" y="0" flags="0x4"/>
    </TTGlyph>
    <TTGlyph name="D" xMin="170" yMin="0" xMax="1255" yMax="1456">
      <contour>
        <pt x="170" y="0" on="1"/>
        <pt x="602" y="0" on="1"/>
        <pt x="882" y="0" on="0"/>
        <pt x="1255" y="370" on="0"/>
        <pt x="1255" y="682" on="1"/>
        <pt x="1255" y="774" on="1"/>
        <pt x="1255" y="1086" on="0"/>
        <pt x="882" y="1456" on="0"/>
        <pt x="602" y="1456" on="1"/>
        <pt x="170" y="1456" on="1"/>
      </contour>
      <contour>
        <pt x="362" y="158" on="1"/>
        <pt x="362" y="1298" on="1"/>
        <pt x="602" y="1298" on="1"/>
        <pt x="812" y="1298" on="0"/>
        <pt x="1061" y="1020" on="0"/>
        <pt x="1061" y="774" on="1"/>
        <pt x="1061" y="682" on="1"/>
        <pt x="1061" y="436" on="0"/>
        <pt x="812" y="158" on="0"/>
        <pt x="602" y="158" on="1"/>
      </contour>
    </TTGlyph>
    <TTGlyph name="E" xMin="170" yMin="0" xMax="1094" yMax="1456">
      <contour>
        <pt x="170" y="0" on="1"/>
        <pt x="1094" y="0" on="1"/>
        <pt x="1094" y="158" on="1"/>
        <pt x="362" y="158" on="1"/>
        <pt x="362" y="672" on="1"/>
        <pt x="992" y="672" on="1"/>
        <pt x="992" y="830" on="1"/>
        <pt x="362" y="830" on="1"/>
        <pt x="362" y="1298" on="1"/>
        <pt x="1084" y="1298" on="1"/>
        <pt x="1084" y="1456" on="1"/>
        <pt x="170" y="1456" on="1"/>
      </contour>
    </TTGlyph>
    <TTGlyph name="Eacute" xMin="170" yMin="0" xMax="1094" yMax="1836">
      <component glyphName="E" x="0" y="0" flags="0x204"/>
      <component glyphName="acute" x="114" y="380" flags="0x4"/>
    </TTGlyph>
    <TTGlyph name="Ecircumflex" xMin="170" yMin="0" xMax="1094" yMax="1836">
      <component glyphName="E" x="0" y="0" flags="0x204"/>
      <component glyphName="circumflex" x="114" y="380" flags="0x4"/>
    </TTGlyph>
    <TTGlyph name="Edieresis" xMin="170" yMin="0" xMax="1094" yMax="1748">
      <component glyphName="E" x="0" y="0" flags="0x204"/>
      <component glyphName="dieresis" x="114" y="380" flags="0x4"/>
    </TTGlyph>
    <TTGlyph name="Egrave" xMin="170" yMin="0" xMax="1094" yMax="1836">
      <component glyphName="E" x="0" y="0" flags="0x204"/>
      <component glyphName="grave" x="114" y="380" flags="0x4"/>
    </TTGlyph>
    <TTGlyph name="Eth" xMin="40" yMin="0" xMax="1255" yMax="1456">
      <contour>
        <pt x="170" y="0" on="1"/>
        <pt x="602" y="0" on="1"/>
        <pt x="882" y="0" on="0"/>
        <pt x="1255" y="370" on="0"/>
        <pt x="1255" y="682" on="1"/>
        <pt x="1255" y="774" on="1"/>
        <pt x="1255" y="1086" on="0"/>
        <pt x="882" y="1456" on="0"/>
        <pt x="602" y="1456" on="1"/>
        <pt x="170" y="1456" on="1"/>
      </contour>
      <contour>
        <pt x="362" y="158" on="1"/>
        <pt x="362" y="1298" on="1"/>
        <pt x="602" y="1298" on="1"/>
        <pt x="812" y="1298" on="0"/>
        <pt x="1061" y="1020" on="0"/>
        <pt x="1061" y="774" on="1"/>
        <pt x="1061" y="682" on="1"/>
        <pt x="1061" y="436" on="0"/>
        <pt x="812" y="158" on="0"/>
        <pt x="602" y="158" on="1"/>
      </contour>
      <contour>
        <pt x="40" y="804" on="1"/>
        <pt x="40" y="654" on="1"/>
        <pt x="702" y="654" on="1"/>
        <pt x="702" y="804" on="1"/>
      </contour>
    </TTGlyph>
    <TTGlyph name="Euro" xMin="30" yMin="-30" xMax="1126" yMax="1486">
      <contour>
        <pt x="170" y="642" on="1"/>
        <pt x="170" y="316" on="0"/>
        <pt x="440" y="-30" on="0"/>
        <pt x="680" y="-30" on="1"/>
        <pt x="900" y="-30" on="0"/>
        <pt x="1126" y="219" on="0"/>
        <pt x="1126" y="396" on="1"/>
        <pt x="1126" y="406" on="1"/>
        <pt x="936" y="406" on="1"/>
        <pt x="936" y="396" on="1"/>
        <pt x="936" y="286" on="0"/>
        <pt x="820" y="134" on="0"/>
        <pt x="680" y="134" on="1"/>
        <pt x="520" y="134" on="0"/>
        <pt x="360" y="376" on="0"/>
        <pt x="360" y="642" on="1"/>
        <pt x="360" y="814" on="1"/>
        <pt x="360" y="1080" on="0"/>
        <pt x="520" y="1322" on="0"/>
        <pt x="680" y="1322" on="1"/>
        <pt x="820" y="1322" on="0"/>
        <pt x="936" y="1170" on="0"/>
        <pt x="936" y="1060" on="1"/>
        <pt x="936" y="1050" on="1"/>
        <pt x="1126" y="1050" on="1"/>
        <pt x="1126" y="1060" on="1"/>
        <pt x="1126" y="1237" on="0"/>
        <pt x="900" y="1486" on="0"/>
        <pt x="680" y="1486" on="1"/>
        <pt x="440" y="1486" on="0"/>
        <pt x="170" y="1140" on="0"/>
        <pt x="170" y="814" on="1"/>
      </contour>
      <contour>
        <pt x="30" y="486" on="1"/>
        <pt x="860" y="486" on="1"/>
        <pt x="860" y="642" on="1"/>
        <pt x="30" y="642" on="1"/>
      </contour>
      <contour>
        <pt x="30" y="814" on="1"/>
        <pt x="860" y="814" on="1"/>
        <pt x="860" y="970" on="1"/>
        <pt x="30" y="970" on="1"/>
      </contour>
    </TTGlyph>
    <TTGlyph name="F" xMin="170" yMin="0" xMax="1072" yMax="1456">
      <contour>
        <pt x="170" y="0" on="1"/>
        <pt x="362" y="0" on="1"/>
        <pt x="362" y="643" on="1"/>
        <pt x="973" y="643" on="1"/>
        <pt x="973" y="801" on="1"/>
        <pt x="362" y="801" on="1"/>
        <pt x="362" y="1298" on="1"/>
        <pt x="1072" y="1298" on="1"/>
        <pt x="1072" y="1456" on="1"/>
        <pt x="170" y="1456" on="1"/>
      </contour>
    </TTGlyph>
    <TTGlyph name="G" xMin="115" yMin="-30" xMax="1278" yMax="1486">
      <contour>
        <pt x="115" y="682" on="1"/>
        <pt x="115" y="346" on="0"/>
        <pt x="460" y="-30" on="0"/>
        <pt x="750" y="-30" on="1"/>
        <pt x="940" y="-30" on="0"/>
        <pt x="1210" y="90" on="0"/>
        <pt x="1278" y="160" on="1"/>
        <pt x="1278" y="728" on="1"/>
        <pt x="730" y="728" on="1"/>
        <pt x="730" y="570" on="1"/>
        <pt x="1092" y="570" on="1"/>
        <pt x="1092" y="230" on="1"/>
        <pt x="1020" y="180" on="0"/>
        <pt x="860" y="134" on="0"/>
        <pt x="750" y="134" on="1"/>
        <pt x="540" y="134" on="0"/>
        <pt x="309" y="426" on="0"/>
        <pt x="309" y="682" on="1"/>
        <pt x="309" y="774" on="1"/>
        <pt x="309" y="1030" on="0"/>
        <pt x="540" y="1322" on="0"/>
        <pt x="720" y="1322" on="1"/>
        <pt x="900" y="1322" on="0"/>
        <pt x="1075" y="1140" on="0"/>
        <pt x="1085" y="1040" on="1"/>
        <pt x="1086" y="1030" on="1"/>
        <pt x="1278" y="1030" on="1"/>
        <pt x="1277" y="1040" on="1"/>
        <pt x="1259" y="1220" on="0"/>
        <pt x="980" y="1486" on="0"/>
        <pt x="720" y="1486" on="1"/>
        <pt x="460" y="1486" on="0"/>
        <pt x="115" y="1110" on="0"/>
        <pt x="115" y="774" on="1"/>
      </contour>
    </TTGlyph>
    <TTGlyph name="Germandbls" xMin="170" yMin="-20" xMax="1242" yMax="1486">
      <contour>
        <pt x="170" y="0" on="1"/>
        <pt x="362" y="0" on="1"/>
        <pt x="362" y="1040" on="1"/>
        <pt x="362" y="1180" on="0"/>
        <pt x="520" y="1322" on="0"/>
        <pt x="670" y="1322" on="1"/>
        <pt x="810" y="1322" on="0"/>
        <pt x="940" y="1210" on="0"/>
        <pt x="950" y="1110" on="1"/>
        <pt x="630" y="840" on="1"/>
        <pt x="676" y="690" on="1"/>
        <pt x="880" y="660" on="0"/>
        <pt x="1048" y="530" on="0"/>
        <pt x="1048" y="430" on="1"/>
        <pt x="1048" y="390" on="1"/>
        <pt x="1048" y="270" on="0"/>
        <pt x="860" y="138" on="0"/>
        <pt x="710" y="138" on="1"/>
        <pt x="670" y="138" on="0"/>
        <pt x="576" y="148" on="0"/>
        <pt x="550" y="153" on="1"/>
        <pt x="524" y="-4" on="1"/>
        <pt x="560" y="-10" on="0"/>
        <pt x="670" y="-20" on="0"/>
        <pt x="720" y="-20" on="1"/>
        <pt x="960" y="-20" on="0"/>
        <pt x="1242" y="210" on="0"/>
        <pt x="1242" y="390" on="1"/>
        <pt x="1242" y="430" on="1"/>
        <pt x="1242" y="580" on="0"/>
        <pt x="1020" y="780" on="0"/>
        <pt x="846" y="810" on="1"/>
        <pt x="846" y="820" on="1"/>
        <pt x="1144" y="1050" on="1"/>
        <pt x="1144" y="1070" on="1"/>
        <pt x="1144" y="1250" on="0"/>
        <pt x="890" y="1486" on="0"/>
        <pt x="670" y="1486" on="1"/>
        <pt x="450" y="1486" on="0"/>
        <pt x="170" y="1260" on="0"/>
        <pt x="170" y="1040" on="1"/>
      </contour>
    </TTGlyph>
    <TTGlyph name="H" xMin="170" yMin="0" xMax="1288" yMax="1456">
      <contour>
        <pt x="170" y="0" on="1"/>
        <pt x="362" y="0" on="1"/>
        <pt x="362" y="672" on="1"/>
        <pt x="1096" y="672" on="1"/>
        <pt x="1096" y="0" on="1"/>
        <pt x="1288" y="0" on="1"/>
        <pt x="1288" y="1456" on="1"/>
        <pt x="1096" y="1456" on="1"/>
        <pt x="1096" y="830" on="1"/>
        <pt x="362" y="830" on="1"/>
        <pt x="362" y="1456" on="1"/>
        <pt x="170" y="1456" on="1"/>
      </contour>
    </TTGlyph>
    <TTGlyph name="I" xMin="175" yMin="0" xMax="367" yMax="1456">
      <contour>
        <pt x="175" y="0" on="1"/>
        <pt x="367" y="0" on="1"/>
        <pt x="367" y="1456" on="1"/>
        <pt x="175" y="1456" on="1"/>
      </contour>
    </TTGlyph>
    <TTGlyph name="Iacute" xMin="144" yMin="0" xMax="588" yMax="1836">
      <component glyphName="I" x="0" y="0" flags="0x204"/>
      <component glyphName="acute" x="-241" y="380" flags="0x4"/>
    </TTGlyph>
    <TTGlyph name="Icircumflex" xMin="-53" yMin="0" xMax="595" yMax="1836">
      <component glyphName="I" x="0" y="0" flags="0x204"/>
      <component glyphName="circumflex" x="-241" y="380" flags="0x4"/>
    </TTGlyph>
    <TTGlyph name="Idieresis" xMin="-55" yMin="0" xMax="597" yMax="1748">
      <component glyphName="I" x="0" y="0" flags="0x204"/>
      <component glyphName="dieresis" x="-241" y="380" flags="0x4"/>
    </TTGlyph>
    <TTGlyph name="Igrave" xMin="-46" yMin="0" xMax="398" yMax="1836">
      <component glyphName="I" x="0" y="0" flags="0x204"/>
      <component glyphName="grave" x="-241" y="380" flags="0x4"/>
    </TTGlyph>
    <TTGlyph name="J" xMin="25" yMin="-30" xMax="945" yMax="1456">
      <contour>
        <pt x="25" y="400" on="1"/>
        <pt x="25" y="200" on="0"/>
        <pt x="280" y="-30" on="0"/>
        <pt x="485" y="-30" on="1"/>
        <pt x="690" y="-30" on="0"/>
        <pt x="945" y="215" on="0"/>
        <pt x="945" y="425" on="1"/>
        <pt x="945" y="1456" on="1"/>
        <pt x="753" y="1456" on="1"/>
        <pt x="753" y="425" on="1"/>
        <pt x="753" y="285" on="0"/>
        <pt x="610" y="134" on="0"/>
        <pt x="485" y="134" on="1"/>
        <pt x="360" y="134" on="0"/>
        <pt x="217" y="270" on="0"/>
        <pt x="217" y="400" on="1"/>
        <pt x="217" y="410" on="1"/>
        <pt x="25" y="410" on="1"/>
      </contour>
    </TTGlyph>
    <TTGlyph name="K" xMin="170" yMin="0" xMax="1286" yMax="1456">
      <contour>
        <pt x="170" y="0" on="1"/>
        <pt x="362" y="0" on="1"/>
        <pt x="362" y="500" on="1"/>
        <pt x="1242" y="1456" on="1"/>
        <pt x="1010" y="1456" on="1"/>
        <pt x="362" y="740" on="1"/>
        <pt x="362" y="1456" on="1"/>
        <pt x="170" y="1456" on="1"/>
      </contour>
      <contour>
        <pt x="1050" y="0" on="1"/>
        <pt x="1286" y="0" on="1"/>
        <pt x="610" y="890" on="1"/>
        <pt x="486" y="756" on="1"/>
      </contour>
    </TTGlyph>
    <TTGlyph name="L" xMin="170" yMin="0" xMax="1052" yMax="1456">
      <contour>
        <pt x="170" y="0" on="1"/>
        <pt x="1052" y="0" on="1"/>
        <pt x="1052" y="158" on="1"/>
        <pt x="362" y="158" on="1"/>
        <pt x="362" y="1456" on="1"/>
        <pt x="170" y="1456" on="1"/>
      </contour>
    </TTGlyph>
    <TTGlyph name="M" xMin="170" yMin="0" xMax="1620" yMax="1456">
      <contour>
        <pt x="170" y="0" on="1"/>
        <pt x="352" y="0" on="1"/>
        <pt x="352" y="1050" on="1"/>
        <pt x="352" y="1080" on="0"/>
        <pt x="346" y="1155" on="0"/>
        <pt x="342" y="1185" on="1"/>
        <pt x="354" y="1185" on="1"/>
        <pt x="360" y="1155" on="0"/>
        <pt x="384" y="1080" on="0"/>
        <pt x="396" y="1050" on="1"/>
        <pt x="810" y="0" on="1"/>
        <pt x="976" y="0" on="1"/>
        <pt x="1390" y="1050" on="1"/>
        <pt x="1402" y="1080" on="0"/>
        <pt x="1426" y="1155" on="0"/>
        <pt x="1432" y="1185" on="1"/>
        <pt x="1444" y="1185" on="1"/>
        <pt x="1440" y="1155" on="0"/>
        <pt x="1434" y="1080" on="0"/>
        <pt x="1434" y="1050" on="1"/>
        <pt x="1434" y="0" on="1"/>
        <pt x="1620" y="0" on="1"/>
        <pt x="1620" y="1456" on="1"/>
        <pt x="1372" y="1456" on="1"/>
        <pt x="940" y="365" on="1"/>
        <pt x="928" y="335" on="0"/>
        <pt x="907" y="270" on="0"/>
        <pt x="899" y="240" on="1"/>
        <pt x="891" y="240" on="1"/>
        <pt x="883" y="270" on="0"/>
        <pt x="862" y="335" on="0"/>
        <pt x="850" y="365" on="1"/>
        <pt x="418" y="1456" on="1"/>
        <pt x="170" y="1456" on="1"/>
      </contour>
    </TTGlyph>
    <TTGlyph name="N" xMin="170" yMin="0" xMax="1290" yMax="1456">
      <contour>
        <pt x="170" y="0" on="1"/>
        <pt x="358" y="0" on="1"/>
        <pt x="358" y="1000" on="1"/>
        <pt x="358" y="1030" on="0"/>
        <pt x="354" y="1105" on="0"/>
        <pt x="350" y="1135" on="1"/>
        <pt x="360" y="1135" on="1"/>
        <pt x="374" y="1110" on="0"/>
        <pt x="408" y="1050" on="0"/>
        <pt x="428" y="1020" on="1"/>
        <pt x="1090" y="0" on="1"/>
        <pt x="1290" y="0" on="1"/>
        <pt x="1290" y="1456" on="1"/>
        <pt x="1102" y="1456" on="1"/>
        <pt x="1102" y="456" on="1"/>
        <pt x="1102" y="426" on="0"/>
        <pt x="1106" y="351" on="0"/>
        <pt x="1110" y="321" on="1"/>
        <pt x="1100" y="321" on="1"/>
        <pt x="1086" y="346" on="0"/>
        <pt x="1052" y="406" on="0"/>
        <pt x="1032" y="436" on="1"/>
        <pt x="370" y="1456" on="1"/>
        <pt x="170" y="1456" on="1"/>
      </contour>
    </TTGlyph>
    <TTGlyph name="Ntilde" xMin="170" yMin="0" xMax="1290" yMax="1792">
      <component glyphName="N" x="0" y="0" flags="0x204"/>
      <component glyphName="tilde" x="228" y="380" flags="0x4"/>
    </TTGlyph>
    <TTGlyph name="O" xMin="115" yMin="-30" xMax="1345" yMax="1486">
      <contour>
        <pt x="115" y="682" on="1"/>
        <pt x="115" y="346" on="0"/>
        <pt x="460" y="-30" on="0"/>
        <pt x="730" y="-30" on="1"/>
        <pt x="1000" y="-30" on="0"/>
        <pt x="1345" y="346" on="0"/>
        <pt x="1345" y="682" on="1"/>
        <pt x="1345" y="774" on="1"/>
        <pt x="1345" y="1110" on="0"/>
        <pt x="1000" y="1486" on="0"/>
        <pt x="730" y="1486" on="1"/>
        <pt x="460" y="1486" on="0"/>
        <pt x="115" y="1110" on="0"/>
        <pt x="115" y="774" on="1"/>
      </contour>
      <contour>
        <pt x="309" y="682" on="1"/>
        <pt x="309" y="774" on="1"/>
        <pt x="309" y="1030" on="0"/>
        <pt x="540" y="1322" on="0"/>
        <pt x="730" y="1322" on="1"/>
        <pt x="920" y="1322" on="0"/>
        <pt x="1151" y="1030" on="0"/>
        <pt x="1151" y="774" on="1"/>
        <pt x="1151" y="682" on="1"/>
        <pt x="1151" y="426" on="0"/>
        <pt x="920" y="134" on="0"/>
        <pt x="730" y="134" on="1"/>
        <pt x="540" y="134" on="0"/>
        <pt x="309" y="426" on="0"/>
      </contour>
    </TTGlyph>
    <TTGlyph name="OE" xMin="115" yMin="-30" xMax="1834" yMax="1486">
      <contour>
        <pt x="115" y="682" on="1"/>
        <pt x="115" y="346" on="0"/>
        <pt x="460" y="-30" on="0"/>
        <pt x="730" y="-30" on="1"/>
        <pt x="836" y="-30" on="0"/>
        <pt x="1023" y="50" on="0"/>
        <pt x="1098" y="128" on="1"/>
        <pt x="1098" y="386" on="1"/>
        <pt x="1047" y="265" on="0"/>
        <pt x="856" y="134" on="0"/>
        <pt x="730" y="134" on="1"/>
        <pt x="540" y="134" on="0"/>
        <pt x="309" y="426" on="0"/>
        <pt x="309" y="682" on="1"/>
        <pt x="309" y="774" on="1"/>
        <pt x="309" y="1030" on="0"/>
        <pt x="540" y="1322" on="0"/>
        <pt x="730" y="1322" on="1"/>
        <pt x="856" y="1322" on="0"/>
        <pt x="1047" y="1191" on="0"/>
        <pt x="1098" y="1070" on="1"/>
        <pt x="1098" y="1328" on="1"/>
        <pt x="1023" y="1406" on="0"/>
        <pt x="836" y="1486" on="0"/>
        <pt x="730" y="1486" on="1"/>
        <pt x="460" y="1486" on="0"/>
        <pt x="115" y="1110" on="0"/>
        <pt x="115" y="774" on="1"/>
      </contour>
      <contour>
        <pt x="1010" y="0" on="1"/>
        <pt x="1834" y="0" on="1"/>
        <pt x="1834" y="158" on="1"/>
        <pt x="1202" y="158" on="1"/>
        <pt x="1202" y="672" on="1"/>
        <pt x="1732" y="672" on="1"/>
        <pt x="1732" y="830" on="1"/>
        <pt x="1202" y="830" on="1"/>
        <pt x="1202" y="1298" on="1"/>
        <pt x="1824" y="1298" on="1"/>
        <pt x="1824" y="1456" on="1"/>
        <pt x="1010" y="1456" on="1"/>
      </contour>
    </TTGlyph>
    <TTGlyph name="Oacute" xMin="115" yMin="-30" xMax="1345" yMax="1836">
      <component glyphName="O" x="0" y="0" flags="0x204"/>
      <component glyphName="acute" x="218" y="380" flags="0x4"/>
    </TTGlyph>
    <TTGlyph name="Ocircumflex" xMin="115" yMin="-30" xMax="1345" yMax="1836">
      <component glyphName="O" x="0" y="0" flags="0x204"/>
      <component glyphName="circumflex" x="218" y="380" flags="0x4"/>
    </TTGlyph>
    <TTGlyph name="Odieresis" xMin="115" yMin="-30" xMax="1345" yMax="1748">
      <component glyphName="O" x="0" y="0" flags="0x204"/>
      <component glyphName="dieresis" x="218" y="380" flags="0x4"/>
    </TTGlyph>
    <TTGlyph name="Ograve" xMin="115" yMin="-30" xMax="1345" yMax="1836">
      <component glyphName="O" x="0" y="0" flags="0x204"/>
      <component glyphName="grave" x="218" y="380" flags="0x4"/>
    </TTGlyph>
    <TTGlyph name="Oslash" xMin="100" yMin="-80" xMax="1360" yMax="1532">
      <contour>
        <pt x="100" y="-80" on="1"/>
        <pt x="300" y="-80" on="1"/>
        <pt x="449" y="150" on="1"/>
        <pt x="439" y="150" on="1"/>
        <pt x="817" y="726" on="1"/>
        <pt x="643" y="726" on="1"/>
        <pt x="330" y="250" on="1"/>
        <pt x="320" y="250" on="1"/>
      </contour>
      <contour>
        <pt x="643" y="726" on="1"/>
        <pt x="817" y="726" on="1"/>
        <pt x="1130" y="1202" on="1"/>
        <pt x="1140" y="1202" on="1"/>
        <pt x="1360" y="1532" on="1"/>
        <pt x="1160" y="1532" on="1"/>
        <pt x="1011" y="1302" on="1"/>
        <pt x="1021" y="1302" on="1"/>
      </contour>
      <contour>
        <pt x="115" y="682" on="1"/>
        <pt x="115" y="346" on="0"/>
        <pt x="460" y="-30" on="0"/>
        <pt x="730" y="-30" on="1"/>
        <pt x="1000" y="-30" on="0"/>
        <pt x="1345" y="346" on="0"/>
        <pt x="1345" y="682" on="1"/>
        <pt x="1345" y="774" on="1"/>
        <pt x="1345" y="1110" on="0"/>
        <pt x="1000" y="1486" on="0"/>
        <pt x="730" y="1486" on="1"/>
        <pt x="460" y="1486" on="0"/>
        <pt x="115" y="1110" on="0"/>
        <pt x="115" y="774" on="1"/>
      </contour>
      <contour>
        <pt x="309" y="682" on="1"/>
        <pt x="309" y="774" on="1"/>
        <pt x="309" y="1030" on="0"/>
        <pt x="540" y="1322" on="0"/>
        <pt x="730" y="1322" on="1"/>
        <pt x="920" y="1322" on="0"/>
        <pt x="1151" y="1030" on="0"/>
        <pt x="1151" y="774" on="1"/>
        <pt x="1151" y="682" on="1"/>
        <pt x="1151" y="426" on="0"/>
        <pt x="920" y="134" on="0"/>
        <pt x="730" y="134" on="1"/>
        <pt x="540" y="134" on="0"/>
        <pt x="309" y="426" on="0"/>
      </contour>
    </TTGlyph>
    <TTGlyph name="Otilde" xMin="115" yMin="-30" xMax="1345" yMax="1792">
      <component glyphName="O" x="0" y="0" flags="0x204"/>
      <component glyphName="tilde" x="218" y="380" flags="0x4"/>
    </TTGlyph>
    <TTGlyph name="P" xMin="170" yMin="0" xMax="1150" yMax="1456">
      <contour>
        <pt x="170" y="0" on="1"/>
        <pt x="362" y="0" on="1"/>
        <pt x="362" y="570" on="1"/>
        <pt x="652" y="570" on="1"/>
        <pt x="892" y="570" on="0"/>
        <pt x="1150" y="815" on="0"/>
        <pt x="1150" y="1015" on="1"/>
        <pt x="1150" y="1215" on="0"/>
        <pt x="892" y="1456" on="0"/>
        <pt x="652" y="1456" on="1"/>
        <pt x="170" y="1456" on="1"/>
      </contour>
      <contour>
        <pt x="362" y="728" on="1"/>
        <pt x="362" y="1298" on="1"/>
        <pt x="652" y="1298" on="1"/>
        <pt x="822" y="1298" on="0"/>
        <pt x="958" y="1135" on="0"/>
        <pt x="958" y="1015" on="1"/>
        <pt x="958" y="895" on="0"/>
        <pt x="822" y="728" on="0"/>
        <pt x="652" y="728" on="1"/>
      </contour>
    </TTGlyph>
    <TTGlyph name="Q" xMin="115" yMin="-250" xMax="1345" yMax="1486">
      <contour>
        <pt x="115" y="682" on="1"/>
        <pt x="115" y="346" on="0"/>
        <pt x="460" y="-30" on="0"/>
        <pt x="730" y="-30" on="1"/>
        <pt x="1000" y="-30" on="0"/>
        <pt x="1345" y="346" on="0"/>
        <pt x="1345" y="682" on="1"/>
        <pt x="1345" y="774" on="1"/>
        <pt x="1345" y="1110" on="0"/>
        <pt x="1000" y="1486" on="0"/>
        <pt x="730" y="1486" on="1"/>
        <pt x="460" y="1486" on="0"/>
        <pt x="115" y="1110" on="0"/>
        <pt x="115" y="774" on="1"/>
      </contour>
      <contour>
        <pt x="309" y="682" on="1"/>
        <pt x="309" y="774" on="1"/>
        <pt x="309" y="1030" on="0"/>
        <pt x="540" y="1322" on="0"/>
        <pt x="730" y="1322" on="1"/>
        <pt x="920" y="1322" on="0"/>
        <pt x="1151" y="1030" on="0"/>
        <pt x="1151" y="774" on="1"/>
        <pt x="1151" y="682" on="1"/>
        <pt x="1151" y="426" on="0"/>
        <pt x="920" y="134" on="0"/>
        <pt x="730" y="134" on="1"/>
        <pt x="540" y="134" on="0"/>
        <pt x="309" y="426" on="0"/>
      </contour>
      <contour>
        <pt x="1200" y="-250" on="1"/>
        <pt x="1330" y="-120" on="1"/>
        <pt x="975" y="155" on="1"/>
        <pt x="850" y="30" on="1"/>
      </contour>
    </TTGlyph>
    <TTGlyph name="R" xMin="170" yMin="0" xMax="1210" yMax="1456">
      <contour>
        <pt x="170" y="0" on="1"/>
        <pt x="362" y="0" on="1"/>
        <pt x="362" y="594" on="1"/>
        <pt x="644" y="594" on="1"/>
        <pt x="878" y="594" on="0"/>
        <pt x="1132" y="834" on="0"/>
        <pt x="1132" y="1028" on="1"/>
        <pt x="1132" y="1222" on="0"/>
        <pt x="878" y="1456" on="0"/>
        <pt x="644" y="1456" on="1"/>
        <pt x="170" y="1456" on="1"/>
      </contour>
      <contour>
        <pt x="362" y="750" on="1"/>
        <pt x="362" y="1300" on="1"/>
        <pt x="644" y="1300" on="1"/>
        <pt x="810" y="1300" on="0"/>
        <pt x="940" y="1144" on="0"/>
        <pt x="940" y="1028" on="1"/>
        <pt x="940" y="912" on="0"/>
        <pt x="810" y="750" on="0"/>
        <pt x="644" y="750" on="1"/>
      </contour>
      <contour>
        <pt x="996" y="0" on="1"/>
        <pt x="1210" y="0" on="1"/>
        <pt x="846" y="672" on="1"/>
        <pt x="640" y="672" on="1"/>
      </contour>
    </TTGlyph>
    <TTGlyph name="S" xMin="90" yMin="-30" xMax="1140" yMax="1486">
      <contour>
        <pt x="90" y="398" on="1"/>
        <pt x="90" y="200" on="0"/>
        <pt x="380" y="-30" on="0"/>
        <pt x="620" y="-30" on="1"/>
        <pt x="860" y="-30" on="0"/>
        <pt x="1140" y="200" on="0"/>
        <pt x="1140" y="380" on="1"/>
        <pt x="1140" y="560" on="0"/>
        <pt x="928" y="758" on="0"/>
        <pt x="694" y="824" on="1"/>
        <pt x="460" y="890" on="0"/>
        <pt x="310" y="1000" on="0"/>
        <pt x="310" y="1090" on="1"/>
        <pt x="310" y="1200" on="0"/>
        <pt x="456" y="1322" on="0"/>
        <pt x="610" y="1322" on="1"/>
        <pt x="764" y="1322" on="0"/>
        <pt x="920" y="1180" on="0"/>
        <pt x="920" y="1064" on="1"/>
        <pt x="920" y="1052" on="1"/>
        <pt x="1112" y="1052" on="1"/>
        <pt x="1112" y="1064" on="1"/>
        <pt x="1112" y="1240" on="0"/>
        <pt x="840" y="1486" on="0"/>
        <pt x="610" y="1486" on="1"/>
        <pt x="380" y="1486" on="0"/>
        <pt x="120" y="1260" on="0"/>
        <pt x="120" y="1090" on="1"/>
        <pt x="120" y="920" on="0"/>
        <pt x="318" y="734" on="0"/>
        <pt x="556" y="666" on="1"/>
        <pt x="794" y="598" on="0"/>
        <pt x="950" y="480" on="0"/>
        <pt x="950" y="380" on="1"/>
        <pt x="950" y="270" on="0"/>
        <pt x="780" y="134" on="0"/>
        <pt x="620" y="134" on="1"/>
        <pt x="460" y="134" on="0"/>
        <pt x="282" y="266" on="0"/>
        <pt x="282" y="398" on="1"/>
        <pt x="282" y="410" on="1"/>
        <pt x="90" y="410" on="1"/>
      </contour>
    </TTGlyph>
    <TTGlyph name="T" xMin="24" yMin="0" xMax="1152" yMax="1456">
      <contour>
        <pt x="24" y="1298" on="1"/>
        <pt x="492" y="1298" on="1"/>
        <pt x="492" y="0" on="1"/>
        <pt x="684" y="0" on="1"/>
        <pt x="684" y="1298" on="1"/>
        <pt x="1152" y="1298" on="1"/>
        <pt x="1152" y="1456" on="1"/>
        <pt x="24" y="1456" on="1"/>
      </contour>
    </TTGlyph>
    <TTGlyph name="Thorn" xMin="170" yMin="0" xMax="1150" yMax="1456">
      <contour>
        <pt x="170" y="0" on="1"/>
        <pt x="362" y="0" on="1"/>
        <pt x="362" y="290" on="1"/>
        <pt x="652" y="290" on="1"/>
        <pt x="892" y="290" on="0"/>
        <pt x="1150" y="535" on="0"/>
        <pt x="1150" y="735" on="1"/>
        <pt x="1150" y="935" on="0"/>
        <pt x="892" y="1176" on="0"/>
        <pt x="652" y="1176" on="1"/>
        <pt x="362" y="1176" on="1"/>
        <pt x="362" y="1456" on="1"/>
        <pt x="170" y="1456" on="1"/>
      </contour>
      <contour>
        <pt x="362" y="448" on="1"/>
        <pt x="362" y="1018" on="1"/>
        <pt x="652" y="1018" on="1"/>
        <pt x="822" y="1018" on="0"/>
        <pt x="958" y="855" on="0"/>
        <pt x="958" y="735" on="1"/>
        <pt x="958" y="615" on="0"/>
        <pt x="822" y="448" on="0"/>
        <pt x="652" y="448" on="1"/>
      </contour>
    </TTGlyph>
    <TTGlyph name="U" xMin="155" yMin="-30" xMax="1209" yMax="1456">
      <contour>
        <pt x="155" y="470" on="1"/>
        <pt x="155" y="220" on="0"/>
        <pt x="462" y="-30" on="0"/>
        <pt x="682" y="-30" on="1"/>
        <pt x="902" y="-30" on="0"/>
        <pt x="1209" y="220" on="0"/>
        <pt x="1209" y="470" on="1"/>
        <pt x="1209" y="1456" on="1"/>
        <pt x="1017" y="1456" on="1"/>
        <pt x="1017" y="470" on="1"/>
        <pt x="1017" y="300" on="0"/>
        <pt x="832" y="134" on="0"/>
        <pt x="682" y="134" on="1"/>
        <pt x="532" y="134" on="0"/>
        <pt x="347" y="300" on="0"/>
        <pt x="347" y="470" on="1"/>
        <pt x="347" y="1456" on="1"/>
        <pt x="155" y="1456" on="1"/>
      </contour>
    </TTGlyph>
    <TTGlyph name="Uacute" xMin="155" yMin="-30" xMax="1209" yMax="1836">
      <component glyphName="U" x="0" y="0" flags="0x204"/>
      <component glyphName="acute" x="170" y="380" flags="0x4"/>
    </TTGlyph>
    <TTGlyph name="Ucircumflex" xMin="155" yMin="-30" xMax="1209" yMax="1836">
      <component glyphName="U" x="0" y="0" flags="0x204"/>
      <component glyphName="circumflex" x="170" y="380" flags="0x4"/>
    </TTGlyph>
    <TTGlyph name="Udieresis" xMin="155" yMin="-30" xMax="1209" yMax="1748">
      <component glyphName="U" x="0" y="0" flags="0x204"/>
      <component glyphName="dieresis" x="170" y="380" flags="0x4"/>
    </TTGlyph>
    <TTGlyph name="Ugrave" xMin="155" yMin="-30" xMax="1209" yMax="1836">
      <component glyphName="U" x="0" y="0" flags="0x204"/>
      <component glyphName="grave" x="170" y="380" flags="0x4"/>
    </TTGlyph>
    <TTGlyph name="V" xMin="0" yMin="-10" xMax="1260" yMax="1456">
      <contour>
        <pt x="0" y="1456" on="1"/>
        <pt x="544" y="-10" on="1"/>
        <pt x="716" y="-10" on="1"/>
        <pt x="1260" y="1456" on="1"/>
        <pt x="1064" y="1456" on="1"/>
        <pt x="674" y="378" on="1"/>
        <pt x="662" y="345" on="0"/>
        <pt x="644" y="283" on="0"/>
        <pt x="637" y="250" on="1"/>
        <pt x="627" y="250" on="1"/>
        <pt x="620" y="283" on="0"/>
        <pt x="602" y="345" on="0"/>
        <pt x="590" y="378" on="1"/>
        <pt x="204" y="1456" on="1"/>
      </contour>
    </TTGlyph>
    <TTGlyph name="W" xMin="50" yMin="-10" xMax="1762" yMax="1456">
      <contour>
        <pt x="408" y="-10" on="1"/>
        <pt x="596" y="-10" on="1"/>
        <pt x="882" y="1070" on="1"/>
        <pt x="891" y="1104" on="0"/>
        <pt x="900" y="1165" on="0"/>
        <pt x="903" y="1198" on="1"/>
        <pt x="909" y="1198" on="1"/>
        <pt x="912" y="1165" on="0"/>
        <pt x="921" y="1104" on="0"/>
        <pt x="930" y="1070" on="1"/>
        <pt x="1216" y="-10" on="1"/>
        <pt x="1404" y="-10" on="1"/>
        <pt x="1762" y="1456" on="1"/>
        <pt x="1570" y="1456" on="1"/>
        <pt x="1331" y="378" on="1"/>
        <pt x="1323" y="344" on="0"/>
        <pt x="1316" y="283" on="0"/>
        <pt x="1313" y="250" on="1"/>
        <pt x="1307" y="250" on="1"/>
        <pt x="1304" y="283" on="0"/>
        <pt x="1298" y="344" on="0"/>
        <pt x="1289" y="378" on="1"/>
        <pt x="1006" y="1456" on="1"/>
        <pt x="808" y="1456" on="1"/>
        <pt x="535" y="378" on="1"/>
        <pt x="526" y="344" on="0"/>
        <pt x="520" y="283" on="0"/>
        <pt x="517" y="250" on="1"/>
        <pt x="511" y="250" on="1"/>
        <pt x="508" y="283" on="0"/>
        <pt x="501" y="344" on="0"/>
        <pt x="493" y="378" on="1"/>
        <pt x="244" y="1456" on="1"/>
        <pt x="50" y="1456" on="1"/>
      </contour>
    </TTGlyph>
    <TTGlyph name="X" xMin="25" yMin="0" xMax="1197" yMax="1456">
      <contour>
        <pt x="25" y="0" on="1"/>
        <pt x="237" y="0" on="1"/>
        <pt x="659" y="670" on="1"/>
        <pt x="673" y="670" on="1"/>
        <pt x="1172" y="1456" on="1"/>
        <pt x="960" y="1456" on="1"/>
        <pt x="563" y="806" on="1"/>
        <pt x="549" y="806" on="1"/>
      </contour>
      <contour>
        <pt x="50" y="1456" on="1"/>
        <pt x="549" y="670" on="1"/>
        <pt x="559" y="670" on="1"/>
        <pt x="981" y="0" on="1"/>
        <pt x="1197" y="0" on="1"/>
        <pt x="673" y="806" on="1"/>
        <pt x="663" y="806" on="1"/>
        <pt x="266" y="1456" on="1"/>
      </contour>
    </TTGlyph>
    <TTGlyph name="Y" xMin="15" yMin="0" xMax="1213" yMax="1456">
      <contour>
        <pt x="518" y="0" on="1"/>
        <pt x="710" y="0" on="1"/>
        <pt x="710" y="544" on="1"/>
        <pt x="1213" y="1456" on="1"/>
        <pt x="1005" y="1456" on="1"/>
        <pt x="673" y="840" on="1"/>
        <pt x="657" y="810" on="0"/>
        <pt x="630" y="750" on="0"/>
        <pt x="619" y="720" on="1"/>
        <pt x="613" y="720" on="1"/>
        <pt x="602" y="750" on="0"/>
        <pt x="575" y="810" on="0"/>
        <pt x="559" y="840" on="1"/>
        <pt x="231" y="1456" on="1"/>
        <pt x="15" y="1456" on="1"/>
        <pt x="518" y="544" on="1"/>
      </contour>
    </TTGlyph>
    <TTGlyph name="Yacute" xMin="15" yMin="0" xMax="1213" yMax="1836">
      <component glyphName="Y" x="0" y="0" flags="0x204"/>
      <component glyphName="acute" x="103" y="380" flags="0x4"/>
    </TTGlyph>
    <TTGlyph name="Z" xMin="36" yMin="0" xMax="1095" yMax="1456">
      <contour>
        <pt x="36" y="0" on="1"/>
        <pt x="1095" y="0" on="1"/>
        <pt x="1095" y="158" on="1"/>
        <pt x="265" y="158" on="1"/>
        <pt x="1063" y="1316" on="1"/>
        <pt x="1063" y="1456" on="1"/>
        <pt x="48" y="1456" on="1"/>
        <pt x="48" y="1298" on="1"/>
        <pt x="834" y="1298" on="1"/>
        <pt x="36" y="140" on="1"/>
      </contour>
    </TTGlyph>
    <TTGlyph name="a" xMin="90" yMin="-20" xMax="1002" yMax="1082">
      <contour>
        <pt x="90" y="310" on="1"/>
        <pt x="90" y="150" on="0"/>
        <pt x="300" y="-20" on="0"/>
        <pt x="450" y="-20" on="1"/>
        <pt x="580" y="-20" on="0"/>
        <pt x="745" y="80" on="0"/>
        <pt x="782" y="145" on="1"/>
        <pt x="785" y="105" on="0"/>
        <pt x="808" y="25" on="0"/>
        <pt x="822" y="0" on="1"/>
        <pt x="1002" y="0" on="1"/>
        <pt x="1002" y="16" on="1"/>
        <pt x="984" y="60" on="0"/>
        <pt x="964" y="175" on="0"/>
        <pt x="964" y="240" on="1"/>
        <pt x="964" y="720" on="1"/>
        <pt x="964" y="900" on="0"/>
        <pt x="755" y="1082" on="0"/>
        <pt x="565" y="1082" on="1"/>
        <pt x="375" y="1082" on="0"/>
        <pt x="152" y="895" on="0"/>
        <pt x="152" y="770" on="1"/>
        <pt x="152" y="765" on="1"/>
        <pt x="337" y="765" on="1"/>
        <pt x="337" y="770" on="1"/>
        <pt x="337" y="835" on="0"/>
        <pt x="440" y="934" on="0"/>
        <pt x="560" y="934" on="1"/>
        <pt x="680" y="934" on="0"/>
        <pt x="778" y="815" on="0"/>
        <pt x="778" y="720" on="1"/>
        <pt x="778" y="648" on="1"/>
        <pt x="540" y="648" on="1"/>
        <pt x="344" y="648" on="0"/>
        <pt x="90" y="470" on="0"/>
      </contour>
      <contour>
        <pt x="276" y="320" on="1"/>
        <pt x="276" y="410" on="0"/>
        <pt x="420" y="516" on="0"/>
        <pt x="560" y="516" on="1"/>
        <pt x="778" y="516" on="1"/>
        <pt x="778" y="365" on="1"/>
        <pt x="778" y="280" on="0"/>
        <pt x="600" y="128" on="0"/>
        <pt x="490" y="128" on="1"/>
        <pt x="380" y="128" on="0"/>
        <pt x="276" y="230" on="0"/>
      </contour>
    </TTGlyph>
    <TTGlyph name="aacute" xMin="90" yMin="-20" xMax="1002" yMax="1456">
      <component glyphName="a" x="0" y="0" flags="0x204"/>
      <component glyphName="acute" x="51" y="0" flags="0x4"/>
    </TTGlyph>
    <TTGlyph name="acircumflex" xMin="90" yMin="-20" xMax="1002" yMax="1456">
      <component glyphName="a" x="0" y="0" flags="0x204"/>
      <component glyphName="circumflex" x="51" y="0" flags="0x4"/>
    </TTGlyph>
    <TTGlyph name="acute" xMin="385" yMin="1156" xMax="829" yMax="1456">
      <contour>
        <pt x="385" y="1156" on="1"/>
        <pt x="560" y="1156" on="1"/>
        <pt x="829" y="1456" on="1"/>
        <pt x="604" y="1456" on="1"/>
      </contour>
    </TTGlyph>
    <TTGlyph name="adieresis" xMin="90" yMin="-20" xMax="1002" yMax="1368">
      <component glyphName="a" x="0" y="0" flags="0x204"/>
      <component glyphName="dieresis" x="51" y="0" flags="0x4"/>
    </TTGlyph>
    <TTGlyph name="ae" xMin="90" yMin="-30" xMax="1621" yMax="1082">
      <contour>
        <pt x="90" y="310" on="1"/>
        <pt x="90" y="150" on="0"/>
        <pt x="300" y="-20" on="0"/>
        <pt x="450" y="-20" on="1"/>
        <pt x="600" y="-20" on="0"/>
        <pt x="784" y="90" on="0"/>
        <pt x="846" y="164" on="1"/>
        <pt x="904" y="73" on="0"/>
        <pt x="1095" y="-30" on="0"/>
        <pt x="1224" y="-30" on="1"/>
        <pt x="1366" y="-30" on="0"/>
        <pt x="1564" y="102" on="0"/>
        <pt x="1613" y="175" on="1"/>
        <pt x="1493" y="270" on="1"/>
        <pt x="1450" y="212" on="0"/>
        <pt x="1318" y="122" on="0"/>
        <pt x="1224" y="122" on="1"/>
        <pt x="1072" y="122" on="0"/>
        <pt x="928" y="347" on="0"/>
        <pt x="928" y="510" on="1"/>
        <pt x="928" y="542" on="1"/>
        <pt x="928" y="705" on="0"/>
        <pt x="1064" y="930" on="0"/>
        <pt x="1194" y="930" on="1"/>
        <pt x="1324" y="930" on="0"/>
        <pt x="1431" y="760" on="0"/>
        <pt x="1431" y="632" on="1"/>
        <pt x="1431" y="632" on="1"/>
        <pt x="852" y="632" on="1"/>
        <pt x="852" y="484" on="1"/>
        <pt x="1621" y="484" on="1"/>
        <pt x="1621" y="560" on="1"/>
        <pt x="1621" y="800" on="0"/>
        <pt x="1399" y="1082" on="0"/>
        <pt x="1194" y="1082" on="1"/>
        <pt x="1095" y="1082" on="0"/>
        <pt x="933" y="1001" on="0"/>
        <pt x="876" y="928" on="1"/>
        <pt x="834" y="1002" on="0"/>
        <pt x="670" y="1082" on="0"/>
        <pt x="555" y="1082" on="1"/>
        <pt x="370" y="1082" on="0"/>
        <pt x="152" y="895" on="0"/>
        <pt x="152" y="770" on="1"/>
        <pt x="152" y="765" on="1"/>
        <pt x="337" y="765" on="1"/>
        <pt x="337" y="770" on="1"/>
        <pt x="337" y="835" on="0"/>
        <pt x="435" y="934" on="0"/>
        <pt x="550" y="934" on="1"/>
        <pt x="664" y="934" on="0"/>
        <pt x="758" y="815" on="0"/>
        <pt x="758" y="720" on="1"/>
        <pt x="758" y="648" on="1"/>
        <pt x="540" y="648" on="1"/>
        <pt x="344" y="648" on="0"/>
        <pt x="90" y="470" on="0"/>
      </contour>
      <contour>
        <pt x="276" y="320" on="1"/>
        <pt x="276" y="410" on="0"/>
        <pt x="420" y="516" on="0"/>
        <pt x="560" y="516" on="1"/>
        <pt x="758" y="516" on="1"/>
        <pt x="758" y="365" on="1"/>
        <pt x="758" y="280" on="0"/>
        <pt x="592" y="128" on="0"/>
        <pt x="490" y="128" on="1"/>
        <pt x="380" y="128" on="0"/>
        <pt x="276" y="230" on="0"/>
      </contour>
    </TTGlyph>
    <TTGlyph name="agrave" xMin="90" yMin="-20" xMax="1002" yMax="1456">
      <component glyphName="a" x="0" y="0" flags="0x204"/>
      <component glyphName="grave" x="51" y="0" flags="0x4"/>
    </TTGlyph>
    <TTGlyph name="ampersand" xMin="80" yMin="-20" xMax="1256" yMax="1486">
      <contour>
        <pt x="80" y="380" on="1"/>
        <pt x="80" y="220" on="0"/>
        <pt x="330" y="-20" on="0"/>
        <pt x="550" y="-20" on="1"/>
        <pt x="810" y="-20" on="0"/>
        <pt x="1162" y="380" on="0"/>
        <pt x="1162" y="674" on="1"/>
        <pt x="990" y="674" on="1"/>
        <pt x="990" y="420" on="0"/>
        <pt x="730" y="132" on="0"/>
        <pt x="550" y="132" on="1"/>
        <pt x="420" y="132" on="0"/>
        <pt x="264" y="270" on="0"/>
        <pt x="264" y="380" on="1"/>
        <pt x="264" y="490" on="0"/>
        <pt x="410" y="652" on="0"/>
        <pt x="550" y="740" on="1"/>
        <pt x="710" y="840" on="1"/>
        <pt x="806" y="900" on="0"/>
        <pt x="922" y="1060" on="0"/>
        <pt x="922" y="1180" on="1"/>
        <pt x="922" y="1310" on="0"/>
        <pt x="730" y="1486" on="0"/>
        <pt x="575" y="1486" on="1"/>
        <pt x="420" y="1486" on="0"/>
        <pt x="210" y="1300" on="0"/>
        <pt x="210" y="1160" on="1"/>
        <pt x="210" y="1060" on="0"/>
        <pt x="324" y="870" on="0"/>
        <pt x="430" y="740" on="1"/>
        <pt x="1034" y="0" on="1"/>
        <pt x="1256" y="0" on="1"/>
        <pt x="570" y="840" on="1"/>
        <pt x="472" y="960" on="0"/>
        <pt x="392" y="1090" on="0"/>
        <pt x="392" y="1160" on="1"/>
        <pt x="392" y="1230" on="0"/>
        <pt x="490" y="1334" on="0"/>
        <pt x="575" y="1334" on="1"/>
        <pt x="660" y="1334" on="0"/>
        <pt x="750" y="1240" on="0"/>
        <pt x="750" y="1170" on="1"/>
        <pt x="750" y="1110" on="0"/>
        <pt x="690" y="1010" on="0"/>
        <pt x="610" y="960" on="1"/>
        <pt x="450" y="860" on="1"/>
        <pt x="300" y="766" on="0"/>
        <pt x="80" y="540" on="0"/>
      </contour>
    </TTGlyph>
    <TTGlyph name="aring" xMin="90" yMin="-20" xMax="1002" yMax="1590">
      <component glyphName="a" x="0" y="0" flags="0x204"/>
      <component glyphName="ring" x="51" y="0" flags="0x4"/>
    </TTGlyph>
    <TTGlyph name="asciicircum" xMin="25" yMin="720" xMax="1145" yMax="1456">
      <contour>
        <pt x="25" y="720" on="1"/>
        <pt x="225" y="720" on="1"/>
        <pt x="585" y="1290" on="1"/>
        <pt x="945" y="720" on="1"/>
        <pt x="1145" y="720" on="1"/>
        <pt x="670" y="1456" on="1"/>
        <pt x="500" y="1456" on="1"/>
      </contour>
    </TTGlyph>
    <TTGlyph name="asciitilde" xMin="50" yMin="424" xMax="1120" yMax="800">
      <contour>
        <pt x="50" y="436" on="1"/>
        <pt x="220" y="436" on="1"/>
        <pt x="220" y="516" on="0"/>
        <pt x="280" y="630" on="0"/>
        <pt x="354" y="630" on="1"/>
        <pt x="438" y="630" on="0"/>
        <pt x="672" y="424" on="0"/>
        <pt x="816" y="424" on="1"/>
        <pt x="960" y="424" on="0"/>
        <pt x="1120" y="640" on="0"/>
        <pt x="1120" y="788" on="1"/>
        <pt x="950" y="788" on="1"/>
        <pt x="950" y="708" on="0"/>
        <pt x="890" y="594" on="0"/>
        <pt x="816" y="594" on="1"/>
        <pt x="732" y="594" on="0"/>
        <pt x="498" y="800" on="0"/>
        <pt x="354" y="800" on="1"/>
        <pt x="210" y="800" on="0"/>
        <pt x="50" y="584" on="0"/>
      </contour>
    </TTGlyph>
    <TTGlyph name="asterisk" xMin="58" yMin="559" xMax="1022" yMax="1476">
      <contour>
        <pt x="58" y="1057" on="1"/>
        <pt x="447" y="969" on="1"/>
        <pt x="183" y="671" on="1"/>
        <pt x="337" y="559" on="1"/>
        <pt x="540" y="903" on="1"/>
        <pt x="743" y="559" on="1"/>
        <pt x="897" y="671" on="1"/>
        <pt x="633" y="969" on="1"/>
        <pt x="1022" y="1057" on="1"/>
        <pt x="963" y="1237" on="1"/>
        <pt x="597" y="1079" on="1"/>
        <pt x="635" y="1476" on="1"/>
        <pt x="445" y="1476" on="1"/>
        <pt x="483" y="1079" on="1"/>
        <pt x="117" y="1237" on="1"/>
      </contour>
    </TTGlyph>
    <TTGlyph name="at" xMin="114" yMin="-446" xMax="1996" yMax="1486">
      <contour>
        <pt x="615" y="400" on="1"/>
        <pt x="615" y="220" on="0"/>
        <pt x="780" y="0" on="0"/>
        <pt x="920" y="0" on="1"/>
        <pt x="1000" y="0" on="0"/>
        <pt x="1140" y="100" on="0"/>
        <pt x="1190" y="180" on="1"/>
        <pt x="1230" y="100" on="0"/>
        <pt x="1404" y="0" on="0"/>
        <pt x="1520" y="0" on="1"/>
        <pt x="1720" y="0" on="0"/>
        <pt x="1996" y="360" on="0"/>
        <pt x="1996" y="650" on="1"/>
        <pt x="1996" y="1000" on="0"/>
        <pt x="1500" y="1486" on="0"/>
        <pt x="1100" y="1486" on="1"/>
        <pt x="700" y="1486" on="0"/>
        <pt x="114" y="880" on="0"/>
        <pt x="114" y="460" on="1"/>
        <pt x="114" y="40" on="0"/>
        <pt x="640" y="-446" on="0"/>
        <pt x="1000" y="-446" on="1"/>
        <pt x="1140" y="-446" on="0"/>
        <pt x="1330" y="-400" on="0"/>
        <pt x="1400" y="-356" on="1"/>
        <pt x="1400" y="-200" on="1"/>
        <pt x="1334" y="-236" on="0"/>
        <pt x="1140" y="-290" on="0"/>
        <pt x="1000" y="-290" on="1"/>
        <pt x="700" y="-290" on="0"/>
        <pt x="300" y="100" on="0"/>
        <pt x="300" y="460" on="1"/>
        <pt x="300" y="820" on="0"/>
        <pt x="760" y="1330" on="0"/>
        <pt x="1100" y="1330" on="1"/>
        <pt x="1440" y="1330" on="0"/>
        <pt x="1816" y="920" on="0"/>
        <pt x="1816" y="650" on="1"/>
        <pt x="1816" y="420" on="0"/>
        <pt x="1640" y="136" on="0"/>
        <pt x="1500" y="136" on="1"/>
        <pt x="1420" y="136" on="0"/>
        <pt x="1336" y="230" on="0"/>
        <pt x="1360" y="350" on="1"/>
        <pt x="1480" y="946" on="1"/>
        <pt x="1390" y="946" on="1"/>
        <pt x="1340" y="985" on="0"/>
        <pt x="1190" y="1052" on="0"/>
        <pt x="1100" y="1052" on="1"/>
        <pt x="910" y="1052" on="0"/>
        <pt x="615" y="680" on="0"/>
      </contour>
      <contour>
        <pt x="805" y="400" on="1"/>
        <pt x="805" y="620" on="0"/>
        <pt x="989" y="912" on="0"/>
        <pt x="1130" y="912" on="1"/>
        <pt x="1170" y="912" on="0"/>
        <pt x="1250" y="890" on="0"/>
        <pt x="1280" y="870" on="1"/>
        <pt x="1180" y="390" on="1"/>
        <pt x="1153" y="260" on="0"/>
        <pt x="1040" y="156" on="0"/>
        <pt x="970" y="156" on="1"/>
        <pt x="890" y="156" on="0"/>
        <pt x="805" y="280" on="0"/>
      </contour>
    </TTGlyph>
    <TTGlyph name="atilde" xMin="90" yMin="-20" xMax="1002" yMax="1412">
      <component glyphName="a" x="0" y="0" flags="0x204"/>
      <component glyphName="tilde" x="51" y="0" flags="0x4"/>
    </TTGlyph>
    <TTGlyph name="b" xMin="148" yMin="-20" xMax="1085" yMax="1536">
      <contour>
        <pt x="148" y="0" on="1"/>
        <pt x="316" y="0" on="1"/>
        <pt x="324" y="137" on="1"/>
        <pt x="330" y="137" on="1"/>
        <pt x="370" y="72" on="0"/>
        <pt x="535" y="-20" on="0"/>
        <pt x="645" y="-20" on="1"/>
        <pt x="845" y="-20" on="0"/>
        <pt x="1085" y="280" on="0"/>
        <pt x="1085" y="510" on="1"/>
        <pt x="1085" y="542" on="1"/>
        <pt x="1085" y="772" on="0"/>
        <pt x="845" y="1072" on="0"/>
        <pt x="645" y="1072" on="1"/>
        <pt x="535" y="1072" on="0"/>
        <pt x="380" y="993" on="0"/>
        <pt x="334" y="928" on="1"/>
        <pt x="334" y="1536" on="1"/>
        <pt x="148" y="1536" on="1"/>
      </contour>
      <contour>
        <pt x="334" y="312" on="1"/>
        <pt x="334" y="740" on="1"/>
        <pt x="365" y="810" on="0"/>
        <pt x="505" y="920" on="0"/>
        <pt x="605" y="920" on="1"/>
        <pt x="755" y="920" on="0"/>
        <pt x="895" y="702" on="0"/>
        <pt x="895" y="542" on="1"/>
        <pt x="895" y="510" on="1"/>
        <pt x="895" y="350" on="0"/>
        <pt x="755" y="132" on="0"/>
        <pt x="605" y="132" on="1"/>
        <pt x="505" y="132" on="0"/>
        <pt x="365" y="242" on="0"/>
      </contour>
    </TTGlyph>
    <TTGlyph name="backslash" xMin="-100" yMin="-125" xMax="684" yMax="1456">
      <contour>
        <pt x="-100" y="1456" on="1"/>
        <pt x="508" y="-125" on="1"/>
        <pt x="684" y="-125" on="1"/>
        <pt x="76" y="1456" on="1"/>
      </contour>
    </TTGlyph>
    <TTGlyph name="bar" xMin="210" yMin="-416" xMax="382" yMax="1456">
      <contour>
        <pt x="210" y="-416" on="1"/>
        <pt x="382" y="-416" on="1"/>
        <pt x="382" y="1456" on="1"/>
        <pt x="210" y="1456" on="1"/>
      </contour>
    </TTGlyph>
    <TTGlyph name="bitcoin" xMin="40" yMin="0" xMax="1110" yMax="1456">
      <contour>
        <pt x="170" y="0" on="1"/>
        <pt x="630" y="0" on="1"/>
        <pt x="847" y="0" on="0"/>
        <pt x="1110" y="220" on="0"/>
        <pt x="1110" y="420" on="1"/>
        <pt x="1110" y="560" on="0"/>
        <pt x="970" y="732" on="0"/>
        <pt x="860" y="764" on="1"/>
        <pt x="860" y="768" on="1"/>
        <pt x="950" y="800" on="0"/>
        <pt x="1072" y="950" on="0"/>
        <pt x="1072" y="1070" on="1"/>
        <pt x="1072" y="1270" on="0"/>
        <pt x="820" y="1456" on="0"/>
        <pt x="600" y="1456" on="1"/>
        <pt x="170" y="1456" on="1"/>
      </contour>
      <contour>
        <pt x="358" y="158" on="1"/>
        <pt x="358" y="680" on="1"/>
        <pt x="630" y="680" on="1"/>
        <pt x="780" y="680" on="0"/>
        <pt x="920" y="540" on="0"/>
        <pt x="920" y="420" on="1"/>
        <pt x="920" y="300" on="0"/>
        <pt x="780" y="158" on="0"/>
        <pt x="630" y="158" on="1"/>
      </contour>
      <contour>
        <pt x="358" y="836" on="1"/>
        <pt x="358" y="1298" on="1"/>
        <pt x="600" y="1298" on="1"/>
        <pt x="750" y="1298" on="0"/>
        <pt x="882" y="1180" on="0"/>
        <pt x="882" y="1070" on="1"/>
        <pt x="882" y="960" on="0"/>
        <pt x="750" y="836" on="0"/>
        <pt x="600" y="836" on="1"/>
      </contour>
      <contour>
        <pt x="40" y="366" on="1"/>
        <pt x="262" y="366" on="1"/>
        <pt x="266" y="370" on="1"/>
        <pt x="638" y="370" on="1"/>
        <pt x="638" y="518" on="1"/>
        <pt x="266" y="518" on="1"/>
        <pt x="262" y="522" on="1"/>
        <pt x="40" y="522" on="1"/>
      </contour>
    </TTGlyph>
    <TTGlyph name="braceleft" xMin="64" yMin="-312" xMax="670" yMax="1460">
      <contour>
        <pt x="670" y="-312" on="1"/>
        <pt x="670" y="-166" on="1"/>
        <pt x="522" y="-166" on="0"/>
        <pt x="383" y="2" on="0"/>
        <pt x="412" y="123" on="1"/>
        <pt x="462" y="334" on="1"/>
        <pt x="482" y="418" on="0"/>
        <pt x="410" y="548" on="0"/>
        <pt x="312" y="574" on="1"/>
        <pt x="410" y="600" on="0"/>
        <pt x="482" y="730" on="0"/>
        <pt x="462" y="814" on="1"/>
        <pt x="412" y="1025" on="1"/>
        <pt x="383" y="1146" on="0"/>
        <pt x="522" y="1314" on="0"/>
        <pt x="670" y="1314" on="1"/>
        <pt x="670" y="1460" on="1"/>
        <pt x="444" y="1460" on="0"/>
        <pt x="189" y="1180" on="0"/>
        <pt x="226" y="1025" on="1"/>
        <pt x="276" y="814" on="1"/>
        <pt x="301" y="707" on="0"/>
        <pt x="176" y="640" on="0"/>
        <pt x="64" y="640" on="1"/>
        <pt x="64" y="508" on="1"/>
        <pt x="176" y="508" on="0"/>
        <pt x="301" y="441" on="0"/>
        <pt x="276" y="334" on="1"/>
        <pt x="226" y="123" on="1"/>
        <pt x="189" y="-32" on="0"/>
        <pt x="444" y="-312" on="0"/>
      </contour>
    </TTGlyph>
    <TTGlyph name="braceright" xMin="30" yMin="-312" xMax="636" yMax="1460">
      <contour>
        <pt x="30" y="-312" on="1"/>
        <pt x="256" y="-312" on="0"/>
        <pt x="511" y="-32" on="0"/>
        <pt x="474" y="123" on="1"/>
        <pt x="424" y="334" on="1"/>
        <pt x="399" y="441" on="0"/>
        <pt x="524" y="508" on="0"/>
        <pt x="636" y="508" on="1"/>
        <pt x="636" y="640" on="1"/>
        <pt x="524" y="640" on="0"/>
        <pt x="399" y="707" on="0"/>
        <pt x="424" y="814" on="1"/>
        <pt x="474" y="1025" on="1"/>
        <pt x="511" y="1180" on="0"/>
        <pt x="256" y="1460" on="0"/>
        <pt x="30" y="1460" on="1"/>
        <pt x="30" y="1314" on="1"/>
        <pt x="178" y="1314" on="0"/>
        <pt x="317" y="1146" on="0"/>
        <pt x="288" y="1025" on="1"/>
        <pt x="238" y="814" on="1"/>
        <pt x="218" y="730" on="0"/>
        <pt x="290" y="600" on="0"/>
        <pt x="388" y="574" on="1"/>
        <pt x="290" y="548" on="0"/>
        <pt x="218" y="418" on="0"/>
        <pt x="238" y="334" on="1"/>
        <pt x="288" y="123" on="1"/>
        <pt x="317" y="2" on="0"/>
        <pt x="178" y="-166" on="0"/>
        <pt x="30" y="-166" on="1"/>
      </contour>
    </TTGlyph>
    <TTGlyph name="bracketleft" xMin="144" yMin="-310" xMax="620" yMax="1456">
      <contour>
        <pt x="144" y="-310" on="1"/>
        <pt x="620" y="-310" on="1"/>
        <pt x="620" y="-150" on="1"/>
        <pt x="329" y="-150" on="1"/>
        <pt x="329" y="1296" on="1"/>
        <pt x="620" y="1296" on="1"/>
        <pt x="620" y="1456" on="1"/>
        <pt x="144" y="1456" on="1"/>
      </contour>
    </TTGlyph>
    <TTGlyph name="bracketright" xMin="30" yMin="-310" xMax="506" yMax="1456">
      <contour>
        <pt x="506" y="-310" on="1"/>
        <pt x="506" y="1456" on="1"/>
        <pt x="30" y="1456" on="1"/>
        <pt x="30" y="1296" on="1"/>
        <pt x="321" y="1296" on="1"/>
        <pt x="321" y="-150" on="1"/>
        <pt x="30" y="-150" on="1"/>
        <pt x="30" y="-310" on="1"/>
      </contour>
    </TTGlyph>
    <TTGlyph name="brokenbar" xMin="210" yMin="-416" xMax="382" yMax="1456">
      <contour>
        <pt x="210" y="-416" on="1"/>
        <pt x="382" y="-416" on="1"/>
        <pt x="382" y="420" on="1"/>
        <pt x="210" y="420" on="1"/>
      </contour>
      <contour>
        <pt x="210" y="620" on="1"/>
        <pt x="382" y="620" on="1"/>
        <pt x="382" y="1456" on="1"/>
        <pt x="210" y="1456" on="1"/>
      </contour>
    </TTGlyph>
    <TTGlyph name="bullet" xMin="164" yMin="536" xMax="592" yMax="972">
      <contour>
        <pt x="164" y="734" on="1"/>
        <pt x="164" y="648" on="0"/>
        <pt x="284" y="536" on="0"/>
        <pt x="378" y="536" on="1"/>
        <pt x="472" y="536" on="0"/>
        <pt x="592" y="648" on="0"/>
        <pt x="592" y="734" on="1"/>
        <pt x="592" y="774" on="1"/>
        <pt x="592" y="860" on="0"/>
        <pt x="472" y="972" on="0"/>
        <pt x="378" y="972" on="1"/>
        <pt x="284" y="972" on="0"/>
        <pt x="164" y="860" on="0"/>
        <pt x="164" y="774" on="1"/>
      </contour>
    </TTGlyph>
    <TTGlyph name="c" xMin="85" yMin="-30" xMax="999" yMax="1082">
      <contour>
        <pt x="85" y="510" on="1"/>
        <pt x="85" y="272" on="0"/>
        <pt x="344" y="-30" on="0"/>
        <pt x="571" y="-30" on="1"/>
        <pt x="781" y="-30" on="0"/>
        <pt x="999" y="197" on="0"/>
        <pt x="999" y="337" on="1"/>
        <pt x="999" y="342" on="1"/>
        <pt x="819" y="342" on="1"/>
        <pt x="819" y="337" on="1"/>
        <pt x="819" y="252" on="0"/>
        <pt x="701" y="122" on="0"/>
        <pt x="571" y="122" on="1"/>
        <pt x="419" y="122" on="0"/>
        <pt x="275" y="347" on="0"/>
        <pt x="275" y="510" on="1"/>
        <pt x="275" y="542" on="1"/>
        <pt x="275" y="705" on="0"/>
        <pt x="419" y="930" on="0"/>
        <pt x="571" y="930" on="1"/>
        <pt x="701" y="930" on="0"/>
        <pt x="819" y="800" on="0"/>
        <pt x="819" y="715" on="1"/>
        <pt x="819" y="710" on="1"/>
        <pt x="999" y="710" on="1"/>
        <pt x="999" y="715" on="1"/>
        <pt x="999" y="855" on="0"/>
        <pt x="781" y="1082" on="0"/>
        <pt x="571" y="1082" on="1"/>
        <pt x="344" y="1082" on="0"/>
        <pt x="85" y="780" on="0"/>
        <pt x="85" y="542" on="1"/>
      </contour>
    </TTGlyph>
    <TTGlyph name="ccedilla" xMin="85" yMin="-536" xMax="999" yMax="1082">
      <component glyphName="c" x="0" y="0" flags="0x204"/>
      <component glyphName="cedilla" x="59" y="0" flags="0x4"/>
    </TTGlyph>
    <TTGlyph name="cedilla" xMin="300" yMin="-536" xMax="762" yMax="0">
      <contour>
        <pt x="458" y="0" on="1"/>
        <pt x="398" y="-215" on="1"/>
        <pt x="508" y="-215" on="0"/>
        <pt x="602" y="-260" on="0"/>
        <pt x="602" y="-300" on="1"/>
        <pt x="602" y="-350" on="0"/>
        <pt x="460" y="-408" on="0"/>
        <pt x="300" y="-408" on="1"/>
        <pt x="308" y="-536" on="1"/>
        <pt x="568" y="-536" on="0"/>
        <pt x="762" y="-400" on="0"/>
        <pt x="762" y="-300" on="1"/>
        <pt x="762" y="-220" on="0"/>
        <pt x="653" y="-130" on="0"/>
        <pt x="551" y="-113" on="1"/>
        <pt x="592" y="0" on="1"/>
      </contour>
    </TTGlyph>
    <TTGlyph name="cent" xMin="85" yMin="-256" xMax="1019" yMax="1328">
      <contour>
        <pt x="85" y="520" on="1"/>
        <pt x="85" y="286" on="0"/>
        <pt x="349" y="-10" on="0"/>
        <pt x="581" y="-10" on="1"/>
        <pt x="796" y="-10" on="0"/>
        <pt x="1019" y="217" on="0"/>
        <pt x="1019" y="357" on="1"/>
        <pt x="1019" y="362" on="1"/>
        <pt x="839" y="362" on="1"/>
        <pt x="839" y="357" on="1"/>
        <pt x="839" y="272" on="0"/>
        <pt x="716" y="142" on="0"/>
        <pt x="581" y="142" on="1"/>
        <pt x="424" y="142" on="0"/>
        <pt x="275" y="361" on="0"/>
        <pt x="275" y="520" on="1"/>
        <pt x="275" y="552" on="1"/>
        <pt x="275" y="711" on="0"/>
        <pt x="424" y="930" on="0"/>
        <pt x="581" y="930" on="1"/>
        <pt x="716" y="930" on="0"/>
        <pt x="839" y="800" on="0"/>
        <pt x="839" y="715" on="1"/>
        <pt x="839" y="710" on="1"/>
        <pt x="1019" y="710" on="1"/>
        <pt x="1019" y="715" on="1"/>
        <pt x="1019" y="855" on="0"/>
        <pt x="796" y="1082" on="0"/>
        <pt x="581" y="1082" on="1"/>
        <pt x="349" y="1082" on="0"/>
        <pt x="85" y="786" on="0"/>
        <pt x="85" y="552" on="1"/>
      </contour>
      <contour>
        <pt x="500" y="-256" on="1"/>
        <pt x="650" y="-256" on="1"/>
        <pt x="650" y="54" on="1"/>
        <pt x="644" y="60" on="1"/>
        <pt x="644" y="541" on="1"/>
        <pt x="506" y="541" on="1"/>
        <pt x="506" y="60" on="1"/>
        <pt x="500" y="54" on="1"/>
      </contour>
      <contour>
        <pt x="506" y="541" on="1"/>
        <pt x="644" y="541" on="1"/>
        <pt x="644" y="1022" on="1"/>
        <pt x="650" y="1028" on="1"/>
        <pt x="650" y="1328" on="1"/>
        <pt x="500" y="1328" on="1"/>
        <pt x="500" y="1028" on="1"/>
        <pt x="506" y="1022" on="1"/>
      </contour>
    </TTGlyph>
    <TTGlyph name="circumflex" xMin="188" yMin="1156" xMax="836" yMax="1456">
      <contour>
        <pt x="188" y="1156" on="1"/>
        <pt x="352" y="1156" on="1"/>
        <pt x="512" y="1322" on="1"/>
        <pt x="672" y="1156" on="1"/>
        <pt x="836" y="1156" on="1"/>
        <pt x="588" y="1456" on="1"/>
        <pt x="436" y="1456" on="1"/>
      </contour>
    </TTGlyph>
    <TTGlyph name="colon" xMin="176" yMin="-22" xMax="424" yMax="1068">
      <contour>
        <pt x="176" y="97" on="1"/>
        <pt x="176" y="48" on="0"/>
        <pt x="240" y="-22" on="0"/>
        <pt x="300" y="-22" on="1"/>
        <pt x="360" y="-22" on="0"/>
        <pt x="424" y="48" on="0"/>
        <pt x="424" y="97" on="1"/>
        <pt x="424" y="146" on="0"/>
        <pt x="360" y="216" on="0"/>
        <pt x="300" y="216" on="1"/>
        <pt x="240" y="216" on="0"/>
        <pt x="176" y="146" on="0"/>
      </contour>
      <contour>
        <pt x="176" y="949" on="1"/>
        <pt x="176" y="900" on="0"/>
        <pt x="240" y="830" on="0"/>
        <pt x="300" y="830" on="1"/>
        <pt x="360" y="830" on="0"/>
        <pt x="424" y="900" on="0"/>
        <pt x="424" y="949" on="1"/>
        <pt x="424" y="998" on="0"/>
        <pt x="360" y="1068" on="0"/>
        <pt x="300" y="1068" on="1"/>
        <pt x="240" y="1068" on="0"/>
        <pt x="176" y="998" on="0"/>
      </contour>
    </TTGlyph>
    <TTGlyph name="comma" xMin="110" yMin="-291" xMax="390" yMax="220">
      <contour>
        <pt x="110" y="-218" on="1"/>
        <pt x="215" y="-291" on="1"/>
        <pt x="294" y="-224" on="0"/>
        <pt x="390" y="-40" on="0"/>
        <pt x="390" y="70" on="1"/>
        <pt x="390" y="220" on="1"/>
        <pt x="210" y="220" on="1"/>
        <pt x="210" y="70" on="1"/>
        <pt x="210" y="-20" on="0"/>
        <pt x="158" y="-154" on="0"/>
      </contour>
    </TTGlyph>
    <TTGlyph name="copyright" xMin="94" yMin="-82" xMax="1648" yMax="1478">
      <contour>
        <pt x="94" y="698" on="1"/>
        <pt x="94" y="364" on="0"/>
        <pt x="555" y="-82" on="0"/>
        <pt x="871" y="-82" on="1"/>
        <pt x="1187" y="-82" on="0"/>
        <pt x="1648" y="364" on="0"/>
        <pt x="1648" y="698" on="1"/>
        <pt x="1648" y="1032" on="0"/>
        <pt x="1187" y="1478" on="0"/>
        <pt x="871" y="1478" on="1"/>
        <pt x="555" y="1478" on="0"/>
        <pt x="94" y="1032" on="0"/>
      </contour>
      <contour>
        <pt x="248" y="698" on="1"/>
        <pt x="248" y="962" on="0"/>
        <pt x="605" y="1332" on="0"/>
        <pt x="871" y="1332" on="1"/>
        <pt x="1137" y="1332" on="0"/>
        <pt x="1494" y="962" on="0"/>
        <pt x="1494" y="698" on="1"/>
        <pt x="1494" y="434" on="0"/>
        <pt x="1137" y="64" on="0"/>
        <pt x="871" y="64" on="1"/>
        <pt x="605" y="64" on="0"/>
        <pt x="248" y="434" on="0"/>
      </contour>
      <contour>
        <pt x="466" y="668" on="1"/>
        <pt x="466" y="488" on="0"/>
        <pt x="698" y="264" on="0"/>
        <pt x="872" y="264" on="1"/>
        <pt x="1036" y="264" on="0"/>
        <pt x="1250" y="440" on="0"/>
        <pt x="1250" y="570" on="1"/>
        <pt x="1250" y="580" on="1"/>
        <pt x="1094" y="580" on="1"/>
        <pt x="1094" y="570" on="1"/>
        <pt x="1094" y="490" on="0"/>
        <pt x="976" y="404" on="0"/>
        <pt x="872" y="404" on="1"/>
        <pt x="758" y="404" on="0"/>
        <pt x="630" y="548" on="0"/>
        <pt x="630" y="668" on="1"/>
        <pt x="630" y="748" on="1"/>
        <pt x="630" y="868" on="0"/>
        <pt x="758" y="1012" on="0"/>
        <pt x="872" y="1012" on="1"/>
        <pt x="976" y="1012" on="0"/>
        <pt x="1094" y="926" on="0"/>
        <pt x="1094" y="846" on="1"/>
        <pt x="1094" y="836" on="1"/>
        <pt x="1250" y="836" on="1"/>
        <pt x="1250" y="846" on="1"/>
        <pt x="1250" y="976" on="0"/>
        <pt x="1036" y="1152" on="0"/>
        <pt x="872" y="1152" on="1"/>
        <pt x="698" y="1152" on="0"/>
        <pt x="466" y="928" on="0"/>
        <pt x="466" y="748" on="1"/>
      </contour>
    </TTGlyph>
    <TTGlyph name="currency" xMin="94" yMin="-26" xMax="1366" yMax="1246">
      <contour>
        <pt x="140" y="610" on="1"/>
        <pt x="140" y="355" on="0"/>
        <pt x="475" y="0" on="0"/>
        <pt x="730" y="0" on="1"/>
        <pt x="985" y="0" on="0"/>
        <pt x="1320" y="355" on="0"/>
        <pt x="1320" y="610" on="1"/>
        <pt x="1320" y="865" on="0"/>
        <pt x="985" y="1220" on="0"/>
        <pt x="730" y="1220" on="1"/>
        <pt x="475" y="1220" on="0"/>
        <pt x="140" y="865" on="0"/>
      </contour>
      <contour>
        <pt x="320" y="610" on="1"/>
        <pt x="320" y="800" on="0"/>
        <pt x="550" y="1060" on="0"/>
        <pt x="730" y="1060" on="1"/>
        <pt x="910" y="1060" on="0"/>
        <pt x="1140" y="800" on="0"/>
        <pt x="1140" y="610" on="1"/>
        <pt x="1140" y="420" on="0"/>
        <pt x="910" y="160" on="0"/>
        <pt x="730" y="160" on="1"/>
        <pt x="550" y="160" on="0"/>
        <pt x="320" y="420" on="0"/>
      </contour>
      <contour>
        <pt x="94" y="1119" on="1"/>
        <pt x="292" y="921" on="1"/>
        <pt x="419" y="1048" on="1"/>
        <pt x="221" y="1246" on="1"/>
      </contour>
      <contour>
        <pt x="1041" y="1048" on="1"/>
        <pt x="1168" y="921" on="1"/>
        <pt x="1366" y="1119" on="1"/>
        <pt x="1239" y="1246" on="1"/>
      </contour>
      <contour>
        <pt x="1041" y="172" on="1"/>
        <pt x="1239" y="-26" on="1"/>
        <pt x="1366" y="101" on="1"/>
        <pt x="1168" y="299" on="1"/>
      </contour>
      <contour>
        <pt x="94" y="101" on="1"/>
        <pt x="221" y="-26" on="1"/>
        <pt x="419" y="172" on="1"/>
        <pt x="292" y="299" on="1"/>
      </contour>
    </TTGlyph>
    <TTGlyph name="d" xMin="85" yMin="-20" xMax="1022" yMax="1536">
      <contour>
        <pt x="85" y="510" on="1"/>
        <pt x="85" y="280" on="0"/>
        <pt x="325" y="-20" on="0"/>
        <pt x="525" y="-20" on="1"/>
        <pt x="635" y="-20" on="0"/>
        <pt x="800" y="72" on="0"/>
        <pt x="840" y="137" on="1"/>
        <pt x="846" y="137" on="1"/>
        <pt x="854" y="0" on="1"/>
        <pt x="1022" y="0" on="1"/>
        <pt x="1022" y="1536" on="1"/>
        <pt x="836" y="1536" on="1"/>
        <pt x="836" y="928" on="1"/>
        <pt x="790" y="993" on="0"/>
        <pt x="635" y="1072" on="0"/>
        <pt x="525" y="1072" on="1"/>
        <pt x="325" y="1072" on="0"/>
        <pt x="85" y="772" on="0"/>
        <pt x="85" y="542" on="1"/>
      </contour>
      <contour>
        <pt x="275" y="510" on="1"/>
        <pt x="275" y="542" on="1"/>
        <pt x="275" y="702" on="0"/>
        <pt x="415" y="920" on="0"/>
        <pt x="565" y="920" on="1"/>
        <pt x="665" y="920" on="0"/>
        <pt x="805" y="810" on="0"/>
        <pt x="836" y="740" on="1"/>
        <pt x="836" y="312" on="1"/>
        <pt x="805" y="242" on="0"/>
        <pt x="665" y="132" on="0"/>
        <pt x="565" y="132" on="1"/>
        <pt x="415" y="132" on="0"/>
        <pt x="275" y="350" on="0"/>
      </contour>
    </TTGlyph>
    <TTGlyph name="dagger" xMin="70" yMin="-220" xMax="1060" yMax="1516">
      <contour>
        <pt x="515" y="-220" on="1"/>
        <pt x="615" y="-220" on="1"/>
        <pt x="665" y="524" on="1"/>
        <pt x="630" y="1020" on="1"/>
        <pt x="670" y="1516" on="1"/>
        <pt x="460" y="1516" on="1"/>
        <pt x="500" y="1020" on="1"/>
        <pt x="465" y="524" on="1"/>
      </contour>
      <contour>
        <pt x="70" y="930" on="1"/>
        <pt x="565" y="950" on="1"/>
        <pt x="1060" y="930" on="1"/>
        <pt x="1060" y="1120" on="1"/>
        <pt x="565" y="1100" on="1"/>
        <pt x="70" y="1120" on="1"/>
      </contour>
    </TTGlyph>
    <TTGlyph name="degree" xMin="120" yMin="836" xMax="760" yMax="1476">
      <contour>
        <pt x="120" y="1156" on="1"/>
        <pt x="120" y="1018" on="0"/>
        <pt x="307" y="836" on="0"/>
        <pt x="440" y="836" on="1"/>
        <pt x="573" y="836" on="0"/>
        <pt x="760" y="1018" on="0"/>
        <pt x="760" y="1156" on="1"/>
        <pt x="760" y="1294" on="0"/>
        <pt x="573" y="1476" on="0"/>
        <pt x="440" y="1476" on="1"/>
        <pt x="307" y="1476" on="0"/>
        <pt x="120" y="1294" on="0"/>
      </contour>
      <contour>
        <pt x="270" y="1156" on="1"/>
        <pt x="270" y="1234" on="0"/>
        <pt x="366" y="1336" on="0"/>
        <pt x="440" y="1336" on="1"/>
        <pt x="514" y="1336" on="0"/>
        <pt x="610" y="1234" on="0"/>
        <pt x="610" y="1156" on="1"/>
        <pt x="610" y="1078" on="0"/>
        <pt x="514" y="976" on="0"/>
        <pt x="440" y="976" on="1"/>
        <pt x="366" y="976" on="0"/>
        <pt x="270" y="1078" on="0"/>
      </contour>
    </TTGlyph>
    <TTGlyph name="dieresis" xMin="186" yMin="1146" xMax="838" yMax="1368">
      <contour>
        <pt x="186" y="1257" on="1"/>
        <pt x="186" y="1210" on="0"/>
        <pt x="244" y="1146" on="0"/>
        <pt x="296" y="1146" on="1"/>
        <pt x="348" y="1146" on="0"/>
        <pt x="406" y="1210" on="0"/>
        <pt x="406" y="1257" on="1"/>
        <pt x="406" y="1304" on="0"/>
        <pt x="348" y="1368" on="0"/>
        <pt x="296" y="1368" on="1"/>
        <pt x="244" y="1368" on="0"/>
        <pt x="186" y="1304" on="0"/>
      </contour>
      <contour>
        <pt x="618" y="1257" on="1"/>
        <pt x="618" y="1210" on="0"/>
        <pt x="676" y="1146" on="0"/>
        <pt x="728" y="1146" on="1"/>
        <pt x="780" y="1146" on="0"/>
        <pt x="838" y="1210" on="0"/>
        <pt x="838" y="1257" on="1"/>
        <pt x="838" y="1304" on="0"/>
        <pt x="780" y="1368" on="0"/>
        <pt x="728" y="1368" on="1"/>
        <pt x="676" y="1368" on="0"/>
        <pt x="618" y="1304" on="0"/>
      </contour>
    </TTGlyph>
    <TTGlyph name="divide" xMin="90" yMin="172" xMax="1080" yMax="1176">
      <contour>
        <pt x="90" y="592" on="1"/>
        <pt x="1080" y="592" on="1"/>
        <pt x="1080" y="756" on="1"/>
        <pt x="90" y="756" on="1"/>
      </contour>
      <contour>
        <pt x="461" y="291" on="1"/>
        <pt x="461" y="242" on="0"/>
        <pt x="525" y="172" on="0"/>
        <pt x="585" y="172" on="1"/>
        <pt x="645" y="172" on="0"/>
        <pt x="709" y="242" on="0"/>
        <pt x="709" y="291" on="1"/>
        <pt x="709" y="340" on="0"/>
        <pt x="645" y="410" on="0"/>
        <pt x="585" y="410" on="1"/>
        <pt x="525" y="410" on="0"/>
        <pt x="461" y="340" on="0"/>
      </contour>
      <contour>
        <pt x="461" y="1057" on="1"/>
        <pt x="461" y="1008" on="0"/>
        <pt x="525" y="938" on="0"/>
        <pt x="585" y="938" on="1"/>
        <pt x="645" y="938" on="0"/>
        <pt x="709" y="1008" on="0"/>
        <pt x="709" y="1057" on="1"/>
        <pt x="709" y="1106" on="0"/>
        <pt x="645" y="1176" on="0"/>
        <pt x="585" y="1176" on="1"/>
        <pt x="525" y="1176" on="0"/>
        <pt x="461" y="1106" on="0"/>
      </contour>
    </TTGlyph>
    <TTGlyph name="divisionslash" xMin="-50" yMin="-125" xMax="734" yMax="1456">
      <contour>
        <pt x="-50" y="-125" on="1"/>
        <pt x="126" y="-125" on="1"/>
        <pt x="734" y="1456" on="1"/>
        <pt x="558" y="1456" on="1"/>
      </contour>
    </TTGlyph>
    <TTGlyph name="dollar" xMin="90" yMin="-150" xMax="1098" yMax="1606">
      <contour>
        <pt x="90" y="411" on="1"/>
        <pt x="90" y="221" on="0"/>
        <pt x="368" y="0" on="0"/>
        <pt x="599" y="0" on="1"/>
        <pt x="829" y="0" on="0"/>
        <pt x="1098" y="221" on="0"/>
        <pt x="1098" y="394" on="1"/>
        <pt x="1098" y="567" on="0"/>
        <pt x="894" y="757" on="0"/>
        <pt x="670" y="820" on="1"/>
        <pt x="445" y="884" on="0"/>
        <pt x="301" y="989" on="0"/>
        <pt x="301" y="1076" on="1"/>
        <pt x="301" y="1181" on="0"/>
        <pt x="441" y="1298" on="0"/>
        <pt x="589" y="1298" on="1"/>
        <pt x="737" y="1298" on="0"/>
        <pt x="887" y="1162" on="0"/>
        <pt x="887" y="1051" on="1"/>
        <pt x="887" y="1039" on="1"/>
        <pt x="1071" y="1039" on="1"/>
        <pt x="1071" y="1051" on="1"/>
        <pt x="1071" y="1220" on="0"/>
        <pt x="810" y="1456" on="0"/>
        <pt x="589" y="1456" on="1"/>
        <pt x="368" y="1456" on="0"/>
        <pt x="119" y="1239" on="0"/>
        <pt x="119" y="1076" on="1"/>
        <pt x="119" y="912" on="0"/>
        <pt x="309" y="734" on="0"/>
        <pt x="537" y="668" on="1"/>
        <pt x="766" y="603" on="0"/>
        <pt x="916" y="490" on="0"/>
        <pt x="916" y="394" on="1"/>
        <pt x="916" y="288" on="0"/>
        <pt x="752" y="158" on="0"/>
        <pt x="599" y="158" on="1"/>
        <pt x="445" y="158" on="0"/>
        <pt x="274" y="284" on="0"/>
        <pt x="274" y="411" on="1"/>
        <pt x="274" y="423" on="1"/>
        <pt x="90" y="423" on="1"/>
      </contour>
      <contour>
        <pt x="524" y="-150" on="1"/>
        <pt x="674" y="-150" on="1"/>
        <pt x="674" y="90" on="1"/>
        <pt x="664" y="100" on="1"/>
        <pt x="664" y="728" on="1"/>
        <pt x="524" y="728" on="1"/>
      </contour>
      <contour>
        <pt x="534" y="728" on="1"/>
        <pt x="674" y="728" on="1"/>
        <pt x="674" y="1606" on="1"/>
        <pt x="524" y="1606" on="1"/>
        <pt x="524" y="1366" on="1"/>
        <pt x="534" y="1356" on="1"/>
      </contour>
    </TTGlyph>
    <TTGlyph name="dotlessi" xMin="157" yMin="0" xMax="343" yMax="1052">
      <contour>
        <pt x="157" y="0" on="1"/>
        <pt x="343" y="0" on="1"/>
        <pt x="343" y="1052" on="1"/>
        <pt x="157" y="1052" on="1"/>
      </contour>
    </TTGlyph>
    <TTGlyph name="e" xMin="85" yMin="-30" xMax="1008" yMax="1082">
      <contour>
        <pt x="85" y="510" on="1"/>
        <pt x="85" y="272" on="0"/>
        <pt x="346" y="-30" on="0"/>
        <pt x="591" y="-30" on="1"/>
        <pt x="741" y="-30" on="0"/>
        <pt x="950" y="100" on="0"/>
        <pt x="1000" y="175" on="1"/>
        <pt x="880" y="270" on="1"/>
        <pt x="835" y="210" on="0"/>
        <pt x="691" y="122" on="0"/>
        <pt x="591" y="122" on="1"/>
        <pt x="429" y="122" on="0"/>
        <pt x="275" y="347" on="0"/>
        <pt x="275" y="510" on="1"/>
        <pt x="275" y="542" on="1"/>
        <pt x="275" y="705" on="0"/>
        <pt x="421" y="930" on="0"/>
        <pt x="561" y="930" on="1"/>
        <pt x="701" y="930" on="0"/>
        <pt x="818" y="760" on="0"/>
        <pt x="818" y="632" on="1"/>
        <pt x="818" y="632" on="1"/>
        <pt x="199" y="632" on="1"/>
        <pt x="199" y="484" on="1"/>
        <pt x="1008" y="484" on="1"/>
        <pt x="1008" y="560" on="1"/>
        <pt x="1008" y="800" on="0"/>
        <pt x="776" y="1082" on="0"/>
        <pt x="561" y="1082" on="1"/>
        <pt x="346" y="1082" on="0"/>
        <pt x="85" y="780" on="0"/>
        <pt x="85" y="542" on="1"/>
      </contour>
    </TTGlyph>
    <TTGlyph name="eacute" xMin="85" yMin="-30" xMax="1008" yMax="1457">
      <component glyphName="e" x="0" y="0" flags="0x204"/>
      <component glyphName="acute" x="46" y="1" flags="0x4"/>
    </TTGlyph>
    <TTGlyph name="ecircumflex" xMin="85" yMin="-30" xMax="1008" yMax="1457">
      <component glyphName="e" x="0" y="0" flags="0x204"/>
      <component glyphName="circumflex" x="46" y="1" flags="0x4"/>
    </TTGlyph>
    <TTGlyph name="edieresis" xMin="85" yMin="-30" xMax="1008" yMax="1369">
      <component glyphName="e" x="0" y="0" flags="0x204"/>
      <component glyphName="dieresis" x="46" y="1" flags="0x4"/>
    </TTGlyph>
    <TTGlyph name="egrave" xMin="85" yMin="-30" xMax="1008" yMax="1457">
      <component glyphName="e" x="0" y="0" flags="0x204"/>
      <component glyphName="grave" x="46" y="1" flags="0x4"/>
    </TTGlyph>
    <TTGlyph name="eight" xMin="104" yMin="-30" xMax="1052" yMax="1486">
      <contour>
        <pt x="104" y="386" on="1"/>
        <pt x="104" y="188" on="0"/>
        <pt x="378" y="-30" on="0"/>
        <pt x="578" y="-30" on="1"/>
        <pt x="778" y="-30" on="0"/>
        <pt x="1052" y="188" on="0"/>
        <pt x="1052" y="386" on="1"/>
        <pt x="1052" y="516" on="0"/>
        <pt x="910" y="698" on="0"/>
        <pt x="798" y="743" on="1"/>
        <pt x="798" y="747" on="1"/>
        <pt x="884" y="790" on="0"/>
        <pt x="1006" y="967" on="0"/>
        <pt x="1006" y="1087" on="1"/>
        <pt x="1006" y="1267" on="0"/>
        <pt x="758" y="1486" on="0"/>
        <pt x="578" y="1486" on="1"/>
        <pt x="398" y="1486" on="0"/>
        <pt x="150" y="1267" on="0"/>
        <pt x="150" y="1087" on="1"/>
        <pt x="150" y="967" on="0"/>
        <pt x="272" y="790" on="0"/>
        <pt x="358" y="747" on="1"/>
        <pt x="358" y="743" on="1"/>
        <pt x="246" y="698" on="0"/>
        <pt x="104" y="516" on="0"/>
      </contour>
      <contour>
        <pt x="292" y="396" on="1"/>
        <pt x="292" y="516" on="0"/>
        <pt x="448" y="666" on="0"/>
        <pt x="578" y="666" on="1"/>
        <pt x="708" y="666" on="0"/>
        <pt x="864" y="516" on="0"/>
        <pt x="864" y="396" on="1"/>
        <pt x="864" y="276" on="0"/>
        <pt x="708" y="128" on="0"/>
        <pt x="578" y="128" on="1"/>
        <pt x="448" y="128" on="0"/>
        <pt x="292" y="276" on="0"/>
      </contour>
      <contour>
        <pt x="334" y="1077" on="1"/>
        <pt x="334" y="1187" on="0"/>
        <pt x="468" y="1328" on="0"/>
        <pt x="578" y="1328" on="1"/>
        <pt x="688" y="1328" on="0"/>
        <pt x="822" y="1187" on="0"/>
        <pt x="822" y="1077" on="1"/>
        <pt x="822" y="967" on="0"/>
        <pt x="688" y="824" on="0"/>
        <pt x="578" y="824" on="1"/>
        <pt x="468" y="824" on="0"/>
        <pt x="334" y="967" on="0"/>
      </contour>
    </TTGlyph>
    <TTGlyph name="eight.pnum" xMin="104" yMin="-30" xMax="1052" yMax="1486">
      <contour>
        <pt x="104" y="386" on="1"/>
        <pt x="104" y="188" on="0"/>
        <pt x="378" y="-30" on="0"/>
        <pt x="578" y="-30" on="1"/>
        <pt x="778" y="-30" on="0"/>
        <pt x="1052" y="188" on="0"/>
        <pt x="1052" y="386" on="1"/>
        <pt x="1052" y="516" on="0"/>
        <pt x="910" y="698" on="0"/>
        <pt x="798" y="743" on="1"/>
        <pt x="798" y="747" on="1"/>
        <pt x="884" y="790" on="0"/>
        <pt x="1006" y="967" on="0"/>
        <pt x="1006" y="1087" on="1"/>
        <pt x="1006" y="1267" on="0"/>
        <pt x="758" y="1486" on="0"/>
        <pt x="578" y="1486" on="1"/>
        <pt x="398" y="1486" on="0"/>
        <pt x="150" y="1267" on="0"/>
        <pt x="150" y="1087" on="1"/>
        <pt x="150" y="967" on="0"/>
        <pt x="272" y="790" on="0"/>
        <pt x="358" y="747" on="1"/>
        <pt x="358" y="743" on="1"/>
        <pt x="246" y="698" on="0"/>
        <pt x="104" y="516" on="0"/>
      </contour>
      <contour>
        <pt x="292" y="396" on="1"/>
        <pt x="292" y="516" on="0"/>
        <pt x="448" y="666" on="0"/>
        <pt x="578" y="666" on="1"/>
        <pt x="708" y="666" on="0"/>
        <pt x="864" y="516" on="0"/>
        <pt x="864" y="396" on="1"/>
        <pt x="864" y="276" on="0"/>
        <pt x="708" y="128" on="0"/>
        <pt x="578" y="128" on="1"/>
        <pt x="448" y="128" on="0"/>
        <pt x="292" y="276" on="0"/>
      </contour>
      <contour>
        <pt x="334" y="1077" on="1"/>
        <pt x="334" y="1187" on="0"/>
        <pt x="468" y="1328" on="0"/>
        <pt x="578" y="1328" on="1"/>
        <pt x="688" y="1328" on="0"/>
        <pt x="822" y="1187" on="0"/>
        <pt x="822" y="1077" on="1"/>
        <pt x="822" y="967" on="0"/>
        <pt x="688" y="824" on="0"/>
        <pt x="578" y="824" on="1"/>
        <pt x="468" y="824" on="0"/>
        <pt x="334" y="967" on="0"/>
      </contour>
    </TTGlyph>
    <TTGlyph name="ellipsis" xMin="160" yMin="-22" xMax="1580" yMax="228">
      <contour>
        <pt x="160" y="103" on="1"/>
        <pt x="160" y="51" on="0"/>
        <pt x="227" y="-22" on="0"/>
        <pt x="290" y="-22" on="1"/>
        <pt x="353" y="-22" on="0"/>
        <pt x="420" y="51" on="0"/>
        <pt x="420" y="103" on="1"/>
        <pt x="420" y="155" on="0"/>
        <pt x="353" y="228" on="0"/>
        <pt x="290" y="228" on="1"/>
        <pt x="227" y="228" on="0"/>
        <pt x="160" y="155" on="0"/>
      </contour>
      <contour>
        <pt x="740" y="103" on="1"/>
        <pt x="740" y="51" on="0"/>
        <pt x="807" y="-22" on="0"/>
        <pt x="870" y="-22" on="1"/>
        <pt x="933" y="-22" on="0"/>
        <pt x="1000" y="51" on="0"/>
        <pt x="1000" y="103" on="1"/>
        <pt x="1000" y="155" on="0"/>
        <pt x="933" y="228" on="0"/>
        <pt x="870" y="228" on="1"/>
        <pt x="807" y="228" on="0"/>
        <pt x="740" y="155" on="0"/>
      </contour>
      <contour>
        <pt x="1320" y="103" on="1"/>
        <pt x="1320" y="51" on="0"/>
        <pt x="1387" y="-22" on="0"/>
        <pt x="1450" y="-22" on="1"/>
        <pt x="1513" y="-22" on="0"/>
        <pt x="1580" y="51" on="0"/>
        <pt x="1580" y="103" on="1"/>
        <pt x="1580" y="155" on="0"/>
        <pt x="1513" y="228" on="0"/>
        <pt x="1450" y="228" on="1"/>
        <pt x="1387" y="228" on="0"/>
        <pt x="1320" y="155" on="0"/>
      </contour>
    </TTGlyph>
    <TTGlyph name="emdash" xMin="80" yMin="544" xMax="1520" yMax="716">
      <contour>
        <pt x="80" y="544" on="1"/>
        <pt x="1520" y="544" on="1"/>
        <pt x="1520" y="716" on="1"/>
        <pt x="80" y="716" on="1"/>
      </contour>
    </TTGlyph>
    <TTGlyph name="endash" xMin="124" yMin="544" xMax="1220" yMax="716">
      <contour>
        <pt x="124" y="544" on="1"/>
        <pt x="1220" y="544" on="1"/>
        <pt x="1220" y="716" on="1"/>
        <pt x="124" y="716" on="1"/>
      </contour>
    </TTGlyph>
    <TTGlyph name="equal" xMin="153" yMin="390" xMax="1017" yMax="958">
      <contour>
        <pt x="153" y="390" on="1"/>
        <pt x="1017" y="390" on="1"/>
        <pt x="1017" y="554" on="1"/>
        <pt x="153" y="554" on="1"/>
      </contour>
      <contour>
        <pt x="153" y="794" on="1"/>
        <pt x="1017" y="794" on="1"/>
        <pt x="1017" y="958" on="1"/>
        <pt x="153" y="958" on="1"/>
      </contour>
    </TTGlyph>
    <TTGlyph name="eth" xMin="80" yMin="-30" xMax="1050" yMax="1556">
      <contour>
        <pt x="80" y="474" on="1"/>
        <pt x="80" y="249" on="0"/>
        <pt x="346" y="-30" on="0"/>
        <pt x="546" y="-30" on="1"/>
        <pt x="746" y="-30" on="0"/>
        <pt x="1015" y="324" on="0"/>
        <pt x="1015" y="724" on="1"/>
        <pt x="1015" y="804" on="1"/>
        <pt x="1015" y="1204" on="0"/>
        <pt x="786" y="1556" on="0"/>
        <pt x="526" y="1556" on="1"/>
        <pt x="396" y="1556" on="0"/>
        <pt x="190" y="1450" on="0"/>
        <pt x="130" y="1370" on="1"/>
        <pt x="230" y="1250" on="1"/>
        <pt x="280" y="1310" on="0"/>
        <pt x="426" y="1398" on="0"/>
        <pt x="526" y="1398" on="1"/>
        <pt x="686" y="1398" on="0"/>
        <pt x="830" y="1154" on="0"/>
        <pt x="830" y="814" on="1"/>
        <pt x="830" y="714" on="1"/>
        <pt x="830" y="374" on="0"/>
        <pt x="676" y="128" on="0"/>
        <pt x="546" y="128" on="1"/>
        <pt x="416" y="128" on="0"/>
        <pt x="270" y="309" on="0"/>
        <pt x="270" y="474" on="1"/>
        <pt x="270" y="639" on="0"/>
        <pt x="416" y="818" on="0"/>
        <pt x="546" y="818" on="1"/>
        <pt x="660" y="818" on="0"/>
        <pt x="836" y="639" on="0"/>
        <pt x="836" y="474" on="1"/>
        <pt x="906" y="474" on="1"/>
        <pt x="906" y="699" on="0"/>
        <pt x="688" y="976" on="0"/>
        <pt x="506" y="976" on="1"/>
        <pt x="316" y="976" on="0"/>
        <pt x="80" y="699" on="0"/>
      </contour>
      <contour>
        <pt x="440" y="1190" on="1"/>
        <pt x="520" y="1070" on="1"/>
        <pt x="1050" y="1430" on="1"/>
        <pt x="970" y="1550" on="1"/>
      </contour>
    </TTGlyph>
    <TTGlyph name="exclam" xMin="186" yMin="-22" xMax="434" yMax="1456">
      <contour>
        <pt x="186" y="97" on="1"/>
        <pt x="186" y="48" on="0"/>
        <pt x="250" y="-22" on="0"/>
        <pt x="310" y="-22" on="1"/>
        <pt x="370" y="-22" on="0"/>
        <pt x="434" y="48" on="0"/>
        <pt x="434" y="97" on="1"/>
        <pt x="434" y="146" on="0"/>
        <pt x="370" y="216" on="0"/>
        <pt x="310" y="216" on="1"/>
        <pt x="250" y="216" on="0"/>
        <pt x="186" y="146" on="0"/>
      </contour>
      <contour>
        <pt x="228" y="410" on="1"/>
        <pt x="392" y="410" on="1"/>
        <pt x="407" y="1456" on="1"/>
        <pt x="213" y="1456" on="1"/>
      </contour>
    </TTGlyph>
    <TTGlyph name="exclamdown" xMin="186" yMin="-280" xMax="434" yMax="1198">
      <contour>
        <pt x="213" y="-280" on="1"/>
        <pt x="407" y="-280" on="1"/>
        <pt x="392" y="766" on="1"/>
        <pt x="228" y="766" on="1"/>
      </contour>
      <contour>
        <pt x="186" y="1079" on="1"/>
        <pt x="186" y="1030" on="0"/>
        <pt x="250" y="960" on="0"/>
        <pt x="310" y="960" on="1"/>
        <pt x="370" y="960" on="0"/>
        <pt x="434" y="1030" on="0"/>
        <pt x="434" y="1079" on="1"/>
        <pt x="434" y="1128" on="0"/>
        <pt x="370" y="1198" on="0"/>
        <pt x="310" y="1198" on="1"/>
        <pt x="250" y="1198" on="0"/>
        <pt x="186" y="1128" on="0"/>
      </contour>
    </TTGlyph>
    <TTGlyph name="f" xMin="25" yMin="0" xMax="678" yMax="1556">
      <contour>
        <pt x="196" y="0" on="1"/>
        <pt x="382" y="0" on="1"/>
        <pt x="382" y="970" on="1"/>
        <pt x="382" y="992" on="1"/>
        <pt x="382" y="1200" on="1"/>
        <pt x="382" y="1300" on="0"/>
        <pt x="480" y="1400" on="0"/>
        <pt x="570" y="1400" on="1"/>
        <pt x="596" y="1400" on="0"/>
        <pt x="646" y="1394" on="0"/>
        <pt x="668" y="1390" on="1"/>
        <pt x="678" y="1540" on="1"/>
        <pt x="648" y="1548" on="0"/>
        <pt x="582" y="1556" on="0"/>
        <pt x="550" y="1556" on="1"/>
        <pt x="386" y="1556" on="0"/>
        <pt x="196" y="1374" on="0"/>
        <pt x="196" y="1200" on="1"/>
      </contour>
      <contour>
        <pt x="25" y="910" on="1"/>
        <pt x="610" y="910" on="1"/>
        <pt x="610" y="1052" on="1"/>
        <pt x="312" y="1052" on="1"/>
        <pt x="266" y="1052" on="1"/>
        <pt x="25" y="1052" on="1"/>
      </contour>
    </TTGlyph>
    <TTGlyph name="f_f_i" xMin="25" yMin="0" xMax="1563" yMax="1556">
      <contour>
        <pt x="196" y="0" on="1"/>
        <pt x="382" y="0" on="1"/>
        <pt x="382" y="970" on="1"/>
        <pt x="382" y="992" on="1"/>
        <pt x="382" y="1180" on="1"/>
        <pt x="382" y="1290" on="0"/>
        <pt x="490" y="1400" on="0"/>
        <pt x="600" y="1400" on="1"/>
        <pt x="654" y="1400" on="0"/>
        <pt x="760" y="1376" on="0"/>
        <pt x="806" y="1358" on="1"/>
        <pt x="836" y="1513" on="1"/>
        <pt x="779" y="1533" on="0"/>
        <pt x="659" y="1556" on="0"/>
        <pt x="600" y="1556" on="1"/>
        <pt x="410" y="1556" on="0"/>
        <pt x="196" y="1364" on="0"/>
        <pt x="196" y="1180" on="1"/>
      </contour>
      <contour>
        <pt x="25" y="910" on="1"/>
        <pt x="660" y="910" on="1"/>
        <pt x="660" y="1052" on="1"/>
        <pt x="312" y="1052" on="1"/>
        <pt x="266" y="1052" on="1"/>
        <pt x="25" y="1052" on="1"/>
      </contour>
      <contour>
        <pt x="786" y="0" on="1"/>
        <pt x="972" y="0" on="1"/>
        <pt x="972" y="970" on="1"/>
        <pt x="972" y="992" on="1"/>
        <pt x="972" y="1180" on="1"/>
        <pt x="972" y="1290" on="0"/>
        <pt x="1080" y="1400" on="0"/>
        <pt x="1190" y="1400" on="1"/>
        <pt x="1256" y="1400" on="0"/>
        <pt x="1384" y="1366" on="0"/>
        <pt x="1438" y="1344" on="1"/>
        <pt x="1470" y="1496" on="1"/>
        <pt x="1404" y="1524" on="0"/>
        <pt x="1260" y="1556" on="0"/>
        <pt x="1190" y="1556" on="1"/>
        <pt x="1000" y="1556" on="0"/>
        <pt x="786" y="1364" on="0"/>
        <pt x="786" y="1180" on="1"/>
      </contour>
      <contour>
        <pt x="625" y="910" on="1"/>
        <pt x="1260" y="910" on="1"/>
        <pt x="1260" y="1052" on="1"/>
        <pt x="912" y="1052" on="1"/>
        <pt x="866" y="1052" on="1"/>
        <pt x="625" y="1052" on="1"/>
      </contour>
      <contour>
        <pt x="1377" y="0" on="1"/>
        <pt x="1563" y="0" on="1"/>
        <pt x="1563" y="1052" on="1"/>
        <pt x="1377" y="1052" on="1"/>
      </contour>
    </TTGlyph>
    <TTGlyph name="f_f_l" xMin="25" yMin="0" xMax="1592" yMax="1556">
      <contour>
        <pt x="196" y="0" on="1"/>
        <pt x="382" y="0" on="1"/>
        <pt x="382" y="970" on="1"/>
        <pt x="382" y="992" on="1"/>
        <pt x="382" y="1180" on="1"/>
        <pt x="382" y="1290" on="0"/>
        <pt x="490" y="1400" on="0"/>
        <pt x="600" y="1400" on="1"/>
        <pt x="654" y="1400" on="0"/>
        <pt x="760" y="1376" on="0"/>
        <pt x="806" y="1358" on="1"/>
        <pt x="836" y="1513" on="1"/>
        <pt x="779" y="1533" on="0"/>
        <pt x="659" y="1556" on="0"/>
        <pt x="600" y="1556" on="1"/>
        <pt x="410" y="1556" on="0"/>
        <pt x="196" y="1364" on="0"/>
        <pt x="196" y="1180" on="1"/>
      </contour>
      <contour>
        <pt x="25" y="910" on="1"/>
        <pt x="660" y="910" on="1"/>
        <pt x="660" y="1052" on="1"/>
        <pt x="312" y="1052" on="1"/>
        <pt x="266" y="1052" on="1"/>
        <pt x="25" y="1052" on="1"/>
      </contour>
      <contour>
        <pt x="786" y="0" on="1"/>
        <pt x="972" y="0" on="1"/>
        <pt x="972" y="970" on="1"/>
        <pt x="972" y="992" on="1"/>
        <pt x="972" y="1180" on="1"/>
        <pt x="972" y="1290" on="0"/>
        <pt x="1080" y="1400" on="0"/>
        <pt x="1190" y="1400" on="1"/>
        <pt x="1256" y="1400" on="0"/>
        <pt x="1384" y="1366" on="0"/>
        <pt x="1438" y="1344" on="1"/>
        <pt x="1470" y="1496" on="1"/>
        <pt x="1404" y="1524" on="0"/>
        <pt x="1260" y="1556" on="0"/>
        <pt x="1190" y="1556" on="1"/>
        <pt x="1000" y="1556" on="0"/>
        <pt x="786" y="1364" on="0"/>
        <pt x="786" y="1180" on="1"/>
      </contour>
      <contour>
        <pt x="625" y="910" on="1"/>
        <pt x="1260" y="910" on="1"/>
        <pt x="1260" y="1052" on="1"/>
        <pt x="912" y="1052" on="1"/>
        <pt x="866" y="1052" on="1"/>
        <pt x="625" y="1052" on="1"/>
      </contour>
      <contour>
        <pt x="1406" y="0" on="1"/>
        <pt x="1592" y="0" on="1"/>
        <pt x="1592" y="1496" on="1"/>
        <pt x="1406" y="1496" on="1"/>
      </contour>
    </TTGlyph>
    <TTGlyph name="fi" xMin="25" yMin="0" xMax="973" yMax="1556">
      <contour>
        <pt x="196" y="0" on="1"/>
        <pt x="382" y="0" on="1"/>
        <pt x="382" y="970" on="1"/>
        <pt x="382" y="992" on="1"/>
        <pt x="382" y="1180" on="1"/>
        <pt x="382" y="1290" on="0"/>
        <pt x="490" y="1400" on="0"/>
        <pt x="600" y="1400" on="1"/>
        <pt x="666" y="1400" on="0"/>
        <pt x="794" y="1366" on="0"/>
        <pt x="848" y="1344" on="1"/>
        <pt x="880" y="1496" on="1"/>
        <pt x="814" y="1524" on="0"/>
        <pt x="670" y="1556" on="0"/>
        <pt x="600" y="1556" on="1"/>
        <pt x="410" y="1556" on="0"/>
        <pt x="196" y="1364" on="0"/>
        <pt x="196" y="1180" on="1"/>
      </contour>
      <contour>
        <pt x="25" y="910" on="1"/>
        <pt x="660" y="910" on="1"/>
        <pt x="660" y="1052" on="1"/>
        <pt x="312" y="1052" on="1"/>
        <pt x="266" y="1052" on="1"/>
        <pt x="25" y="1052" on="1"/>
      </contour>
      <contour>
        <pt x="787" y="0" on="1"/>
        <pt x="973" y="0" on="1"/>
        <pt x="973" y="1052" on="1"/>
        <pt x="787" y="1052" on="1"/>
      </contour>
    </TTGlyph>
    <TTGlyph name="five" xMin="100" yMin="-30" xMax="1056" yMax="1456">
      <contour>
        <pt x="100" y="365" on="1"/>
        <pt x="100" y="195" on="0"/>
        <pt x="360" y="-30" on="0"/>
        <pt x="570" y="-30" on="1"/>
        <pt x="780" y="-30" on="0"/>
        <pt x="1056" y="235" on="0"/>
        <pt x="1056" y="465" on="1"/>
        <pt x="1056" y="695" on="0"/>
        <pt x="790" y="952" on="0"/>
        <pt x="600" y="952" on="1"/>
        <pt x="520" y="952" on="0"/>
        <pt x="386" y="906" on="0"/>
        <pt x="336" y="876" on="1"/>
        <pt x="380" y="1286" on="1"/>
        <pt x="980" y="1286" on="1"/>
        <pt x="980" y="1456" on="1"/>
        <pt x="224" y="1456" on="1"/>
        <pt x="150" y="730" on="1"/>
        <pt x="282" y="668" on="1"/>
        <pt x="342" y="728" on="0"/>
        <pt x="480" y="793" on="0"/>
        <pt x="570" y="793" on="1"/>
        <pt x="700" y="793" on="0"/>
        <pt x="866" y="625" on="0"/>
        <pt x="866" y="465" on="1"/>
        <pt x="866" y="305" on="0"/>
        <pt x="700" y="128" on="0"/>
        <pt x="570" y="128" on="1"/>
        <pt x="440" y="128" on="0"/>
        <pt x="284" y="255" on="0"/>
        <pt x="284" y="365" on="1"/>
        <pt x="284" y="375" on="1"/>
        <pt x="100" y="375" on="1"/>
      </contour>
    </TTGlyph>
    <TTGlyph name="five.pnum" xMin="50" yMin="-30" xMax="1006" yMax="1456">
      <contour>
        <pt x="50" y="365" on="1"/>
        <pt x="50" y="195" on="0"/>
        <pt x="310" y="-30" on="0"/>
        <pt x="520" y="-30" on="1"/>
        <pt x="730" y="-30" on="0"/>
        <pt x="1006" y="235" on="0"/>
        <pt x="1006" y="465" on="1"/>
        <pt x="1006" y="695" on="0"/>
        <pt x="740" y="952" on="0"/>
        <pt x="550" y="952" on="1"/>
        <pt x="470" y="952" on="0"/>
        <pt x="336" y="906" on="0"/>
        <pt x="286" y="876" on="1"/>
        <pt x="330" y="1286" on="1"/>
        <pt x="930" y="1286" on="1"/>
        <pt x="930" y="1456" on="1"/>
        <pt x="174" y="1456" on="1"/>
        <pt x="100" y="730" on="1"/>
        <pt x="232" y="668" on="1"/>
        <pt x="292" y="728" on="0"/>
        <pt x="430" y="793" on="0"/>
        <pt x="520" y="793" on="1"/>
        <pt x="650" y="793" on="0"/>
        <pt x="816" y="625" on="0"/>
        <pt x="816" y="465" on="1"/>
        <pt x="816" y="305" on="0"/>
        <pt x="650" y="128" on="0"/>
        <pt x="520" y="128" on="1"/>
        <pt x="390" y="128" on="0"/>
        <pt x="234" y="255" on="0"/>
        <pt x="234" y="365" on="1"/>
        <pt x="234" y="375" on="1"/>
        <pt x="50" y="375" on="1"/>
      </contour>
    </TTGlyph>
    <TTGlyph name="fl" xMin="25" yMin="0" xMax="1002" yMax="1556">
      <contour>
        <pt x="196" y="0" on="1"/>
        <pt x="382" y="0" on="1"/>
        <pt x="382" y="970" on="1"/>
        <pt x="382" y="992" on="1"/>
        <pt x="382" y="1180" on="1"/>
        <pt x="382" y="1290" on="0"/>
        <pt x="490" y="1400" on="0"/>
        <pt x="600" y="1400" on="1"/>
        <pt x="666" y="1400" on="0"/>
        <pt x="794" y="1366" on="0"/>
        <pt x="848" y="1344" on="1"/>
        <pt x="880" y="1496" on="1"/>
        <pt x="814" y="1524" on="0"/>
        <pt x="670" y="1556" on="0"/>
        <pt x="600" y="1556" on="1"/>
        <pt x="410" y="1556" on="0"/>
        <pt x="196" y="1364" on="0"/>
        <pt x="196" y="1180" on="1"/>
      </contour>
      <contour>
        <pt x="25" y="910" on="1"/>
        <pt x="660" y="910" on="1"/>
        <pt x="660" y="1052" on="1"/>
        <pt x="312" y="1052" on="1"/>
        <pt x="266" y="1052" on="1"/>
        <pt x="25" y="1052" on="1"/>
      </contour>
      <contour>
        <pt x="816" y="0" on="1"/>
        <pt x="1002" y="0" on="1"/>
        <pt x="1002" y="1496" on="1"/>
        <pt x="816" y="1496" on="1"/>
      </contour>
    </TTGlyph>
    <TTGlyph name="four" xMin="50" yMin="0" xMax="1108" yMax="1456">
      <contour>
        <pt x="724" y="0" on="1"/>
        <pt x="904" y="0" on="1"/>
        <pt x="904" y="1456" on="1"/>
        <pt x="732" y="1456" on="1"/>
        <pt x="50" y="468" on="1"/>
        <pt x="50" y="342" on="1"/>
        <pt x="1108" y="342" on="1"/>
        <pt x="1108" y="500" on="1"/>
        <pt x="852" y="500" on="1"/>
        <pt x="775" y="500" on="1"/>
        <pt x="269" y="500" on="1"/>
        <pt x="712" y="1149" on="1"/>
        <pt x="724" y="1149" on="1"/>
        <pt x="724" y="450" on="1"/>
        <pt x="724" y="398" on="1"/>
      </contour>
    </TTGlyph>
    <TTGlyph name="four.inferior" xMin="54" yMin="-367" xMax="700" yMax="422">
      <contour>
        <pt x="700" y="-67" on="1"/>
        <pt x="212" y="-67" on="1"/>
        <pt x="419" y="193" on="1"/>
        <pt x="556" y="422" on="1"/>
        <pt x="432" y="422" on="1"/>
        <pt x="54" y="-95" on="1"/>
        <pt x="61" y="-197" on="1"/>
        <pt x="700" y="-197" on="1"/>
      </contour>
      <contour>
        <pt x="592" y="422" on="1"/>
        <pt x="435" y="422" on="1"/>
        <pt x="435" y="-367" on="1"/>
        <pt x="592" y="-367" on="1"/>
      </contour>
    </TTGlyph>
    <TTGlyph name="four.pnum" xMin="0" yMin="0" xMax="1058" yMax="1456">
      <contour>
        <pt x="674" y="0" on="1"/>
        <pt x="854" y="0" on="1"/>
        <pt x="854" y="1456" on="1"/>
        <pt x="682" y="1456" on="1"/>
        <pt x="0" y="468" on="1"/>
        <pt x="0" y="342" on="1"/>
        <pt x="1058" y="342" on="1"/>
        <pt x="1058" y="500" on="1"/>
        <pt x="802" y="500" on="1"/>
        <pt x="725" y="500" on="1"/>
        <pt x="219" y="500" on="1"/>
        <pt x="662" y="1149" on="1"/>
        <pt x="674" y="1149" on="1"/>
        <pt x="674" y="450" on="1"/>
        <pt x="674" y="398" on="1"/>
      </contour>
    </TTGlyph>
    <TTGlyph name="four.superior" xMin="54" yMin="667" xMax="700" yMax="1456">
      <contour>
        <pt x="700" y="967" on="1"/>
        <pt x="212" y="967" on="1"/>
        <pt x="419" y="1227" on="1"/>
        <pt x="556" y="1456" on="1"/>
        <pt x="432" y="1456" on="1"/>
        <pt x="54" y="939" on="1"/>
        <pt x="61" y="837" on="1"/>
        <pt x="700" y="837" on="1"/>
      </contour>
      <contour>
        <pt x="592" y="1456" on="1"/>
        <pt x="435" y="1456" on="1"/>
        <pt x="435" y="667" on="1"/>
        <pt x="592" y="667" on="1"/>
      </contour>
    </TTGlyph>
    <TTGlyph name="fraction" xMin="30" yMin="-30" xMax="1055" yMax="1486">
      <contour>
        <pt x="30" y="58" on="1"/>
        <pt x="164" y="-30" on="1"/>
        <pt x="1055" y="1398" on="1"/>
        <pt x="921" y="1486" on="1"/>
      </contour>
    </TTGlyph>
    <TTGlyph name="g" xMin="85" yMin="-436" xMax="1022" yMax="1072">
      <contour>
        <pt x="124" y="-284" on="1"/>
        <pt x="200" y="-350" on="0"/>
        <pt x="420" y="-436" on="0"/>
        <pt x="550" y="-436" on="1"/>
        <pt x="760" y="-436" on="0"/>
        <pt x="1022" y="-200" on="0"/>
        <pt x="1022" y="20" on="1"/>
        <pt x="1022" y="1052" on="1"/>
        <pt x="854" y="1052" on="1"/>
        <pt x="846" y="915" on="1"/>
        <pt x="840" y="915" on="1"/>
        <pt x="800" y="980" on="0"/>
        <pt x="635" y="1072" on="0"/>
        <pt x="525" y="1072" on="1"/>
        <pt x="325" y="1072" on="0"/>
        <pt x="85" y="772" on="0"/>
        <pt x="85" y="542" on="1"/>
        <pt x="85" y="510" on="1"/>
        <pt x="85" y="280" on="0"/>
        <pt x="325" y="-20" on="0"/>
        <pt x="525" y="-20" on="1"/>
        <pt x="635" y="-20" on="0"/>
        <pt x="790" y="59" on="0"/>
        <pt x="836" y="124" on="1"/>
        <pt x="836" y="20" on="1"/>
        <pt x="836" y="-120" on="0"/>
        <pt x="680" y="-274" on="0"/>
        <pt x="545" y="-274" on="1"/>
        <pt x="445" y="-274" on="0"/>
        <pt x="285" y="-195" on="0"/>
        <pt x="241" y="-144" on="1"/>
      </contour>
      <contour>
        <pt x="275" y="510" on="1"/>
        <pt x="275" y="542" on="1"/>
        <pt x="275" y="702" on="0"/>
        <pt x="415" y="920" on="0"/>
        <pt x="565" y="920" on="1"/>
        <pt x="665" y="920" on="0"/>
        <pt x="805" y="810" on="0"/>
        <pt x="836" y="740" on="1"/>
        <pt x="836" y="312" on="1"/>
        <pt x="805" y="242" on="0"/>
        <pt x="665" y="132" on="0"/>
        <pt x="565" y="132" on="1"/>
        <pt x="415" y="132" on="0"/>
        <pt x="275" y="350" on="0"/>
      </contour>
    </TTGlyph>
    <TTGlyph name="germandbls" xMin="140" yMin="-20" xMax="1130" yMax="1556">
      <contour>
        <pt x="140" y="0" on="1"/>
        <pt x="326" y="0" on="1"/>
        <pt x="326" y="1110" on="1"/>
        <pt x="326" y="1260" on="0"/>
        <pt x="440" y="1404" on="0"/>
        <pt x="540" y="1404" on="1"/>
        <pt x="640" y="1404" on="0"/>
        <pt x="734" y="1290" on="0"/>
        <pt x="734" y="1210" on="1"/>
        <pt x="734" y="1154" on="0"/>
        <pt x="698" y="1067" on="0"/>
        <pt x="674" y="1029" on="1"/>
        <pt x="646" y="984" on="0"/>
        <pt x="596" y="888" on="0"/>
        <pt x="596" y="822" on="1"/>
        <pt x="596" y="730" on="0"/>
        <pt x="689" y="603" on="0"/>
        <pt x="748" y="553" on="1"/>
        <pt x="818" y="494" on="0"/>
        <pt x="945" y="385" on="0"/>
        <pt x="945" y="308" on="1"/>
        <pt x="945" y="231" on="0"/>
        <pt x="840" y="132" on="0"/>
        <pt x="740" y="132" on="1"/>
        <pt x="666" y="132" on="0"/>
        <pt x="540" y="182" on="0"/>
        <pt x="506" y="206" on="1"/>
        <pt x="446" y="60" on="1"/>
        <pt x="486" y="30" on="0"/>
        <pt x="650" y="-20" on="0"/>
        <pt x="750" y="-20" on="1"/>
        <pt x="912" y="-20" on="0"/>
        <pt x="1130" y="150" on="0"/>
        <pt x="1130" y="316" on="1"/>
        <pt x="1130" y="436" on="0"/>
        <pt x="972" y="593" on="0"/>
        <pt x="895" y="657" on="1"/>
        <pt x="850" y="695" on="0"/>
        <pt x="780" y="769" on="0"/>
        <pt x="780" y="820" on="1"/>
        <pt x="780" y="867" on="0"/>
        <pt x="815" y="939" on="0"/>
        <pt x="837" y="975" on="1"/>
        <pt x="863" y="1019" on="0"/>
        <pt x="909" y="1130" on="0"/>
        <pt x="909" y="1220" on="1"/>
        <pt x="909" y="1360" on="0"/>
        <pt x="710" y="1556" on="0"/>
        <pt x="540" y="1556" on="1"/>
        <pt x="370" y="1556" on="0"/>
        <pt x="140" y="1330" on="0"/>
        <pt x="140" y="1110" on="1"/>
      </contour>
    </TTGlyph>
    <TTGlyph name="grave" xMin="195" yMin="1156" xMax="639" yMax="1456">
      <contour>
        <pt x="464" y="1156" on="1"/>
        <pt x="639" y="1156" on="1"/>
        <pt x="420" y="1456" on="1"/>
        <pt x="195" y="1456" on="1"/>
      </contour>
    </TTGlyph>
    <TTGlyph name="greater" xMin="180" yMin="223" xMax="998" yMax="1125">
      <contour>
        <pt x="180" y="223" on="1"/>
        <pt x="998" y="602" on="1"/>
        <pt x="998" y="746" on="1"/>
        <pt x="180" y="1125" on="1"/>
        <pt x="180" y="937" on="1"/>
        <pt x="784" y="674" on="1"/>
        <pt x="180" y="411" on="1"/>
      </contour>
    </TTGlyph>
    <TTGlyph name="guillemetleft" xMin="72" yMin="204" xMax="1049" yMax="1000">
      <contour>
        <pt x="417" y="204" on="1"/>
        <pt x="589" y="204" on="1"/>
        <pt x="292" y="602" on="1"/>
        <pt x="589" y="1000" on="1"/>
        <pt x="417" y="1000" on="1"/>
        <pt x="72" y="612" on="1"/>
        <pt x="72" y="592" on="1"/>
      </contour>
      <contour>
        <pt x="877" y="204" on="1"/>
        <pt x="1049" y="204" on="1"/>
        <pt x="752" y="602" on="1"/>
        <pt x="1049" y="1000" on="1"/>
        <pt x="877" y="1000" on="1"/>
        <pt x="532" y="612" on="1"/>
        <pt x="532" y="592" on="1"/>
      </contour>
    </TTGlyph>
    <TTGlyph name="guillemetright" xMin="66" yMin="204" xMax="1043" yMax="1000">
      <contour>
        <pt x="238" y="204" on="1"/>
        <pt x="583" y="592" on="1"/>
        <pt x="583" y="612" on="1"/>
        <pt x="238" y="1000" on="1"/>
        <pt x="66" y="1000" on="1"/>
        <pt x="363" y="602" on="1"/>
        <pt x="66" y="204" on="1"/>
      </contour>
      <contour>
        <pt x="698" y="204" on="1"/>
        <pt x="1043" y="592" on="1"/>
        <pt x="1043" y="612" on="1"/>
        <pt x="698" y="1000" on="1"/>
        <pt x="526" y="1000" on="1"/>
        <pt x="823" y="602" on="1"/>
        <pt x="526" y="204" on="1"/>
      </contour>
    </TTGlyph>
    <TTGlyph name="guilsinglleft" xMin="72" yMin="204" xMax="589" yMax="1000">
      <contour>
        <pt x="417" y="204" on="1"/>
        <pt x="589" y="204" on="1"/>
        <pt x="292" y="602" on="1"/>
        <pt x="589" y="1000" on="1"/>
        <pt x="417" y="1000" on="1"/>
        <pt x="72" y="612" on="1"/>
        <pt x="72" y="592" on="1"/>
      </contour>
    </TTGlyph>
    <TTGlyph name="guilsinglright" xMin="66" yMin="204" xMax="583" yMax="1000">
      <contour>
        <pt x="238" y="204" on="1"/>
        <pt x="583" y="592" on="1"/>
        <pt x="583" y="612" on="1"/>
        <pt x="238" y="1000" on="1"/>
        <pt x="66" y="1000" on="1"/>
        <pt x="363" y="602" on="1"/>
        <pt x="66" y="204" on="1"/>
      </contour>
    </TTGlyph>
    <TTGlyph name="h" xMin="148" yMin="0" xMax="1000" yMax="1536">
      <contour>
        <pt x="148" y="0" on="1"/>
        <pt x="334" y="0" on="1"/>
        <pt x="334" y="744" on="1"/>
        <pt x="372" y="820" on="0"/>
        <pt x="508" y="916" on="0"/>
        <pt x="597" y="916" on="1"/>
        <pt x="701" y="916" on="0"/>
        <pt x="814" y="807" on="0"/>
        <pt x="814" y="681" on="1"/>
        <pt x="814" y="0" on="1"/>
        <pt x="1000" y="0" on="1"/>
        <pt x="1000" y="679" on="1"/>
        <pt x="1000" y="891" on="0"/>
        <pt x="811" y="1072" on="0"/>
        <pt x="652" y="1072" on="1"/>
        <pt x="552" y="1072" on="0"/>
        <pt x="390" y="990" on="0"/>
        <pt x="334" y="922" on="1"/>
        <pt x="334" y="1536" on="1"/>
        <pt x="148" y="1536" on="1"/>
      </contour>
    </TTGlyph>
    <TTGlyph name="hyphen" xMin="40" yMin="544" xMax="604" yMax="716">
      <contour>
        <pt x="40" y="544" on="1"/>
        <pt x="604" y="544" on="1"/>
        <pt x="604" y="716" on="1"/>
        <pt x="40" y="716" on="1"/>
      </contour>
    </TTGlyph>
    <TTGlyph name="hyphensoft" xMin="40" yMin="544" xMax="604" yMax="716">
      <contour>
        <pt x="40" y="544" on="1"/>
        <pt x="604" y="544" on="1"/>
        <pt x="604" y="716" on="1"/>
        <pt x="40" y="716" on="1"/>
      </contour>
    </TTGlyph>
    <TTGlyph name="i" xMin="140" yMin="0" xMax="360" yMax="1476">
      <contour>
        <pt x="157" y="0" on="1"/>
        <pt x="343" y="0" on="1"/>
        <pt x="343" y="1052" on="1"/>
        <pt x="157" y="1052" on="1"/>
      </contour>
      <contour>
        <pt x="140" y="1370" on="1"/>
        <pt x="140" y="1325" on="0"/>
        <pt x="197" y="1264" on="0"/>
        <pt x="250" y="1264" on="1"/>
        <pt x="303" y="1264" on="0"/>
        <pt x="360" y="1325" on="0"/>
        <pt x="360" y="1370" on="1"/>
        <pt x="360" y="1415" on="0"/>
        <pt x="303" y="1476" on="0"/>
        <pt x="250" y="1476" on="1"/>
        <pt x="197" y="1476" on="0"/>
        <pt x="140" y="1415" on="0"/>
      </contour>
    </TTGlyph>
    <TTGlyph name="iacute" xMin="123" yMin="0" xMax="567" yMax="1456">
      <component glyphName="dotlessi" x="0" y="0" flags="0x204"/>
      <component glyphName="acute" x="-262" y="0" flags="0x4"/>
    </TTGlyph>
    <TTGlyph name="icircumflex" xMin="-74" yMin="0" xMax="574" yMax="1456">
      <component glyphName="dotlessi" x="0" y="0" flags="0x204"/>
      <component glyphName="circumflex" x="-262" y="0" flags="0x4"/>
    </TTGlyph>
    <TTGlyph name="idieresis" xMin="-76" yMin="0" xMax="576" yMax="1368">
      <component glyphName="dotlessi" x="0" y="0" flags="0x204"/>
      <component glyphName="dieresis" x="-262" y="0" flags="0x4"/>
    </TTGlyph>
    <TTGlyph name="igrave" xMin="-67" yMin="0" xMax="377" yMax="1456">
      <component glyphName="dotlessi" x="0" y="0" flags="0x204"/>
      <component glyphName="grave" x="-262" y="0" flags="0x4"/>
    </TTGlyph>
    <TTGlyph name="indianrupee" xMin="80" yMin="0" xMax="1100" yMax="1456">
      <contour>
        <pt x="140" y="594" on="1"/>
        <pt x="720" y="0" on="1"/>
        <pt x="960" y="0" on="1"/>
        <pt x="380" y="594" on="1"/>
        <pt x="424" y="594" on="1"/>
        <pt x="658" y="594" on="0"/>
        <pt x="910" y="834" on="0"/>
        <pt x="910" y="1028" on="1"/>
        <pt x="910" y="1108" on="0"/>
        <pt x="860" y="1250" on="0"/>
        <pt x="800" y="1300" on="1"/>
        <pt x="1060" y="1300" on="1"/>
        <pt x="1100" y="1456" on="1"/>
        <pt x="120" y="1456" on="1"/>
        <pt x="80" y="1300" on="1"/>
        <pt x="424" y="1300" on="1"/>
        <pt x="590" y="1300" on="0"/>
        <pt x="720" y="1144" on="0"/>
        <pt x="720" y="1028" on="1"/>
        <pt x="720" y="912" on="0"/>
        <pt x="590" y="750" on="0"/>
        <pt x="424" y="750" on="1"/>
        <pt x="180" y="750" on="1"/>
      </contour>
      <contour>
        <pt x="120" y="940" on="1"/>
        <pt x="1060" y="940" on="1"/>
        <pt x="1100" y="1096" on="1"/>
        <pt x="160" y="1096" on="1"/>
      </contour>
    </TTGlyph>
    <TTGlyph name="j" xMin="-94" yMin="-436" xMax="360" yMax="1476">
      <contour>
        <pt x="-94" y="-410" on="1"/>
        <pt x="-69" y="-419" on="0"/>
        <pt x="30" y="-436" on="0"/>
        <pt x="70" y="-436" on="1"/>
        <pt x="204" y="-436" on="0"/>
        <pt x="343" y="-270" on="0"/>
        <pt x="343" y="-90" on="1"/>
        <pt x="343" y="1052" on="1"/>
        <pt x="157" y="1052" on="1"/>
        <pt x="157" y="-130" on="1"/>
        <pt x="157" y="-210" on="0"/>
        <pt x="90" y="-280" on="0"/>
        <pt x="30" y="-280" on="1"/>
        <pt x="0" y="-280" on="0"/>
        <pt x="-74" y="-266" on="0"/>
        <pt x="-94" y="-260" on="1"/>
      </contour>
      <contour>
        <pt x="140" y="1370" on="1"/>
        <pt x="140" y="1325" on="0"/>
        <pt x="197" y="1264" on="0"/>
        <pt x="250" y="1264" on="1"/>
        <pt x="303" y="1264" on="0"/>
        <pt x="360" y="1325" on="0"/>
        <pt x="360" y="1370" on="1"/>
        <pt x="360" y="1415" on="0"/>
        <pt x="303" y="1476" on="0"/>
        <pt x="250" y="1476" on="1"/>
        <pt x="197" y="1476" on="0"/>
        <pt x="140" y="1415" on="0"/>
      </contour>
    </TTGlyph>
    <TTGlyph name="k" xMin="148" yMin="0" xMax="1044" yMax="1536">
      <contour>
        <pt x="148" y="0" on="1"/>
        <pt x="334" y="0" on="1"/>
        <pt x="334" y="351" on="1"/>
        <pt x="995" y="1052" on="1"/>
        <pt x="774" y="1052" on="1"/>
        <pt x="334" y="578" on="1"/>
        <pt x="334" y="1536" on="1"/>
        <pt x="148" y="1536" on="1"/>
      </contour>
      <contour>
        <pt x="818" y="0" on="1"/>
        <pt x="1044" y="0" on="1"/>
        <pt x="531" y="678" on="1"/>
        <pt x="407" y="545" on="1"/>
      </contour>
    </TTGlyph>
    <TTGlyph name="l" xMin="156" yMin="0" xMax="342" yMax="1536">
      <contour>
        <pt x="156" y="0" on="1"/>
        <pt x="342" y="0" on="1"/>
        <pt x="342" y="1536" on="1"/>
        <pt x="156" y="1536" on="1"/>
      </contour>
    </TTGlyph>
    <TTGlyph name="less" xMin="172" yMin="223" xMax="990" yMax="1125">
      <contour>
        <pt x="990" y="223" on="1"/>
        <pt x="990" y="411" on="1"/>
        <pt x="386" y="674" on="1"/>
        <pt x="990" y="937" on="1"/>
        <pt x="990" y="1125" on="1"/>
        <pt x="172" y="746" on="1"/>
        <pt x="172" y="602" on="1"/>
      </contour>
    </TTGlyph>
    <TTGlyph name="logicalnot" xMin="130" yMin="376" xMax="1040" yMax="800">
      <contour>
        <pt x="130" y="628" on="1"/>
        <pt x="864" y="628" on="1"/>
        <pt x="864" y="376" on="1"/>
        <pt x="1040" y="376" on="1"/>
        <pt x="1040" y="800" on="1"/>
        <pt x="130" y="800" on="1"/>
      </contour>
    </TTGlyph>
    <TTGlyph name="m" xMin="148" yMin="0" xMax="1626" yMax="1072">
      <contour>
        <pt x="148" y="0" on="1"/>
        <pt x="334" y="0" on="1"/>
        <pt x="334" y="744" on="1"/>
        <pt x="372" y="820" on="0"/>
        <pt x="501" y="916" on="0"/>
        <pt x="587" y="916" on="1"/>
        <pt x="686" y="916" on="0"/>
        <pt x="794" y="807" on="0"/>
        <pt x="794" y="681" on="1"/>
        <pt x="794" y="0" on="1"/>
        <pt x="980" y="0" on="1"/>
        <pt x="980" y="744" on="1"/>
        <pt x="1018" y="820" on="0"/>
        <pt x="1147" y="916" on="0"/>
        <pt x="1233" y="916" on="1"/>
        <pt x="1332" y="916" on="0"/>
        <pt x="1440" y="807" on="0"/>
        <pt x="1440" y="681" on="1"/>
        <pt x="1440" y="0" on="1"/>
        <pt x="1626" y="0" on="1"/>
        <pt x="1626" y="679" on="1"/>
        <pt x="1626" y="891" on="0"/>
        <pt x="1442" y="1072" on="0"/>
        <pt x="1278" y="1072" on="1"/>
        <pt x="1174" y="1072" on="0"/>
        <pt x="1014" y="988" on="0"/>
        <pt x="948" y="894" on="1"/>
        <pt x="942" y="894" on="1"/>
        <pt x="902" y="988" on="0"/>
        <pt x="748" y="1072" on="0"/>
        <pt x="642" y="1072" on="1"/>
        <pt x="545" y="1072" on="0"/>
        <pt x="386" y="988" on="0"/>
        <pt x="330" y="917" on="1"/>
        <pt x="324" y="917" on="1"/>
        <pt x="316" y="1052" on="1"/>
        <pt x="148" y="1052" on="1"/>
      </contour>
    </TTGlyph>
    <TTGlyph name="macron" xMin="200" yMin="1176" xMax="824" yMax="1330">
      <contour>
        <pt x="200" y="1176" on="1"/>
        <pt x="824" y="1176" on="1"/>
        <pt x="824" y="1330" on="1"/>
        <pt x="200" y="1330" on="1"/>
      </contour>
    </TTGlyph>
    <TTGlyph name="minus" xMin="130" yMin="588" xMax="1040" yMax="760">
      <contour>
        <pt x="130" y="588" on="1"/>
        <pt x="1040" y="588" on="1"/>
        <pt x="1040" y="760" on="1"/>
        <pt x="130" y="760" on="1"/>
      </contour>
    </TTGlyph>
    <TTGlyph name="mu.math" xMin="148" yMin="-416" xMax="1000" yMax="1052">
      <contour>
        <pt x="148" y="-416" on="1"/>
        <pt x="326" y="-416" on="1"/>
        <pt x="326" y="52" on="1"/>
        <pt x="364" y="18" on="0"/>
        <pt x="468" y="-20" on="0"/>
        <pt x="526" y="-20" on="1"/>
        <pt x="617" y="-20" on="0"/>
        <pt x="763" y="66" on="0"/>
        <pt x="818" y="135" on="1"/>
        <pt x="824" y="135" on="1"/>
        <pt x="832" y="0" on="1"/>
        <pt x="1000" y="0" on="1"/>
        <pt x="1000" y="1052" on="1"/>
        <pt x="814" y="1052" on="1"/>
        <pt x="814" y="308" on="1"/>
        <pt x="776" y="232" on="0"/>
        <pt x="640" y="136" on="0"/>
        <pt x="551" y="136" on="1"/>
        <pt x="447" y="136" on="0"/>
        <pt x="334" y="245" on="0"/>
        <pt x="334" y="371" on="1"/>
        <pt x="334" y="1052" on="1"/>
        <pt x="148" y="1052" on="1"/>
      </contour>
    </TTGlyph>
    <TTGlyph name="multiply" xMin="140" yMin="218" xMax="1030" yMax="1132">
      <contour>
        <pt x="140" y="336" on="1"/>
        <pt x="254" y="218" on="1"/>
        <pt x="1030" y="1014" on="1"/>
        <pt x="916" y="1132" on="1"/>
      </contour>
      <contour>
        <pt x="140" y="1012" on="1"/>
        <pt x="915" y="218" on="1"/>
        <pt x="1030" y="338" on="1"/>
        <pt x="255" y="1132" on="1"/>
      </contour>
    </TTGlyph>
    <TTGlyph name="n" xMin="148" yMin="0" xMax="1000" yMax="1072">
      <contour>
        <pt x="148" y="0" on="1"/>
        <pt x="334" y="0" on="1"/>
        <pt x="334" y="744" on="1"/>
        <pt x="372" y="820" on="0"/>
        <pt x="508" y="916" on="0"/>
        <pt x="597" y="916" on="1"/>
        <pt x="701" y="916" on="0"/>
        <pt x="814" y="807" on="0"/>
        <pt x="814" y="681" on="1"/>
        <pt x="814" y="0" on="1"/>
        <pt x="1000" y="0" on="1"/>
        <pt x="1000" y="679" on="1"/>
        <pt x="1000" y="891" on="0"/>
        <pt x="811" y="1072" on="0"/>
        <pt x="652" y="1072" on="1"/>
        <pt x="552" y="1072" on="0"/>
        <pt x="387" y="989" on="0"/>
        <pt x="330" y="917" on="1"/>
        <pt x="324" y="917" on="1"/>
        <pt x="316" y="1052" on="1"/>
        <pt x="148" y="1052" on="1"/>
      </contour>
    </TTGlyph>
    <TTGlyph name="nine" xMin="72" yMin="-30" xMax="1068" yMax="1486">
      <contour>
        <pt x="72" y="1002" on="1"/>
        <pt x="72" y="786" on="0"/>
        <pt x="317" y="520" on="0"/>
        <pt x="516" y="520" on="1"/>
        <pt x="716" y="520" on="0"/>
        <pt x="956" y="786" on="0"/>
        <pt x="956" y="1002" on="1"/>
        <pt x="886" y="1002" on="1"/>
        <pt x="886" y="847" on="0"/>
        <pt x="686" y="678" on="0"/>
        <pt x="556" y="678" on="1"/>
        <pt x="416" y="678" on="0"/>
        <pt x="262" y="847" on="0"/>
        <pt x="262" y="1002" on="1"/>
        <pt x="262" y="1157" on="0"/>
        <pt x="416" y="1328" on="0"/>
        <pt x="556" y="1328" on="1"/>
        <pt x="696" y="1328" on="0"/>
        <pt x="880" y="1112" on="0"/>
        <pt x="880" y="852" on="1"/>
        <pt x="880" y="802" on="1"/>
        <pt x="880" y="452" on="0"/>
        <pt x="556" y="128" on="0"/>
        <pt x="276" y="128" on="1"/>
        <pt x="256" y="128" on="1"/>
        <pt x="256" y="-30" on="1"/>
        <pt x="276" y="-30" on="1"/>
        <pt x="656" y="-30" on="0"/>
        <pt x="1068" y="432" on="0"/>
        <pt x="1068" y="812" on="1"/>
        <pt x="1068" y="842" on="1"/>
        <pt x="1068" y="1182" on="0"/>
        <pt x="766" y="1486" on="0"/>
        <pt x="556" y="1486" on="1"/>
        <pt x="346" y="1486" on="0"/>
        <pt x="72" y="1218" on="0"/>
      </contour>
    </TTGlyph>
    <TTGlyph name="nine.pnum" xMin="72" yMin="-30" xMax="1068" yMax="1486">
      <contour>
        <pt x="72" y="1002" on="1"/>
        <pt x="72" y="786" on="0"/>
        <pt x="317" y="520" on="0"/>
        <pt x="516" y="520" on="1"/>
        <pt x="716" y="520" on="0"/>
        <pt x="956" y="786" on="0"/>
        <pt x="956" y="1002" on="1"/>
        <pt x="886" y="1002" on="1"/>
        <pt x="886" y="847" on="0"/>
        <pt x="686" y="678" on="0"/>
        <pt x="556" y="678" on="1"/>
        <pt x="416" y="678" on="0"/>
        <pt x="262" y="847" on="0"/>
        <pt x="262" y="1002" on="1"/>
        <pt x="262" y="1157" on="0"/>
        <pt x="416" y="1328" on="0"/>
        <pt x="556" y="1328" on="1"/>
        <pt x="696" y="1328" on="0"/>
        <pt x="880" y="1112" on="0"/>
        <pt x="880" y="852" on="1"/>
        <pt x="880" y="802" on="1"/>
        <pt x="880" y="452" on="0"/>
        <pt x="556" y="128" on="0"/>
        <pt x="276" y="128" on="1"/>
        <pt x="256" y="128" on="1"/>
        <pt x="256" y="-30" on="1"/>
        <pt x="276" y="-30" on="1"/>
        <pt x="656" y="-30" on="0"/>
        <pt x="1068" y="432" on="0"/>
        <pt x="1068" y="812" on="1"/>
        <pt x="1068" y="842" on="1"/>
        <pt x="1068" y="1182" on="0"/>
        <pt x="766" y="1486" on="0"/>
        <pt x="556" y="1486" on="1"/>
        <pt x="346" y="1486" on="0"/>
        <pt x="72" y="1218" on="0"/>
      </contour>
    </TTGlyph>
    <TTGlyph name="ntilde" xMin="148" yMin="0" xMax="1000" yMax="1412">
      <component glyphName="n" x="0" y="0" flags="0x204"/>
      <component glyphName="tilde" x="85" y="0" flags="0x4"/>
    </TTGlyph>
    <TTGlyph name="numbersign" xMin="64" yMin="-20" xMax="1480" yMax="1476">
      <contour>
        <pt x="216" y="-20" on="1"/>
        <pt x="360" y="-20" on="1"/>
        <pt x="822" y="1476" on="1"/>
        <pt x="678" y="1476" on="1"/>
      </contour>
      <contour>
        <pt x="722" y="-20" on="1"/>
        <pt x="866" y="-20" on="1"/>
        <pt x="1328" y="1476" on="1"/>
        <pt x="1184" y="1476" on="1"/>
      </contour>
      <contour>
        <pt x="64" y="404" on="1"/>
        <pt x="1405" y="404" on="1"/>
        <pt x="1405" y="542" on="1"/>
        <pt x="64" y="542" on="1"/>
      </contour>
      <contour>
        <pt x="140" y="914" on="1"/>
        <pt x="1480" y="914" on="1"/>
        <pt x="1480" y="1052" on="1"/>
        <pt x="140" y="1052" on="1"/>
      </contour>
    </TTGlyph>
    <TTGlyph name="numero" xMin="170" yMin="0" xMax="2360" yMax="1476">
      <contour>
        <pt x="170" y="0" on="1"/>
        <pt x="358" y="0" on="1"/>
        <pt x="358" y="990" on="1"/>
        <pt x="358" y="1020" on="0"/>
        <pt x="354" y="1095" on="0"/>
        <pt x="350" y="1125" on="1"/>
        <pt x="360" y="1125" on="1"/>
        <pt x="374" y="1100" on="0"/>
        <pt x="409" y="1041" on="0"/>
        <pt x="428" y="1010" on="1"/>
        <pt x="1040" y="0" on="1"/>
        <pt x="1240" y="0" on="1"/>
        <pt x="1240" y="1456" on="1"/>
        <pt x="1052" y="1456" on="1"/>
        <pt x="1052" y="466" on="1"/>
        <pt x="1052" y="436" on="0"/>
        <pt x="1056" y="361" on="0"/>
        <pt x="1060" y="331" on="1"/>
        <pt x="1050" y="331" on="1"/>
        <pt x="1036" y="356" on="0"/>
        <pt x="1000" y="416" on="0"/>
        <pt x="982" y="446" on="1"/>
        <pt x="370" y="1456" on="1"/>
        <pt x="170" y="1456" on="1"/>
      </contour>
      <contour>
        <pt x="1440" y="130" on="1"/>
        <pt x="1440" y="295" on="1"/>
        <pt x="2320" y="295" on="1"/>
        <pt x="2320" y="130" on="1"/>
      </contour>
      <contour>
        <pt x="1400" y="964" on="1"/>
        <pt x="1400" y="984" on="1"/>
        <pt x="1400" y="1194" on="0"/>
        <pt x="1655" y="1476" on="0"/>
        <pt x="1880" y="1476" on="1"/>
        <pt x="2105" y="1476" on="0"/>
        <pt x="2360" y="1194" on="0"/>
        <pt x="2360" y="984" on="1"/>
        <pt x="2360" y="964" on="1"/>
        <pt x="2360" y="754" on="0"/>
        <pt x="2105" y="472" on="0"/>
        <pt x="1880" y="472" on="1"/>
        <pt x="1655" y="472" on="0"/>
        <pt x="1400" y="754" on="0"/>
      </contour>
      <contour>
        <pt x="1580" y="964" on="1"/>
        <pt x="1580" y="814" on="0"/>
        <pt x="1730" y="624" on="0"/>
        <pt x="1880" y="624" on="1"/>
        <pt x="2030" y="624" on="0"/>
        <pt x="2180" y="814" on="0"/>
        <pt x="2180" y="964" on="1"/>
        <pt x="2180" y="984" on="1"/>
        <pt x="2180" y="1134" on="0"/>
        <pt x="2030" y="1324" on="0"/>
        <pt x="1880" y="1324" on="1"/>
        <pt x="1730" y="1324" on="0"/>
        <pt x="1580" y="1134" on="0"/>
        <pt x="1580" y="984" on="1"/>
      </contour>
    </TTGlyph>
    <TTGlyph name="o" xMin="85" yMin="-30" xMax="1077" yMax="1082">
      <contour>
        <pt x="85" y="510" on="1"/>
        <pt x="85" y="272" on="0"/>
        <pt x="355" y="-30" on="0"/>
        <pt x="581" y="-30" on="1"/>
        <pt x="807" y="-30" on="0"/>
        <pt x="1077" y="272" on="0"/>
        <pt x="1077" y="510" on="1"/>
        <pt x="1077" y="542" on="1"/>
        <pt x="1077" y="780" on="0"/>
        <pt x="807" y="1082" on="0"/>
        <pt x="581" y="1082" on="1"/>
        <pt x="355" y="1082" on="0"/>
        <pt x="85" y="780" on="0"/>
        <pt x="85" y="542" on="1"/>
      </contour>
      <contour>
        <pt x="275" y="542" on="1"/>
        <pt x="275" y="705" on="0"/>
        <pt x="429" y="930" on="0"/>
        <pt x="581" y="930" on="1"/>
        <pt x="733" y="930" on="0"/>
        <pt x="887" y="705" on="0"/>
        <pt x="887" y="542" on="1"/>
        <pt x="887" y="510" on="1"/>
        <pt x="887" y="347" on="0"/>
        <pt x="733" y="122" on="0"/>
        <pt x="581" y="122" on="1"/>
        <pt x="429" y="122" on="0"/>
        <pt x="275" y="347" on="0"/>
        <pt x="275" y="510" on="1"/>
      </contour>
    </TTGlyph>
    <TTGlyph name="oacute" xMin="85" yMin="-30" xMax="1077" yMax="1456">
      <component glyphName="o" x="0" y="0" flags="0x204"/>
      <component glyphName="acute" x="69" y="0" flags="0x4"/>
    </TTGlyph>
    <TTGlyph name="ocircumflex" xMin="85" yMin="-30" xMax="1077" yMax="1456">
      <component glyphName="o" x="0" y="0" flags="0x204"/>
      <component glyphName="circumflex" x="69" y="0" flags="0x4"/>
    </TTGlyph>
    <TTGlyph name="odieresis" xMin="85" yMin="-30" xMax="1077" yMax="1368">
      <component glyphName="o" x="0" y="0" flags="0x204"/>
      <component glyphName="dieresis" x="69" y="0" flags="0x4"/>
    </TTGlyph>
    <TTGlyph name="oe" xMin="85" yMin="-30" xMax="1730" yMax="1082">
      <contour>
        <pt x="85" y="510" on="1"/>
        <pt x="85" y="272" on="0"/>
        <pt x="350" y="-30" on="0"/>
        <pt x="571" y="-30" on="1"/>
        <pt x="696" y="-30" on="0"/>
        <pt x="890" y="79" on="0"/>
        <pt x="950" y="174" on="1"/>
        <pt x="1006" y="80" on="0"/>
        <pt x="1200" y="-30" on="0"/>
        <pt x="1333" y="-30" on="1"/>
        <pt x="1475" y="-30" on="0"/>
        <pt x="1673" y="102" on="0"/>
        <pt x="1722" y="175" on="1"/>
        <pt x="1602" y="270" on="1"/>
        <pt x="1559" y="212" on="0"/>
        <pt x="1427" y="122" on="0"/>
        <pt x="1333" y="122" on="1"/>
        <pt x="1181" y="122" on="0"/>
        <pt x="1037" y="347" on="0"/>
        <pt x="1037" y="510" on="1"/>
        <pt x="1037" y="542" on="1"/>
        <pt x="1037" y="705" on="0"/>
        <pt x="1173" y="930" on="0"/>
        <pt x="1303" y="930" on="1"/>
        <pt x="1432" y="930" on="0"/>
        <pt x="1540" y="760" on="0"/>
        <pt x="1540" y="632" on="1"/>
        <pt x="1540" y="632" on="1"/>
        <pt x="961" y="632" on="1"/>
        <pt x="961" y="484" on="1"/>
        <pt x="1730" y="484" on="1"/>
        <pt x="1730" y="560" on="1"/>
        <pt x="1730" y="800" on="0"/>
        <pt x="1508" y="1082" on="0"/>
        <pt x="1303" y="1082" on="1"/>
        <pt x="1187" y="1082" on="0"/>
        <pt x="1006" y="972" on="0"/>
        <pt x="950" y="878" on="1"/>
        <pt x="890" y="973" on="0"/>
        <pt x="696" y="1082" on="0"/>
        <pt x="571" y="1082" on="1"/>
        <pt x="350" y="1082" on="0"/>
        <pt x="85" y="780" on="0"/>
        <pt x="85" y="542" on="1"/>
      </contour>
      <contour>
        <pt x="275" y="510" on="1"/>
        <pt x="275" y="542" on="1"/>
        <pt x="275" y="705" on="0"/>
        <pt x="424" y="930" on="0"/>
        <pt x="571" y="930" on="1"/>
        <pt x="718" y="930" on="0"/>
        <pt x="867" y="705" on="0"/>
        <pt x="867" y="542" on="1"/>
        <pt x="867" y="510" on="1"/>
        <pt x="867" y="347" on="0"/>
        <pt x="718" y="122" on="0"/>
        <pt x="571" y="122" on="1"/>
        <pt x="424" y="122" on="0"/>
        <pt x="275" y="347" on="0"/>
      </contour>
    </TTGlyph>
    <TTGlyph name="ograve" xMin="85" yMin="-30" xMax="1077" yMax="1456">
      <component glyphName="o" x="0" y="0" flags="0x204"/>
      <component glyphName="grave" x="69" y="0" flags="0x4"/>
    </TTGlyph>
    <TTGlyph name="one" xMin="172" yMin="0" xMax="732" yMax="1476">
      <contour>
        <pt x="540" y="0" on="1"/>
        <pt x="732" y="0" on="1"/>
        <pt x="732" y="1476" on="1"/>
        <pt x="702" y="1476" on="1"/>
        <pt x="172" y="1276" on="1"/>
        <pt x="172" y="1090" on="1"/>
        <pt x="540" y="1245" on="1"/>
      </contour>
    </TTGlyph>
    <TTGlyph name="one.inferior" xMin="123" yMin="-367" xMax="495" yMax="422">
      <contour>
        <pt x="495" y="422" on="1"/>
        <pt x="477" y="422" on="1"/>
        <pt x="123" y="306" on="1"/>
        <pt x="123" y="177" on="1"/>
        <pt x="339" y="234" on="1"/>
        <pt x="339" y="-367" on="1"/>
        <pt x="495" y="-367" on="1"/>
      </contour>
    </TTGlyph>
    <TTGlyph name="one.pnum" xMin="42" yMin="0" xMax="602" yMax="1476">
      <contour>
        <pt x="410" y="0" on="1"/>
        <pt x="602" y="0" on="1"/>
        <pt x="602" y="1476" on="1"/>
        <pt x="572" y="1476" on="1"/>
        <pt x="42" y="1276" on="1"/>
        <pt x="42" y="1090" on="1"/>
        <pt x="410" y="1245" on="1"/>
      </contour>
    </TTGlyph>
    <TTGlyph name="onehalf" xMin="266" yMin="-22" xMax="1291" yMax="1494">
      <component glyphName="fraction" x="236" y="8" flags="0x4"/>
    </TTGlyph>
    <TTGlyph name="onequarter" xMin="310" yMin="-22" xMax="1335" yMax="1494">
      <component glyphName="fraction" x="280" y="8" flags="0x4"/>
    </TTGlyph>
    <TTGlyph name="onesuperior" xMin="123" yMin="667" xMax="495" yMax="1456">
      <contour>
        <pt x="495" y="1456" on="1"/>
        <pt x="477" y="1456" on="1"/>
        <pt x="123" y="1340" on="1"/>
        <pt x="123" y="1211" on="1"/>
        <pt x="339" y="1268" on="1"/>
        <pt x="339" y="667" on="1"/>
        <pt x="495" y="667" on="1"/>
      </contour>
    </TTGlyph>
    <TTGlyph name="ordfeminine" xMin="66" yMin="611" xMax="830" yMax="1476">
      <contour>
        <pt x="66" y="870" on="1"/>
        <pt x="66" y="744" on="0"/>
        <pt x="239" y="611" on="0"/>
        <pt x="363" y="611" on="1"/>
        <pt x="469" y="611" on="0"/>
        <pt x="604" y="689" on="0"/>
        <pt x="633" y="740" on="1"/>
        <pt x="636" y="709" on="0"/>
        <pt x="654" y="646" on="0"/>
        <pt x="665" y="627" on="1"/>
        <pt x="830" y="627" on="1"/>
        <pt x="830" y="639" on="1"/>
        <pt x="816" y="674" on="0"/>
        <pt x="800" y="764" on="0"/>
        <pt x="800" y="815" on="1"/>
        <pt x="800" y="1192" on="1"/>
        <pt x="800" y="1333" on="0"/>
        <pt x="623" y="1476" on="0"/>
        <pt x="463" y="1476" on="1"/>
        <pt x="303" y="1476" on="0"/>
        <pt x="114" y="1324" on="0"/>
        <pt x="114" y="1222" on="1"/>
        <pt x="114" y="1216" on="1"/>
        <pt x="284" y="1216" on="1"/>
        <pt x="284" y="1222" on="1"/>
        <pt x="284" y="1269" on="0"/>
        <pt x="365" y="1340" on="0"/>
        <pt x="459" y="1340" on="1"/>
        <pt x="553" y="1340" on="0"/>
        <pt x="630" y="1257" on="0"/>
        <pt x="630" y="1192" on="1"/>
        <pt x="630" y="1135" on="1"/>
        <pt x="443" y="1135" on="1"/>
        <pt x="279" y="1135" on="0"/>
        <pt x="66" y="996" on="0"/>
      </contour>
      <contour>
        <pt x="236" y="878" on="1"/>
        <pt x="236" y="939" on="0"/>
        <pt x="349" y="1012" on="0"/>
        <pt x="459" y="1012" on="1"/>
        <pt x="630" y="1012" on="1"/>
        <pt x="630" y="913" on="1"/>
        <pt x="630" y="853" on="0"/>
        <pt x="490" y="747" on="0"/>
        <pt x="404" y="747" on="1"/>
        <pt x="318" y="747" on="0"/>
        <pt x="236" y="816" on="0"/>
      </contour>
    </TTGlyph>
    <TTGlyph name="ordmasculine" xMin="60" yMin="603" xMax="880" yMax="1476">
      <contour>
        <pt x="60" y="1027" on="1"/>
        <pt x="60" y="840" on="0"/>
        <pt x="283" y="603" on="0"/>
        <pt x="470" y="603" on="1"/>
        <pt x="657" y="603" on="0"/>
        <pt x="880" y="840" on="0"/>
        <pt x="880" y="1027" on="1"/>
        <pt x="880" y="1052" on="1"/>
        <pt x="880" y="1239" on="0"/>
        <pt x="657" y="1476" on="0"/>
        <pt x="470" y="1476" on="1"/>
        <pt x="283" y="1476" on="0"/>
        <pt x="60" y="1239" on="0"/>
        <pt x="60" y="1052" on="1"/>
      </contour>
      <contour>
        <pt x="230" y="1052" on="1"/>
        <pt x="230" y="1170" on="0"/>
        <pt x="351" y="1336" on="0"/>
        <pt x="470" y="1336" on="1"/>
        <pt x="589" y="1336" on="0"/>
        <pt x="710" y="1170" on="0"/>
        <pt x="710" y="1052" on="1"/>
        <pt x="710" y="1027" on="1"/>
        <pt x="710" y="909" on="0"/>
        <pt x="589" y="743" on="0"/>
        <pt x="470" y="743" on="1"/>
        <pt x="351" y="743" on="0"/>
        <pt x="230" y="909" on="0"/>
        <pt x="230" y="1027" on="1"/>
      </contour>
    </TTGlyph>
    <TTGlyph name="oslash" xMin="85" yMin="-120" xMax="1077" yMax="1172">
      <contour>
        <pt x="85" y="510" on="1"/>
        <pt x="85" y="272" on="0"/>
        <pt x="355" y="-30" on="0"/>
        <pt x="581" y="-30" on="1"/>
        <pt x="807" y="-30" on="0"/>
        <pt x="1077" y="272" on="0"/>
        <pt x="1077" y="510" on="1"/>
        <pt x="1077" y="542" on="1"/>
        <pt x="1077" y="780" on="0"/>
        <pt x="807" y="1082" on="0"/>
        <pt x="581" y="1082" on="1"/>
        <pt x="355" y="1082" on="0"/>
        <pt x="85" y="780" on="0"/>
        <pt x="85" y="542" on="1"/>
      </contour>
      <contour>
        <pt x="275" y="542" on="1"/>
        <pt x="275" y="705" on="0"/>
        <pt x="429" y="930" on="0"/>
        <pt x="581" y="930" on="1"/>
        <pt x="733" y="930" on="0"/>
        <pt x="887" y="705" on="0"/>
        <pt x="887" y="542" on="1"/>
        <pt x="887" y="510" on="1"/>
        <pt x="887" y="347" on="0"/>
        <pt x="733" y="122" on="0"/>
        <pt x="581" y="122" on="1"/>
        <pt x="429" y="122" on="0"/>
        <pt x="275" y="347" on="0"/>
        <pt x="275" y="510" on="1"/>
      </contour>
      <contour>
        <pt x="140" y="-120" on="1"/>
        <pt x="310" y="-120" on="1"/>
        <pt x="412" y="68" on="1"/>
        <pt x="407" y="68" on="1"/>
        <pt x="656" y="526" on="1"/>
        <pt x="506" y="526" on="1"/>
        <pt x="297" y="150" on="1"/>
        <pt x="292" y="150" on="1"/>
      </contour>
      <contour>
        <pt x="506" y="526" on="1"/>
        <pt x="656" y="526" on="1"/>
        <pt x="865" y="902" on="1"/>
        <pt x="870" y="902" on="1"/>
        <pt x="1022" y="1172" on="1"/>
        <pt x="852" y="1172" on="1"/>
        <pt x="750" y="984" on="1"/>
        <pt x="755" y="984" on="1"/>
      </contour>
    </TTGlyph>
    <TTGlyph name="otilde" xMin="85" yMin="-30" xMax="1077" yMax="1412">
      <component glyphName="o" x="0" y="0" flags="0x204"/>
      <component glyphName="tilde" x="69" y="0" flags="0x4"/>
    </TTGlyph>
    <TTGlyph name="p" xMin="148" yMin="-416" xMax="1085" yMax="1072">
      <contour>
        <pt x="148" y="-416" on="1"/>
        <pt x="334" y="-416" on="1"/>
        <pt x="334" y="124" on="1"/>
        <pt x="380" y="59" on="0"/>
        <pt x="535" y="-20" on="0"/>
        <pt x="645" y="-20" on="1"/>
        <pt x="845" y="-20" on="0"/>
        <pt x="1085" y="280" on="0"/>
        <pt x="1085" y="510" on="1"/>
        <pt x="1085" y="542" on="1"/>
        <pt x="1085" y="772" on="0"/>
        <pt x="845" y="1072" on="0"/>
        <pt x="645" y="1072" on="1"/>
        <pt x="535" y="1072" on="0"/>
        <pt x="370" y="980" on="0"/>
        <pt x="330" y="915" on="1"/>
        <pt x="324" y="915" on="1"/>
        <pt x="316" y="1052" on="1"/>
        <pt x="148" y="1052" on="1"/>
      </contour>
      <contour>
        <pt x="334" y="312" on="1"/>
        <pt x="334" y="740" on="1"/>
        <pt x="365" y="810" on="0"/>
        <pt x="505" y="920" on="0"/>
        <pt x="605" y="920" on="1"/>
        <pt x="755" y="920" on="0"/>
        <pt x="895" y="702" on="0"/>
        <pt x="895" y="542" on="1"/>
        <pt x="895" y="510" on="1"/>
        <pt x="895" y="350" on="0"/>
        <pt x="755" y="132" on="0"/>
        <pt x="605" y="132" on="1"/>
        <pt x="505" y="132" on="0"/>
        <pt x="365" y="242" on="0"/>
      </contour>
    </TTGlyph>
    <TTGlyph name="paragraph" xMin="100" yMin="-200" xMax="1310" yMax="1456">
      <contour>
        <pt x="100" y="986" on="1"/>
        <pt x="100" y="786" on="0"/>
        <pt x="340" y="513" on="0"/>
        <pt x="520" y="516" on="1"/>
        <pt x="575" y="516" on="1"/>
        <pt x="575" y="-200" on="1"/>
        <pt x="760" y="-200" on="1"/>
        <pt x="760" y="1266" on="1"/>
        <pt x="940" y="1266" on="1"/>
        <pt x="940" y="-200" on="1"/>
        <pt x="1125" y="-200" on="1"/>
        <pt x="1125" y="1266" on="1"/>
        <pt x="1310" y="1266" on="1"/>
        <pt x="1310" y="1456" on="1"/>
        <pt x="520" y="1456" on="1"/>
        <pt x="340" y="1456" on="0"/>
        <pt x="100" y="1186" on="0"/>
      </contour>
    </TTGlyph>
    <TTGlyph name="parenleft" xMin="124" yMin="-436" xMax="664" yMax="1476">
      <contour>
        <pt x="664" y="-436" on="1"/>
        <pt x="664" y="-276" on="1"/>
        <pt x="540" y="-200" on="0"/>
        <pt x="319" y="160" on="0"/>
        <pt x="319" y="508" on="1"/>
        <pt x="319" y="532" on="1"/>
        <pt x="319" y="880" on="0"/>
        <pt x="540" y="1240" on="0"/>
        <pt x="664" y="1316" on="1"/>
        <pt x="664" y="1476" on="1"/>
        <pt x="460" y="1380" on="0"/>
        <pt x="124" y="920" on="0"/>
        <pt x="124" y="525" on="1"/>
        <pt x="124" y="515" on="1"/>
        <pt x="124" y="120" on="0"/>
        <pt x="460" y="-340" on="0"/>
      </contour>
    </TTGlyph>
    <TTGlyph name="parenright" xMin="36" yMin="-436" xMax="576" yMax="1476">
      <contour>
        <pt x="36" y="-436" on="1"/>
        <pt x="240" y="-340" on="0"/>
        <pt x="576" y="120" on="0"/>
        <pt x="576" y="515" on="1"/>
        <pt x="576" y="525" on="1"/>
        <pt x="576" y="920" on="0"/>
        <pt x="240" y="1380" on="0"/>
        <pt x="36" y="1476" on="1"/>
        <pt x="36" y="1316" on="1"/>
        <pt x="160" y="1240" on="0"/>
        <pt x="381" y="880" on="0"/>
        <pt x="381" y="532" on="1"/>
        <pt x="381" y="508" on="1"/>
        <pt x="381" y="160" on="0"/>
        <pt x="160" y="-200" on="0"/>
        <pt x="36" y="-276" on="1"/>
      </contour>
    </TTGlyph>
    <TTGlyph name="percent" xMin="70" yMin="-30" xMax="1755" yMax="1486">
      <contour>
        <pt x="70" y="1016" on="1"/>
        <pt x="70" y="856" on="0"/>
        <pt x="240" y="660" on="0"/>
        <pt x="400" y="660" on="1"/>
        <pt x="560" y="660" on="0"/>
        <pt x="730" y="856" on="0"/>
        <pt x="730" y="1016" on="1"/>
        <pt x="730" y="1120" on="1"/>
        <pt x="730" y="1280" on="0"/>
        <pt x="560" y="1476" on="0"/>
        <pt x="400" y="1476" on="1"/>
        <pt x="240" y="1476" on="0"/>
        <pt x="70" y="1280" on="0"/>
        <pt x="70" y="1120" on="1"/>
      </contour>
      <contour>
        <pt x="240" y="1016" on="1"/>
        <pt x="240" y="1120" on="1"/>
        <pt x="240" y="1210" on="0"/>
        <pt x="310" y="1326" on="0"/>
        <pt x="400" y="1326" on="1"/>
        <pt x="490" y="1326" on="0"/>
        <pt x="560" y="1210" on="0"/>
        <pt x="560" y="1120" on="1"/>
        <pt x="560" y="1016" on="1"/>
        <pt x="560" y="926" on="0"/>
        <pt x="490" y="810" on="0"/>
        <pt x="400" y="810" on="1"/>
        <pt x="310" y="810" on="0"/>
        <pt x="240" y="926" on="0"/>
      </contour>
      <contour>
        <pt x="400" y="58" on="1"/>
        <pt x="534" y="-30" on="1"/>
        <pt x="1425" y="1398" on="1"/>
        <pt x="1291" y="1486" on="1"/>
      </contour>
      <contour>
        <pt x="1095" y="336" on="1"/>
        <pt x="1095" y="176" on="0"/>
        <pt x="1265" y="-20" on="0"/>
        <pt x="1425" y="-20" on="1"/>
        <pt x="1585" y="-20" on="0"/>
        <pt x="1755" y="176" on="0"/>
        <pt x="1755" y="336" on="1"/>
        <pt x="1755" y="440" on="1"/>
        <pt x="1755" y="600" on="0"/>
        <pt x="1585" y="796" on="0"/>
        <pt x="1425" y="796" on="1"/>
        <pt x="1265" y="796" on="0"/>
        <pt x="1095" y="600" on="0"/>
        <pt x="1095" y="440" on="1"/>
      </contour>
      <contour>
        <pt x="1265" y="336" on="1"/>
        <pt x="1265" y="440" on="1"/>
        <pt x="1265" y="530" on="0"/>
        <pt x="1335" y="646" on="0"/>
        <pt x="1425" y="646" on="1"/>
        <pt x="1515" y="646" on="0"/>
        <pt x="1585" y="530" on="0"/>
        <pt x="1585" y="440" on="1"/>
        <pt x="1585" y="336" on="1"/>
        <pt x="1585" y="246" on="0"/>
        <pt x="1515" y="130" on="0"/>
        <pt x="1425" y="130" on="1"/>
        <pt x="1335" y="130" on="0"/>
        <pt x="1265" y="246" on="0"/>
      </contour>
    </TTGlyph>
    <TTGlyph name="period" xMin="160" yMin="-22" xMax="420" yMax="228">
      <contour>
        <pt x="160" y="103" on="1"/>
        <pt x="160" y="51" on="0"/>
        <pt x="227" y="-22" on="0"/>
        <pt x="290" y="-22" on="1"/>
        <pt x="353" y="-22" on="0"/>
        <pt x="420" y="51" on="0"/>
        <pt x="420" y="103" on="1"/>
        <pt x="420" y="155" on="0"/>
        <pt x="353" y="228" on="0"/>
        <pt x="290" y="228" on="1"/>
        <pt x="227" y="228" on="0"/>
        <pt x="160" y="155" on="0"/>
      </contour>
    </TTGlyph>
    <TTGlyph name="periodcentered" xMin="160" yMin="605" xMax="420" yMax="855">
      <contour>
        <pt x="160" y="730" on="1"/>
        <pt x="160" y="678" on="0"/>
        <pt x="227" y="605" on="0"/>
        <pt x="290" y="605" on="1"/>
        <pt x="353" y="605" on="0"/>
        <pt x="420" y="678" on="0"/>
        <pt x="420" y="730" on="1"/>
        <pt x="420" y="782" on="0"/>
        <pt x="353" y="855" on="0"/>
        <pt x="290" y="855" on="1"/>
        <pt x="227" y="855" on="0"/>
        <pt x="160" y="782" on="0"/>
      </contour>
    </TTGlyph>
    <TTGlyph name="perthousand" xMin="70" yMin="-30" xMax="2295" yMax="1486">
      <contour>
        <pt x="70" y="1016" on="1"/>
        <pt x="70" y="856" on="0"/>
        <pt x="230" y="660" on="0"/>
        <pt x="380" y="660" on="1"/>
        <pt x="530" y="660" on="0"/>
        <pt x="690" y="856" on="0"/>
        <pt x="690" y="1016" on="1"/>
        <pt x="690" y="1120" on="1"/>
        <pt x="690" y="1280" on="0"/>
        <pt x="530" y="1476" on="0"/>
        <pt x="380" y="1476" on="1"/>
        <pt x="230" y="1476" on="0"/>
        <pt x="70" y="1280" on="0"/>
        <pt x="70" y="1120" on="1"/>
      </contour>
      <contour>
        <pt x="240" y="1016" on="1"/>
        <pt x="240" y="1120" on="1"/>
        <pt x="240" y="1210" on="0"/>
        <pt x="301" y="1326" on="0"/>
        <pt x="380" y="1326" on="1"/>
        <pt x="459" y="1326" on="0"/>
        <pt x="520" y="1210" on="0"/>
        <pt x="520" y="1120" on="1"/>
        <pt x="520" y="1016" on="1"/>
        <pt x="520" y="926" on="0"/>
        <pt x="459" y="810" on="0"/>
        <pt x="380" y="810" on="1"/>
        <pt x="301" y="810" on="0"/>
        <pt x="240" y="926" on="0"/>
      </contour>
      <contour>
        <pt x="300" y="58" on="1"/>
        <pt x="434" y="-30" on="1"/>
        <pt x="1325" y="1398" on="1"/>
        <pt x="1191" y="1486" on="1"/>
      </contour>
      <contour>
        <pt x="935" y="336" on="1"/>
        <pt x="935" y="176" on="0"/>
        <pt x="1095" y="-20" on="0"/>
        <pt x="1245" y="-20" on="1"/>
        <pt x="1395" y="-20" on="0"/>
        <pt x="1555" y="176" on="0"/>
        <pt x="1555" y="336" on="1"/>
        <pt x="1555" y="440" on="1"/>
        <pt x="1555" y="600" on="0"/>
        <pt x="1395" y="796" on="0"/>
        <pt x="1245" y="796" on="1"/>
        <pt x="1095" y="796" on="0"/>
        <pt x="935" y="600" on="0"/>
        <pt x="935" y="440" on="1"/>
      </contour>
      <contour>
        <pt x="1105" y="336" on="1"/>
        <pt x="1105" y="440" on="1"/>
        <pt x="1105" y="530" on="0"/>
        <pt x="1166" y="646" on="0"/>
        <pt x="1245" y="646" on="1"/>
        <pt x="1324" y="646" on="0"/>
        <pt x="1385" y="530" on="0"/>
        <pt x="1385" y="440" on="1"/>
        <pt x="1385" y="336" on="1"/>
        <pt x="1385" y="246" on="0"/>
        <pt x="1324" y="130" on="0"/>
        <pt x="1245" y="130" on="1"/>
        <pt x="1166" y="130" on="0"/>
        <pt x="1105" y="246" on="0"/>
      </contour>
      <contour>
        <pt x="1675" y="336" on="1"/>
        <pt x="1675" y="176" on="0"/>
        <pt x="1835" y="-20" on="0"/>
        <pt x="1985" y="-20" on="1"/>
        <pt x="2135" y="-20" on="0"/>
        <pt x="2295" y="176" on="0"/>
        <pt x="2295" y="336" on="1"/>
        <pt x="2295" y="440" on="1"/>
        <pt x="2295" y="600" on="0"/>
        <pt x="2135" y="796" on="0"/>
        <pt x="1985" y="796" on="1"/>
        <pt x="1835" y="796" on="0"/>
        <pt x="1675" y="600" on="0"/>
        <pt x="1675" y="440" on="1"/>
      </contour>
      <contour>
        <pt x="1845" y="336" on="1"/>
        <pt x="1845" y="440" on="1"/>
        <pt x="1845" y="530" on="0"/>
        <pt x="1906" y="646" on="0"/>
        <pt x="1985" y="646" on="1"/>
        <pt x="2064" y="646" on="0"/>
        <pt x="2125" y="530" on="0"/>
        <pt x="2125" y="440" on="1"/>
        <pt x="2125" y="336" on="1"/>
        <pt x="2125" y="246" on="0"/>
        <pt x="2064" y="130" on="0"/>
        <pt x="1985" y="130" on="1"/>
        <pt x="1906" y="130" on="0"/>
        <pt x="1845" y="246" on="0"/>
      </contour>
    </TTGlyph>
    <TTGlyph name="plus" xMin="90" yMin="148" xMax="1080" yMax="1200">
      <contour>
        <pt x="90" y="592" on="1"/>
        <pt x="1080" y="592" on="1"/>
        <pt x="1080" y="756" on="1"/>
        <pt x="90" y="756" on="1"/>
      </contour>
      <contour>
        <pt x="495" y="148" on="1"/>
        <pt x="675" y="148" on="1"/>
        <pt x="675" y="1200" on="1"/>
        <pt x="495" y="1200" on="1"/>
      </contour>
    </TTGlyph>
    <TTGlyph name="plusminus" xMin="140" yMin="0" xMax="1030" yMax="1200">
      <contour>
        <pt x="140" y="626" on="1"/>
        <pt x="1030" y="626" on="1"/>
        <pt x="1030" y="786" on="1"/>
        <pt x="140" y="786" on="1"/>
      </contour>
      <contour>
        <pt x="497" y="250" on="1"/>
        <pt x="673" y="250" on="1"/>
        <pt x="673" y="1200" on="1"/>
        <pt x="497" y="1200" on="1"/>
      </contour>
      <contour>
        <pt x="140" y="0" on="1"/>
        <pt x="1030" y="0" on="1"/>
        <pt x="1030" y="160" on="1"/>
        <pt x="140" y="160" on="1"/>
      </contour>
    </TTGlyph>
    <TTGlyph name="q" xMin="85" yMin="-416" xMax="1022" yMax="1072">
      <contour>
        <pt x="85" y="510" on="1"/>
        <pt x="85" y="280" on="0"/>
        <pt x="325" y="-20" on="0"/>
        <pt x="525" y="-20" on="1"/>
        <pt x="635" y="-20" on="0"/>
        <pt x="790" y="59" on="0"/>
        <pt x="836" y="124" on="1"/>
        <pt x="836" y="-416" on="1"/>
        <pt x="1022" y="-416" on="1"/>
        <pt x="1022" y="1052" on="1"/>
        <pt x="854" y="1052" on="1"/>
        <pt x="846" y="915" on="1"/>
        <pt x="840" y="915" on="1"/>
        <pt x="800" y="980" on="0"/>
        <pt x="635" y="1072" on="0"/>
        <pt x="525" y="1072" on="1"/>
        <pt x="325" y="1072" on="0"/>
        <pt x="85" y="772" on="0"/>
        <pt x="85" y="542" on="1"/>
      </contour>
      <contour>
        <pt x="275" y="510" on="1"/>
        <pt x="275" y="542" on="1"/>
        <pt x="275" y="702" on="0"/>
        <pt x="415" y="920" on="0"/>
        <pt x="565" y="920" on="1"/>
        <pt x="665" y="920" on="0"/>
        <pt x="805" y="810" on="0"/>
        <pt x="836" y="740" on="1"/>
        <pt x="836" y="312" on="1"/>
        <pt x="805" y="242" on="0"/>
        <pt x="665" y="132" on="0"/>
        <pt x="565" y="132" on="1"/>
        <pt x="415" y="132" on="0"/>
        <pt x="275" y="350" on="0"/>
      </contour>
    </TTGlyph>
    <TTGlyph name="question" xMin="60" yMin="-22" xMax="874" yMax="1476">
      <contour>
        <pt x="320" y="97" on="1"/>
        <pt x="320" y="48" on="0"/>
        <pt x="384" y="-22" on="0"/>
        <pt x="444" y="-22" on="1"/>
        <pt x="504" y="-22" on="0"/>
        <pt x="568" y="48" on="0"/>
        <pt x="568" y="97" on="1"/>
        <pt x="568" y="146" on="0"/>
        <pt x="504" y="216" on="0"/>
        <pt x="444" y="216" on="1"/>
        <pt x="384" y="216" on="0"/>
        <pt x="320" y="146" on="0"/>
      </contour>
      <contour>
        <pt x="60" y="1095" on="1"/>
        <pt x="245" y="1095" on="1"/>
        <pt x="245" y="1115" on="1"/>
        <pt x="245" y="1210" on="0"/>
        <pt x="360" y="1314" on="0"/>
        <pt x="470" y="1314" on="1"/>
        <pt x="580" y="1314" on="0"/>
        <pt x="688" y="1200" on="0"/>
        <pt x="688" y="1100" on="1"/>
        <pt x="688" y="1000" on="0"/>
        <pt x="584" y="864" on="0"/>
        <pt x="502" y="783" on="1"/>
        <pt x="406" y="689" on="0"/>
        <pt x="342" y="545" on="0"/>
        <pt x="342" y="420" on="1"/>
        <pt x="342" y="410" on="1"/>
        <pt x="528" y="410" on="1"/>
        <pt x="528" y="420" on="1"/>
        <pt x="528" y="490" on="0"/>
        <pt x="569" y="617" on="0"/>
        <pt x="654" y="694" on="1"/>
        <pt x="726" y="758" on="0"/>
        <pt x="874" y="966" on="0"/>
        <pt x="874" y="1100" on="1"/>
        <pt x="874" y="1270" on="0"/>
        <pt x="660" y="1476" on="0"/>
        <pt x="470" y="1476" on="1"/>
        <pt x="280" y="1476" on="0"/>
        <pt x="60" y="1280" on="0"/>
        <pt x="60" y="1115" on="1"/>
      </contour>
    </TTGlyph>
    <TTGlyph name="questiondown" xMin="94" yMin="-300" xMax="908" yMax="1198">
      <contour>
        <pt x="94" y="76" on="1"/>
        <pt x="94" y="-94" on="0"/>
        <pt x="308" y="-300" on="0"/>
        <pt x="498" y="-300" on="1"/>
        <pt x="688" y="-300" on="0"/>
        <pt x="908" y="-104" on="0"/>
        <pt x="908" y="61" on="1"/>
        <pt x="908" y="81" on="1"/>
        <pt x="723" y="81" on="1"/>
        <pt x="723" y="61" on="1"/>
        <pt x="723" y="-34" on="0"/>
        <pt x="608" y="-138" on="0"/>
        <pt x="498" y="-138" on="1"/>
        <pt x="388" y="-138" on="0"/>
        <pt x="280" y="-24" on="0"/>
        <pt x="280" y="76" on="1"/>
        <pt x="280" y="176" on="0"/>
        <pt x="384" y="312" on="0"/>
        <pt x="466" y="393" on="1"/>
        <pt x="562" y="487" on="0"/>
        <pt x="626" y="631" on="0"/>
        <pt x="626" y="756" on="1"/>
        <pt x="626" y="766" on="1"/>
        <pt x="440" y="766" on="1"/>
        <pt x="440" y="756" on="1"/>
        <pt x="440" y="686" on="0"/>
        <pt x="399" y="559" on="0"/>
        <pt x="314" y="482" on="1"/>
        <pt x="242" y="418" on="0"/>
        <pt x="94" y="210" on="0"/>
      </contour>
      <contour>
        <pt x="400" y="1079" on="1"/>
        <pt x="400" y="1030" on="0"/>
        <pt x="464" y="960" on="0"/>
        <pt x="524" y="960" on="1"/>
        <pt x="584" y="960" on="0"/>
        <pt x="648" y="1030" on="0"/>
        <pt x="648" y="1079" on="1"/>
        <pt x="648" y="1128" on="0"/>
        <pt x="584" y="1198" on="0"/>
        <pt x="524" y="1198" on="1"/>
        <pt x="464" y="1198" on="0"/>
        <pt x="400" y="1128" on="0"/>
      </contour>
    </TTGlyph>
    <TTGlyph name="quotedbl" xMin="100" yMin="966" xMax="660" yMax="1456">
      <contour>
        <pt x="115" y="966" on="1"/>
        <pt x="265" y="966" on="1"/>
        <pt x="280" y="1320" on="1"/>
        <pt x="280" y="1456" on="1"/>
        <pt x="100" y="1456" on="1"/>
        <pt x="100" y="1320" on="1"/>
      </contour>
      <contour>
        <pt x="495" y="966" on="1"/>
        <pt x="645" y="966" on="1"/>
        <pt x="660" y="1320" on="1"/>
        <pt x="660" y="1456" on="1"/>
        <pt x="480" y="1456" on="1"/>
        <pt x="480" y="1320" on="1"/>
      </contour>
    </TTGlyph>
    <TTGlyph name="quotedblbase" xMin="40" yMin="-261" xMax="700" yMax="220">
      <contour>
        <pt x="40" y="-188" on="1"/>
        <pt x="145" y="-261" on="1"/>
        <pt x="224" y="-194" on="0"/>
        <pt x="320" y="-10" on="0"/>
        <pt x="320" y="100" on="1"/>
        <pt x="320" y="220" on="1"/>
        <pt x="140" y="220" on="1"/>
        <pt x="140" y="100" on="1"/>
        <pt x="140" y="10" on="0"/>
        <pt x="88" y="-124" on="0"/>
      </contour>
      <contour>
        <pt x="420" y="-188" on="1"/>
        <pt x="525" y="-261" on="1"/>
        <pt x="604" y="-194" on="0"/>
        <pt x="700" y="-10" on="0"/>
        <pt x="700" y="100" on="1"/>
        <pt x="700" y="220" on="1"/>
        <pt x="520" y="220" on="1"/>
        <pt x="520" y="100" on="1"/>
        <pt x="520" y="10" on="0"/>
        <pt x="468" y="-124" on="0"/>
      </contour>
    </TTGlyph>
    <TTGlyph name="quotedblleft" xMin="120" yMin="1055" xMax="780" yMax="1536">
      <contour>
        <pt x="120" y="1055" on="1"/>
        <pt x="300" y="1055" on="1"/>
        <pt x="300" y="1175" on="1"/>
        <pt x="300" y="1265" on="0"/>
        <pt x="352" y="1399" on="0"/>
        <pt x="400" y="1463" on="1"/>
        <pt x="295" y="1536" on="1"/>
        <pt x="216" y="1469" on="0"/>
        <pt x="120" y="1285" on="0"/>
        <pt x="120" y="1175" on="1"/>
      </contour>
      <contour>
        <pt x="500" y="1055" on="1"/>
        <pt x="680" y="1055" on="1"/>
        <pt x="680" y="1175" on="1"/>
        <pt x="680" y="1265" on="0"/>
        <pt x="732" y="1399" on="0"/>
        <pt x="780" y="1463" on="1"/>
        <pt x="675" y="1536" on="1"/>
        <pt x="596" y="1469" on="0"/>
        <pt x="500" y="1285" on="0"/>
        <pt x="500" y="1175" on="1"/>
      </contour>
    </TTGlyph>
    <TTGlyph name="quotedblright" xMin="40" yMin="975" xMax="700" yMax="1456">
      <contour>
        <pt x="40" y="1048" on="1"/>
        <pt x="145" y="975" on="1"/>
        <pt x="224" y="1042" on="0"/>
        <pt x="320" y="1226" on="0"/>
        <pt x="320" y="1336" on="1"/>
        <pt x="320" y="1456" on="1"/>
        <pt x="140" y="1456" on="1"/>
        <pt x="140" y="1336" on="1"/>
        <pt x="140" y="1246" on="0"/>
        <pt x="88" y="1112" on="0"/>
      </contour>
      <contour>
        <pt x="420" y="1048" on="1"/>
        <pt x="525" y="975" on="1"/>
        <pt x="604" y="1042" on="0"/>
        <pt x="700" y="1226" on="0"/>
        <pt x="700" y="1336" on="1"/>
        <pt x="700" y="1456" on="1"/>
        <pt x="520" y="1456" on="1"/>
        <pt x="520" y="1336" on="1"/>
        <pt x="520" y="1246" on="0"/>
        <pt x="468" y="1112" on="0"/>
      </contour>
    </TTGlyph>
    <TTGlyph name="quoteleft" xMin="120" yMin="1055" xMax="400" yMax="1536">
      <contour>
        <pt x="120" y="1055" on="1"/>
        <pt x="300" y="1055" on="1"/>
        <pt x="300" y="1175" on="1"/>
        <pt x="300" y="1265" on="0"/>
        <pt x="352" y="1399" on="0"/>
        <pt x="400" y="1463" on="1"/>
        <pt x="295" y="1536" on="1"/>
        <pt x="216" y="1469" on="0"/>
        <pt x="120" y="1285" on="0"/>
        <pt x="120" y="1175" on="1"/>
      </contour>
    </TTGlyph>
    <TTGlyph name="quoteright" xMin="40" yMin="975" xMax="320" yMax="1456">
      <contour>
        <pt x="40" y="1048" on="1"/>
        <pt x="145" y="975" on="1"/>
        <pt x="224" y="1042" on="0"/>
        <pt x="320" y="1226" on="0"/>
        <pt x="320" y="1336" on="1"/>
        <pt x="320" y="1456" on="1"/>
        <pt x="140" y="1456" on="1"/>
        <pt x="140" y="1336" on="1"/>
        <pt x="140" y="1246" on="0"/>
        <pt x="88" y="1112" on="0"/>
      </contour>
    </TTGlyph>
    <TTGlyph name="quotesinglbase" xMin="40" yMin="-261" xMax="320" yMax="220">
      <contour>
        <pt x="40" y="-188" on="1"/>
        <pt x="145" y="-261" on="1"/>
        <pt x="224" y="-194" on="0"/>
        <pt x="320" y="-10" on="0"/>
        <pt x="320" y="100" on="1"/>
        <pt x="320" y="220" on="1"/>
        <pt x="140" y="220" on="1"/>
        <pt x="140" y="100" on="1"/>
        <pt x="140" y="10" on="0"/>
        <pt x="88" y="-124" on="0"/>
      </contour>
    </TTGlyph>
    <TTGlyph name="quotesingle" xMin="100" yMin="966" xMax="300" yMax="1456">
      <contour>
        <pt x="125" y="966" on="1"/>
        <pt x="275" y="966" on="1"/>
        <pt x="300" y="1320" on="1"/>
        <pt x="300" y="1456" on="1"/>
        <pt x="100" y="1456" on="1"/>
        <pt x="100" y="1320" on="1"/>
      </contour>
    </TTGlyph>
    <TTGlyph name="r" xMin="148" yMin="0" xMax="670" yMax="1082">
      <contour>
        <pt x="148" y="0" on="1"/>
        <pt x="334" y="0" on="1"/>
        <pt x="334" y="740" on="1"/>
        <pt x="364" y="810" on="0"/>
        <pt x="490" y="904" on="0"/>
        <pt x="580" y="904" on="1"/>
        <pt x="606" y="904" on="0"/>
        <pt x="650" y="900" on="0"/>
        <pt x="670" y="896" on="1"/>
        <pt x="670" y="1068" on="1"/>
        <pt x="660" y="1072" on="0"/>
        <pt x="612" y="1082" on="0"/>
        <pt x="590" y="1082" on="1"/>
        <pt x="500" y="1082" on="0"/>
        <pt x="370" y="983" on="0"/>
        <pt x="330" y="917" on="1"/>
        <pt x="324" y="917" on="1"/>
        <pt x="316" y="1052" on="1"/>
        <pt x="148" y="1052" on="1"/>
      </contour>
    </TTGlyph>
    <TTGlyph name="registered" xMin="94" yMin="-82" xMax="1648" yMax="1478">
      <contour>
        <pt x="94" y="698" on="1"/>
        <pt x="94" y="364" on="0"/>
        <pt x="555" y="-82" on="0"/>
        <pt x="871" y="-82" on="1"/>
        <pt x="1187" y="-82" on="0"/>
        <pt x="1648" y="364" on="0"/>
        <pt x="1648" y="698" on="1"/>
        <pt x="1648" y="1032" on="0"/>
        <pt x="1187" y="1478" on="0"/>
        <pt x="871" y="1478" on="1"/>
        <pt x="555" y="1478" on="0"/>
        <pt x="94" y="1032" on="0"/>
      </contour>
      <contour>
        <pt x="248" y="698" on="1"/>
        <pt x="248" y="962" on="0"/>
        <pt x="605" y="1332" on="0"/>
        <pt x="871" y="1332" on="1"/>
        <pt x="1137" y="1332" on="0"/>
        <pt x="1494" y="962" on="0"/>
        <pt x="1494" y="698" on="1"/>
        <pt x="1494" y="434" on="0"/>
        <pt x="1137" y="64" on="0"/>
        <pt x="871" y="64" on="1"/>
        <pt x="605" y="64" on="0"/>
        <pt x="248" y="434" on="0"/>
      </contour>
      <contour>
        <pt x="572" y="284" on="1"/>
        <pt x="730" y="284" on="1"/>
        <pt x="730" y="592" on="1"/>
        <pt x="880" y="592" on="1"/>
        <pt x="1020" y="592" on="0"/>
        <pt x="1202" y="742" on="0"/>
        <pt x="1202" y="867" on="1"/>
        <pt x="1202" y="992" on="0"/>
        <pt x="1020" y="1132" on="0"/>
        <pt x="880" y="1132" on="1"/>
        <pt x="572" y="1132" on="1"/>
      </contour>
      <contour>
        <pt x="730" y="720" on="1"/>
        <pt x="730" y="1004" on="1"/>
        <pt x="880" y="1004" on="1"/>
        <pt x="960" y="1004" on="0"/>
        <pt x="1042" y="932" on="0"/>
        <pt x="1042" y="862" on="1"/>
        <pt x="1042" y="792" on="0"/>
        <pt x="960" y="720" on="0"/>
        <pt x="880" y="720" on="1"/>
      </contour>
      <contour>
        <pt x="1090" y="284" on="1"/>
        <pt x="1264" y="284" on="1"/>
        <pt x="1040" y="657" on="1"/>
        <pt x="874" y="657" on="1"/>
      </contour>
    </TTGlyph>
    <TTGlyph name="ring" xMin="272" yMin="1132" xMax="752" yMax="1590">
      <contour>
        <pt x="272" y="1361" on="1"/>
        <pt x="272" y="1262" on="0"/>
        <pt x="412" y="1132" on="0"/>
        <pt x="512" y="1132" on="1"/>
        <pt x="612" y="1132" on="0"/>
        <pt x="752" y="1262" on="0"/>
        <pt x="752" y="1361" on="1"/>
        <pt x="752" y="1460" on="0"/>
        <pt x="612" y="1590" on="0"/>
        <pt x="512" y="1590" on="1"/>
        <pt x="412" y="1590" on="0"/>
        <pt x="272" y="1460" on="0"/>
      </contour>
      <contour>
        <pt x="396" y="1361" on="1"/>
        <pt x="396" y="1412" on="0"/>
        <pt x="462" y="1478" on="0"/>
        <pt x="512" y="1478" on="1"/>
        <pt x="562" y="1478" on="0"/>
        <pt x="628" y="1412" on="0"/>
        <pt x="628" y="1361" on="1"/>
        <pt x="628" y="1310" on="0"/>
        <pt x="562" y="1244" on="0"/>
        <pt x="512" y="1244" on="1"/>
        <pt x="462" y="1244" on="0"/>
        <pt x="396" y="1310" on="0"/>
      </contour>
    </TTGlyph>
    <TTGlyph name="s" xMin="80" yMin="-30" xMax="930" yMax="1082">
      <contour>
        <pt x="80" y="310" on="1"/>
        <pt x="80" y="305" on="1"/>
        <pt x="80" y="153" on="0"/>
        <pt x="300" y="-30" on="0"/>
        <pt x="510" y="-30" on="1"/>
        <pt x="720" y="-30" on="0"/>
        <pt x="930" y="150" on="0"/>
        <pt x="930" y="290" on="1"/>
        <pt x="930" y="430" on="0"/>
        <pt x="745" y="580" on="0"/>
        <pt x="575" y="620" on="1"/>
        <pt x="405" y="660" on="0"/>
        <pt x="302" y="730" on="0"/>
        <pt x="302" y="790" on="1"/>
        <pt x="302" y="850" on="0"/>
        <pt x="400" y="930" on="0"/>
        <pt x="510" y="930" on="1"/>
        <pt x="620" y="930" on="0"/>
        <pt x="725" y="840" on="0"/>
        <pt x="725" y="760" on="1"/>
        <pt x="725" y="755" on="1"/>
        <pt x="910" y="755" on="1"/>
        <pt x="910" y="760" on="1"/>
        <pt x="910" y="900" on="0"/>
        <pt x="690" y="1082" on="0"/>
        <pt x="510" y="1082" on="1"/>
        <pt x="330" y="1082" on="0"/>
        <pt x="118" y="910" on="0"/>
        <pt x="118" y="780" on="1"/>
        <pt x="118" y="650" on="0"/>
        <pt x="305" y="505" on="0"/>
        <pt x="475" y="465" on="1"/>
        <pt x="645" y="425" on="0"/>
        <pt x="744" y="350" on="0"/>
        <pt x="744" y="280" on="1"/>
        <pt x="744" y="210" on="0"/>
        <pt x="620" y="122" on="0"/>
        <pt x="510" y="122" on="1"/>
        <pt x="400" y="122" on="0"/>
        <pt x="266" y="214" on="0"/>
        <pt x="266" y="305" on="1"/>
        <pt x="266" y="310" on="1"/>
      </contour>
    </TTGlyph>
    <TTGlyph name="section" xMin="100" yMin="-446" xMax="1139" yMax="1486">
      <contour>
        <pt x="129" y="576" on="1"/>
        <pt x="129" y="420" on="0"/>
        <pt x="319" y="251" on="0"/>
        <pt x="547" y="188" on="1"/>
        <pt x="776" y="127" on="0"/>
        <pt x="926" y="19" on="0"/>
        <pt x="926" y="-72" on="1"/>
        <pt x="926" y="-173" on="0"/>
        <pt x="762" y="-296" on="0"/>
        <pt x="609" y="-296" on="1"/>
        <pt x="455" y="-296" on="0"/>
        <pt x="284" y="-176" on="0"/>
        <pt x="284" y="-56" on="1"/>
        <pt x="284" y="-44" on="1"/>
        <pt x="100" y="-44" on="1"/>
        <pt x="100" y="-56" on="1"/>
        <pt x="100" y="-236" on="0"/>
        <pt x="378" y="-446" on="0"/>
        <pt x="609" y="-446" on="1"/>
        <pt x="839" y="-446" on="0"/>
        <pt x="1108" y="-236" on="0"/>
        <pt x="1108" y="-72" on="1"/>
        <pt x="1108" y="92" on="0"/>
        <pt x="904" y="273" on="0"/>
        <pt x="680" y="333" on="1"/>
        <pt x="455" y="394" on="0"/>
        <pt x="311" y="493" on="0"/>
        <pt x="311" y="576" on="1"/>
        <pt x="311" y="676" on="0"/>
        <pt x="451" y="787" on="0"/>
        <pt x="599" y="787" on="1"/>
        <pt x="400" y="900" on="1"/>
        <pt x="270" y="860" on="0"/>
        <pt x="129" y="693" on="0"/>
      </contour>
      <contour>
        <pt x="160" y="1125" on="1"/>
        <pt x="160" y="969" on="0"/>
        <pt x="350" y="800" on="0"/>
        <pt x="578" y="737" on="1"/>
        <pt x="807" y="676" on="0"/>
        <pt x="957" y="568" on="0"/>
        <pt x="957" y="477" on="1"/>
        <pt x="957" y="376" on="0"/>
        <pt x="793" y="253" on="0"/>
        <pt x="640" y="253" on="1"/>
        <pt x="900" y="150" on="1"/>
        <pt x="1010" y="195" on="0"/>
        <pt x="1139" y="366" on="0"/>
        <pt x="1139" y="477" on="1"/>
        <pt x="1139" y="641" on="0"/>
        <pt x="935" y="822" on="0"/>
        <pt x="711" y="882" on="1"/>
        <pt x="486" y="943" on="0"/>
        <pt x="342" y="1042" on="0"/>
        <pt x="342" y="1125" on="1"/>
        <pt x="342" y="1225" on="0"/>
        <pt x="482" y="1336" on="0"/>
        <pt x="630" y="1336" on="1"/>
        <pt x="778" y="1336" on="0"/>
        <pt x="928" y="1207" on="0"/>
        <pt x="928" y="1101" on="1"/>
        <pt x="928" y="1090" on="1"/>
        <pt x="1112" y="1090" on="1"/>
        <pt x="1112" y="1101" on="1"/>
        <pt x="1112" y="1262" on="0"/>
        <pt x="851" y="1486" on="0"/>
        <pt x="630" y="1486" on="1"/>
        <pt x="409" y="1486" on="0"/>
        <pt x="160" y="1280" on="0"/>
      </contour>
    </TTGlyph>
    <TTGlyph name="semicolon" xMin="120" yMin="-291" xMax="424" yMax="1068">
      <contour>
        <pt x="120" y="-218" on="1"/>
        <pt x="225" y="-291" on="1"/>
        <pt x="304" y="-224" on="0"/>
        <pt x="400" y="-40" on="0"/>
        <pt x="400" y="70" on="1"/>
        <pt x="400" y="220" on="1"/>
        <pt x="220" y="220" on="1"/>
        <pt x="220" y="70" on="1"/>
        <pt x="220" y="-20" on="0"/>
        <pt x="168" y="-154" on="0"/>
      </contour>
      <contour>
        <pt x="176" y="949" on="1"/>
        <pt x="176" y="900" on="0"/>
        <pt x="240" y="830" on="0"/>
        <pt x="300" y="830" on="1"/>
        <pt x="360" y="830" on="0"/>
        <pt x="424" y="900" on="0"/>
        <pt x="424" y="949" on="1"/>
        <pt x="424" y="998" on="0"/>
        <pt x="360" y="1068" on="0"/>
        <pt x="300" y="1068" on="1"/>
        <pt x="240" y="1068" on="0"/>
        <pt x="176" y="998" on="0"/>
      </contour>
    </TTGlyph>
    <TTGlyph name="seven" xMin="78" yMin="0" xMax="1052" yMax="1456">
      <contour>
        <pt x="294" y="0" on="1"/>
        <pt x="490" y="0" on="1"/>
        <pt x="1052" y="1352" on="1"/>
        <pt x="1052" y="1456" on="1"/>
        <pt x="78" y="1456" on="1"/>
        <pt x="78" y="1300" on="1"/>
        <pt x="854" y="1300" on="1"/>
      </contour>
    </TTGlyph>
    <TTGlyph name="seven.pnum" xMin="20" yMin="0" xMax="920" yMax="1456">
      <contour>
        <pt x="162" y="0" on="1"/>
        <pt x="358" y="0" on="1"/>
        <pt x="920" y="1352" on="1"/>
        <pt x="920" y="1456" on="1"/>
        <pt x="20" y="1456" on="1"/>
        <pt x="20" y="1300" on="1"/>
        <pt x="722" y="1300" on="1"/>
      </contour>
    </TTGlyph>
    <TTGlyph name="six" xMin="88" yMin="-30" xMax="1084" yMax="1486">
      <contour>
        <pt x="88" y="614" on="1"/>
        <pt x="88" y="274" on="0"/>
        <pt x="390" y="-30" on="0"/>
        <pt x="600" y="-30" on="1"/>
        <pt x="810" y="-30" on="0"/>
        <pt x="1084" y="244" on="0"/>
        <pt x="1084" y="464" on="1"/>
        <pt x="1084" y="684" on="0"/>
        <pt x="840" y="956" on="0"/>
        <pt x="640" y="956" on="1"/>
        <pt x="440" y="956" on="0"/>
        <pt x="200" y="684" on="0"/>
        <pt x="200" y="464" on="1"/>
        <pt x="270" y="464" on="1"/>
        <pt x="270" y="624" on="0"/>
        <pt x="470" y="798" on="0"/>
        <pt x="600" y="798" on="1"/>
        <pt x="740" y="798" on="0"/>
        <pt x="894" y="624" on="0"/>
        <pt x="894" y="464" on="1"/>
        <pt x="894" y="304" on="0"/>
        <pt x="740" y="128" on="0"/>
        <pt x="600" y="128" on="1"/>
        <pt x="460" y="128" on="0"/>
        <pt x="276" y="344" on="0"/>
        <pt x="276" y="604" on="1"/>
        <pt x="276" y="654" on="1"/>
        <pt x="276" y="1004" on="0"/>
        <pt x="600" y="1328" on="0"/>
        <pt x="880" y="1328" on="1"/>
        <pt x="900" y="1328" on="1"/>
        <pt x="900" y="1486" on="1"/>
        <pt x="880" y="1486" on="1"/>
        <pt x="500" y="1486" on="0"/>
        <pt x="88" y="1024" on="0"/>
        <pt x="88" y="644" on="1"/>
      </contour>
    </TTGlyph>
    <TTGlyph name="six.pnum" xMin="88" yMin="-30" xMax="1084" yMax="1486">
      <contour>
        <pt x="88" y="614" on="1"/>
        <pt x="88" y="274" on="0"/>
        <pt x="390" y="-30" on="0"/>
        <pt x="600" y="-30" on="1"/>
        <pt x="810" y="-30" on="0"/>
        <pt x="1084" y="244" on="0"/>
        <pt x="1084" y="464" on="1"/>
        <pt x="1084" y="684" on="0"/>
        <pt x="840" y="956" on="0"/>
        <pt x="640" y="956" on="1"/>
        <pt x="440" y="956" on="0"/>
        <pt x="200" y="684" on="0"/>
        <pt x="200" y="464" on="1"/>
        <pt x="270" y="464" on="1"/>
        <pt x="270" y="624" on="0"/>
        <pt x="470" y="798" on="0"/>
        <pt x="600" y="798" on="1"/>
        <pt x="740" y="798" on="0"/>
        <pt x="894" y="624" on="0"/>
        <pt x="894" y="464" on="1"/>
        <pt x="894" y="304" on="0"/>
        <pt x="740" y="128" on="0"/>
        <pt x="600" y="128" on="1"/>
        <pt x="460" y="128" on="0"/>
        <pt x="276" y="344" on="0"/>
        <pt x="276" y="604" on="1"/>
        <pt x="276" y="654" on="1"/>
        <pt x="276" y="1004" on="0"/>
        <pt x="600" y="1328" on="0"/>
        <pt x="880" y="1328" on="1"/>
        <pt x="900" y="1328" on="1"/>
        <pt x="900" y="1486" on="1"/>
        <pt x="880" y="1486" on="1"/>
        <pt x="500" y="1486" on="0"/>
        <pt x="88" y="1024" on="0"/>
        <pt x="88" y="644" on="1"/>
      </contour>
    </TTGlyph>
    <TTGlyph name="slash" xMin="-100" yMin="-125" xMax="684" yMax="1456">
      <contour>
        <pt x="-100" y="-125" on="1"/>
        <pt x="76" y="-125" on="1"/>
        <pt x="684" y="1456" on="1"/>
        <pt x="508" y="1456" on="1"/>
      </contour>
    </TTGlyph>
    <TTGlyph name="sterling" xMin="80" yMin="0" xMax="1080" yMax="1476">
      <contour>
        <pt x="100" y="0" on="1"/>
        <pt x="1080" y="0" on="1"/>
        <pt x="1080" y="156" on="1"/>
        <pt x="360" y="156" on="1"/>
        <pt x="420" y="200" on="0"/>
        <pt x="480" y="340" on="0"/>
        <pt x="480" y="440" on="1"/>
        <pt x="480" y="580" on="0"/>
        <pt x="396" y="930" on="0"/>
        <pt x="396" y="1060" on="1"/>
        <pt x="396" y="1190" on="0"/>
        <pt x="515" y="1314" on="0"/>
        <pt x="635" y="1314" on="1"/>
        <pt x="755" y="1314" on="0"/>
        <pt x="880" y="1190" on="0"/>
        <pt x="880" y="1065" on="1"/>
        <pt x="880" y="1045" on="1"/>
        <pt x="1065" y="1045" on="1"/>
        <pt x="1065" y="1065" on="1"/>
        <pt x="1065" y="1250" on="0"/>
        <pt x="834" y="1476" on="0"/>
        <pt x="635" y="1476" on="1"/>
        <pt x="436" y="1476" on="0"/>
        <pt x="210" y="1250" on="0"/>
        <pt x="210" y="1060" on="1"/>
        <pt x="210" y="890" on="0"/>
        <pt x="300" y="560" on="0"/>
        <pt x="300" y="400" on="1"/>
        <pt x="300" y="300" on="0"/>
        <pt x="200" y="160" on="0"/>
        <pt x="100" y="150" on="1"/>
      </contour>
      <contour>
        <pt x="80" y="640" on="1"/>
        <pt x="880" y="640" on="1"/>
        <pt x="880" y="796" on="1"/>
        <pt x="80" y="796" on="1"/>
      </contour>
    </TTGlyph>
    <TTGlyph name="t" xMin="0" yMin="-30" xMax="600" yMax="1312">
      <contour>
        <pt x="0" y="910" on="1"/>
        <pt x="600" y="910" on="1"/>
        <pt x="600" y="1052" on="1"/>
        <pt x="0" y="1052" on="1"/>
      </contour>
      <contour>
        <pt x="188" y="260" on="1"/>
        <pt x="188" y="110" on="0"/>
        <pt x="325" y="-30" on="0"/>
        <pt x="440" y="-30" on="1"/>
        <pt x="490" y="-30" on="0"/>
        <pt x="574" y="-12" on="0"/>
        <pt x="600" y="0" on="1"/>
        <pt x="600" y="152" on="1"/>
        <pt x="572" y="142" on="0"/>
        <pt x="518" y="130" on="0"/>
        <pt x="490" y="130" on="1"/>
        <pt x="430" y="130" on="0"/>
        <pt x="374" y="190" on="0"/>
        <pt x="374" y="260" on="1"/>
        <pt x="374" y="1312" on="1"/>
        <pt x="188" y="1312" on="1"/>
        <pt x="188" y="996" on="1"/>
        <pt x="188" y="966" on="1"/>
      </contour>
    </TTGlyph>
    <TTGlyph name="thorn" xMin="148" yMin="-416" xMax="1085" yMax="1536">
      <contour>
        <pt x="148" y="-416" on="1"/>
        <pt x="334" y="-416" on="1"/>
        <pt x="334" y="124" on="1"/>
        <pt x="380" y="59" on="0"/>
        <pt x="535" y="-20" on="0"/>
        <pt x="645" y="-20" on="1"/>
        <pt x="845" y="-20" on="0"/>
        <pt x="1085" y="280" on="0"/>
        <pt x="1085" y="510" on="1"/>
        <pt x="1085" y="542" on="1"/>
        <pt x="1085" y="772" on="0"/>
        <pt x="845" y="1072" on="0"/>
        <pt x="645" y="1072" on="1"/>
        <pt x="535" y="1072" on="0"/>
        <pt x="370" y="980" on="0"/>
        <pt x="334" y="925" on="1"/>
        <pt x="334" y="1536" on="1"/>
        <pt x="148" y="1536" on="1"/>
      </contour>
      <contour>
        <pt x="334" y="312" on="1"/>
        <pt x="334" y="740" on="1"/>
        <pt x="365" y="810" on="0"/>
        <pt x="505" y="920" on="0"/>
        <pt x="605" y="920" on="1"/>
        <pt x="755" y="920" on="0"/>
        <pt x="895" y="702" on="0"/>
        <pt x="895" y="542" on="1"/>
        <pt x="895" y="510" on="1"/>
        <pt x="895" y="350" on="0"/>
        <pt x="755" y="132" on="0"/>
        <pt x="605" y="132" on="1"/>
        <pt x="505" y="132" on="0"/>
        <pt x="365" y="242" on="0"/>
      </contour>
    </TTGlyph>
    <TTGlyph name="three" xMin="80" yMin="-30" xMax="1042" yMax="1486">
      <contour>
        <pt x="80" y="380" on="1"/>
        <pt x="80" y="200" on="0"/>
        <pt x="348" y="-30" on="0"/>
        <pt x="558" y="-30" on="1"/>
        <pt x="768" y="-30" on="0"/>
        <pt x="1042" y="200" on="0"/>
        <pt x="1042" y="401" on="1"/>
        <pt x="1042" y="540" on="0"/>
        <pt x="890" y="730" on="0"/>
        <pt x="764" y="762" on="1"/>
        <pt x="764" y="766" on="1"/>
        <pt x="880" y="816" on="0"/>
        <pt x="990" y="1000" on="0"/>
        <pt x="990" y="1100" on="1"/>
        <pt x="990" y="1270" on="0"/>
        <pt x="748" y="1486" on="0"/>
        <pt x="558" y="1486" on="1"/>
        <pt x="368" y="1486" on="0"/>
        <pt x="120" y="1260" on="0"/>
        <pt x="120" y="1100" on="1"/>
        <pt x="120" y="1090" on="1"/>
        <pt x="306" y="1090" on="1"/>
        <pt x="306" y="1100" on="1"/>
        <pt x="306" y="1210" on="0"/>
        <pt x="448" y="1328" on="0"/>
        <pt x="558" y="1328" on="1"/>
        <pt x="668" y="1328" on="0"/>
        <pt x="798" y="1210" on="0"/>
        <pt x="798" y="1090" on="1"/>
        <pt x="798" y="970" on="0"/>
        <pt x="648" y="836" on="0"/>
        <pt x="510" y="836" on="1"/>
        <pt x="405" y="836" on="1"/>
        <pt x="405" y="682" on="1"/>
        <pt x="520" y="682" on="1"/>
        <pt x="670" y="682" on="0"/>
        <pt x="848" y="540" on="0"/>
        <pt x="848" y="400" on="1"/>
        <pt x="848" y="260" on="0"/>
        <pt x="690" y="128" on="0"/>
        <pt x="558" y="128" on="1"/>
        <pt x="426" y="128" on="0"/>
        <pt x="266" y="260" on="0"/>
        <pt x="266" y="380" on="1"/>
        <pt x="266" y="390" on="1"/>
        <pt x="80" y="390" on="1"/>
      </contour>
    </TTGlyph>
    <TTGlyph name="three.inferior" xMin="63" yMin="-378" xMax="667" yMax="433">
      <contour>
        <pt x="266" y="92" on="1"/>
        <pt x="266" y="14" on="1"/>
        <pt x="377" y="14" on="1"/>
        <pt x="508" y="14" on="0"/>
        <pt x="653" y="130" on="0"/>
        <pt x="653" y="209" on="1"/>
        <pt x="653" y="318" on="0"/>
        <pt x="490" y="433" on="0"/>
        <pt x="360" y="433" on="1"/>
        <pt x="241" y="433" on="0"/>
        <pt x="74" y="313" on="0"/>
        <pt x="74" y="212" on="1"/>
        <pt x="231" y="212" on="1"/>
        <pt x="231" y="255" on="0"/>
        <pt x="306" y="305" on="0"/>
        <pt x="363" y="305" on="1"/>
        <pt x="432" y="305" on="0"/>
        <pt x="496" y="245" on="0"/>
        <pt x="496" y="201" on="1"/>
        <pt x="496" y="153" on="0"/>
        <pt x="422" y="92" on="0"/>
        <pt x="350" y="92" on="1"/>
      </contour>
      <contour>
        <pt x="266" y="-23" on="1"/>
        <pt x="350" y="-23" on="1"/>
        <pt x="423" y="-23" on="0"/>
        <pt x="509" y="-76" on="0"/>
        <pt x="509" y="-139" on="1"/>
        <pt x="509" y="-188" on="0"/>
        <pt x="435" y="-250" on="0"/>
        <pt x="366" y="-250" on="1"/>
        <pt x="300" y="-250" on="0"/>
        <pt x="220" y="-189" on="0"/>
        <pt x="220" y="-144" on="1"/>
        <pt x="63" y="-144" on="1"/>
        <pt x="63" y="-266" on="0"/>
        <pt x="248" y="-378" on="0"/>
        <pt x="361" y="-378" on="1"/>
        <pt x="491" y="-378" on="0"/>
        <pt x="667" y="-257" on="0"/>
        <pt x="667" y="-147" on="1"/>
        <pt x="667" y="-51" on="0"/>
        <pt x="526" y="55" on="0"/>
        <pt x="377" y="55" on="1"/>
        <pt x="266" y="55" on="1"/>
      </contour>
    </TTGlyph>
    <TTGlyph name="three.pnum" xMin="50" yMin="-30" xMax="1012" yMax="1486">
      <contour>
        <pt x="50" y="380" on="1"/>
        <pt x="50" y="200" on="0"/>
        <pt x="318" y="-30" on="0"/>
        <pt x="528" y="-30" on="1"/>
        <pt x="738" y="-30" on="0"/>
        <pt x="1012" y="200" on="0"/>
        <pt x="1012" y="401" on="1"/>
        <pt x="1012" y="540" on="0"/>
        <pt x="860" y="730" on="0"/>
        <pt x="734" y="762" on="1"/>
        <pt x="734" y="766" on="1"/>
        <pt x="850" y="816" on="0"/>
        <pt x="960" y="1000" on="0"/>
        <pt x="960" y="1100" on="1"/>
        <pt x="960" y="1270" on="0"/>
        <pt x="718" y="1486" on="0"/>
        <pt x="528" y="1486" on="1"/>
        <pt x="338" y="1486" on="0"/>
        <pt x="90" y="1260" on="0"/>
        <pt x="90" y="1100" on="1"/>
        <pt x="90" y="1090" on="1"/>
        <pt x="276" y="1090" on="1"/>
        <pt x="276" y="1100" on="1"/>
        <pt x="276" y="1210" on="0"/>
        <pt x="418" y="1328" on="0"/>
        <pt x="528" y="1328" on="1"/>
        <pt x="638" y="1328" on="0"/>
        <pt x="768" y="1210" on="0"/>
        <pt x="768" y="1090" on="1"/>
        <pt x="768" y="970" on="0"/>
        <pt x="618" y="836" on="0"/>
        <pt x="480" y="836" on="1"/>
        <pt x="375" y="836" on="1"/>
        <pt x="375" y="682" on="1"/>
        <pt x="490" y="682" on="1"/>
        <pt x="640" y="682" on="0"/>
        <pt x="818" y="540" on="0"/>
        <pt x="818" y="400" on="1"/>
        <pt x="818" y="260" on="0"/>
        <pt x="660" y="128" on="0"/>
        <pt x="528" y="128" on="1"/>
        <pt x="396" y="128" on="0"/>
        <pt x="236" y="260" on="0"/>
        <pt x="236" y="380" on="1"/>
        <pt x="236" y="390" on="1"/>
        <pt x="50" y="390" on="1"/>
      </contour>
    </TTGlyph>
    <TTGlyph name="threequarters" xMin="437" yMin="-22" xMax="1462" yMax="1494">
      <component glyphName="fraction" x="407" y="8" flags="0x4"/>
    </TTGlyph>
    <TTGlyph name="threesuperior" xMin="63" yMin="656" xMax="667" yMax="1467">
      <contour>
        <pt x="266" y="1126" on="1"/>
        <pt x="266" y="1048" on="1"/>
        <pt x="377" y="1048" on="1"/>
        <pt x="508" y="1048" on="0"/>
        <pt x="653" y="1164" on="0"/>
        <pt x="653" y="1243" on="1"/>
        <pt x="653" y="1352" on="0"/>
        <pt x="490" y="1467" on="0"/>
        <pt x="360" y="1467" on="1"/>
        <pt x="241" y="1467" on="0"/>
        <pt x="74" y="1347" on="0"/>
        <pt x="74" y="1246" on="1"/>
        <pt x="231" y="1246" on="1"/>
        <pt x="231" y="1289" on="0"/>
        <pt x="306" y="1339" on="0"/>
        <pt x="363" y="1339" on="1"/>
        <pt x="432" y="1339" on="0"/>
        <pt x="496" y="1279" on="0"/>
        <pt x="496" y="1235" on="1"/>
        <pt x="496" y="1187" on="0"/>
        <pt x="422" y="1126" on="0"/>
        <pt x="350" y="1126" on="1"/>
      </contour>
      <contour>
        <pt x="266" y="1011" on="1"/>
        <pt x="350" y="1011" on="1"/>
        <pt x="423" y="1011" on="0"/>
        <pt x="509" y="958" on="0"/>
        <pt x="509" y="895" on="1"/>
        <pt x="509" y="846" on="0"/>
        <pt x="435" y="784" on="0"/>
        <pt x="366" y="784" on="1"/>
        <pt x="300" y="784" on="0"/>
        <pt x="220" y="845" on="0"/>
        <pt x="220" y="890" on="1"/>
        <pt x="63" y="890" on="1"/>
        <pt x="63" y="768" on="0"/>
        <pt x="248" y="656" on="0"/>
        <pt x="361" y="656" on="1"/>
        <pt x="491" y="656" on="0"/>
        <pt x="667" y="777" on="0"/>
        <pt x="667" y="887" on="1"/>
        <pt x="667" y="983" on="0"/>
        <pt x="526" y="1089" on="0"/>
        <pt x="377" y="1089" on="1"/>
        <pt x="266" y="1089" on="1"/>
      </contour>
    </TTGlyph>
    <TTGlyph name="tilde" xMin="160" yMin="1148" xMax="866" yMax="1412">
      <contour>
        <pt x="160" y="1154" on="1"/>
        <pt x="284" y="1148" on="1"/>
        <pt x="284" y="1196" on="0"/>
        <pt x="330" y="1258" on="0"/>
        <pt x="380" y="1258" on="1"/>
        <pt x="430" y="1258" on="0"/>
        <pt x="576" y="1160" on="0"/>
        <pt x="656" y="1160" on="1"/>
        <pt x="746" y="1160" on="0"/>
        <pt x="866" y="1300" on="0"/>
        <pt x="866" y="1406" on="1"/>
        <pt x="742" y="1412" on="1"/>
        <pt x="742" y="1364" on="0"/>
        <pt x="696" y="1302" on="0"/>
        <pt x="646" y="1302" on="1"/>
        <pt x="596" y="1302" on="0"/>
        <pt x="450" y="1400" on="0"/>
        <pt x="370" y="1400" on="1"/>
        <pt x="280" y="1400" on="0"/>
        <pt x="160" y="1260" on="0"/>
      </contour>
    </TTGlyph>
    <TTGlyph name="trademark" xMin="70" yMin="820" xMax="1486" yMax="1456">
      <contour>
        <pt x="276" y="820" on="1"/>
        <pt x="434" y="820" on="1"/>
        <pt x="434" y="1316" on="1"/>
        <pt x="640" y="1316" on="1"/>
        <pt x="640" y="1456" on="1"/>
        <pt x="70" y="1456" on="1"/>
        <pt x="70" y="1316" on="1"/>
        <pt x="276" y="1316" on="1"/>
      </contour>
      <contour>
        <pt x="710" y="820" on="1"/>
        <pt x="840" y="820" on="1"/>
        <pt x="840" y="1290" on="1"/>
        <pt x="1022" y="820" on="1"/>
        <pt x="1164" y="820" on="1"/>
        <pt x="1346" y="1290" on="1"/>
        <pt x="1346" y="820" on="1"/>
        <pt x="1486" y="820" on="1"/>
        <pt x="1486" y="1456" on="1"/>
        <pt x="1278" y="1456" on="1"/>
        <pt x="1098" y="985" on="1"/>
        <pt x="918" y="1456" on="1"/>
        <pt x="710" y="1456" on="1"/>
      </contour>
    </TTGlyph>
    <TTGlyph name="two" xMin="110" yMin="0" xMax="1070" yMax="1486">
      <contour>
        <pt x="110" y="0" on="1"/>
        <pt x="1070" y="0" on="1"/>
        <pt x="1070" y="156" on="1"/>
        <pt x="340" y="156" on="1"/>
        <pt x="755" y="595" on="1"/>
        <pt x="870" y="716" on="0"/>
        <pt x="1030" y="948" on="0"/>
        <pt x="1030" y="1090" on="1"/>
        <pt x="1030" y="1250" on="0"/>
        <pt x="785" y="1486" on="0"/>
        <pt x="585" y="1486" on="1"/>
        <pt x="385" y="1486" on="0"/>
        <pt x="110" y="1230" on="0"/>
        <pt x="110" y="1030" on="1"/>
        <pt x="110" y="1020" on="1"/>
        <pt x="300" y="1020" on="1"/>
        <pt x="300" y="1030" on="1"/>
        <pt x="300" y="1170" on="0"/>
        <pt x="465" y="1328" on="0"/>
        <pt x="585" y="1328" on="1"/>
        <pt x="705" y="1328" on="0"/>
        <pt x="840" y="1180" on="0"/>
        <pt x="840" y="1080" on="1"/>
        <pt x="840" y="980" on="0"/>
        <pt x="734" y="810" on="0"/>
        <pt x="630" y="700" on="1"/>
        <pt x="110" y="140" on="1"/>
      </contour>
    </TTGlyph>
    <TTGlyph name="two.inferior" xMin="66" yMin="-367" xMax="683" yMax="433">
      <contour>
        <pt x="683" y="-239" on="1"/>
        <pt x="285" y="-239" on="1"/>
        <pt x="460" y="-93" on="1"/>
        <pt x="547" y="-14" on="0"/>
        <pt x="652" y="117" on="0"/>
        <pt x="652" y="197" on="1"/>
        <pt x="652" y="305" on="0"/>
        <pt x="500" y="433" on="0"/>
        <pt x="366" y="433" on="1"/>
        <pt x="226" y="433" on="0"/>
        <pt x="66" y="279" on="0"/>
        <pt x="66" y="172" on="1"/>
        <pt x="224" y="172" on="1"/>
        <pt x="224" y="229" on="0"/>
        <pt x="295" y="305" on="0"/>
        <pt x="370" y="305" on="1"/>
        <pt x="429" y="305" on="0"/>
        <pt x="493" y="243" on="0"/>
        <pt x="493" y="195" on="1"/>
        <pt x="493" y="162" on="0"/>
        <pt x="440" y="74" on="0"/>
        <pt x="373" y="12" on="1"/>
        <pt x="85" y="-259" on="1"/>
        <pt x="85" y="-367" on="1"/>
        <pt x="683" y="-367" on="1"/>
      </contour>
    </TTGlyph>
    <TTGlyph name="two.pnum" xMin="70" yMin="0" xMax="1030" yMax="1486">
      <contour>
        <pt x="70" y="0" on="1"/>
        <pt x="1030" y="0" on="1"/>
        <pt x="1030" y="156" on="1"/>
        <pt x="300" y="156" on="1"/>
        <pt x="715" y="595" on="1"/>
        <pt x="830" y="716" on="0"/>
        <pt x="990" y="948" on="0"/>
        <pt x="990" y="1090" on="1"/>
        <pt x="990" y="1250" on="0"/>
        <pt x="745" y="1486" on="0"/>
        <pt x="545" y="1486" on="1"/>
        <pt x="345" y="1486" on="0"/>
        <pt x="70" y="1230" on="0"/>
        <pt x="70" y="1030" on="1"/>
        <pt x="70" y="1020" on="1"/>
        <pt x="260" y="1020" on="1"/>
        <pt x="260" y="1030" on="1"/>
        <pt x="260" y="1170" on="0"/>
        <pt x="425" y="1328" on="0"/>
        <pt x="545" y="1328" on="1"/>
        <pt x="665" y="1328" on="0"/>
        <pt x="800" y="1180" on="0"/>
        <pt x="800" y="1080" on="1"/>
        <pt x="800" y="980" on="0"/>
        <pt x="694" y="810" on="0"/>
        <pt x="590" y="700" on="1"/>
        <pt x="70" y="140" on="1"/>
      </contour>
    </TTGlyph>
    <TTGlyph name="twosuperior" xMin="66" yMin="667" xMax="683" yMax="1467">
      <contour>
        <pt x="683" y="795" on="1"/>
        <pt x="285" y="795" on="1"/>
        <pt x="460" y="941" on="1"/>
        <pt x="547" y="1020" on="0"/>
        <pt x="652" y="1151" on="0"/>
        <pt x="652" y="1231" on="1"/>
        <pt x="652" y="1339" on="0"/>
        <pt x="500" y="1467" on="0"/>
        <pt x="366" y="1467" on="1"/>
        <pt x="226" y="1467" on="0"/>
        <pt x="66" y="1313" on="0"/>
        <pt x="66" y="1206" on="1"/>
        <pt x="224" y="1206" on="1"/>
        <pt x="224" y="1263" on="0"/>
        <pt x="295" y="1339" on="0"/>
        <pt x="370" y="1339" on="1"/>
        <pt x="429" y="1339" on="0"/>
        <pt x="493" y="1277" on="0"/>
        <pt x="493" y="1229" on="1"/>
        <pt x="493" y="1196" on="0"/>
        <pt x="440" y="1108" on="0"/>
        <pt x="373" y="1046" on="1"/>
        <pt x="85" y="775" on="1"/>
        <pt x="85" y="667" on="1"/>
        <pt x="683" y="667" on="1"/>
      </contour>
    </TTGlyph>
    <TTGlyph name="u" xMin="138" yMin="-20" xMax="990" yMax="1052">
      <contour>
        <pt x="138" y="373" on="1"/>
        <pt x="138" y="161" on="0"/>
        <pt x="327" y="-20" on="0"/>
        <pt x="486" y="-20" on="1"/>
        <pt x="586" y="-20" on="0"/>
        <pt x="751" y="63" on="0"/>
        <pt x="808" y="135" on="1"/>
        <pt x="814" y="135" on="1"/>
        <pt x="822" y="0" on="1"/>
        <pt x="990" y="0" on="1"/>
        <pt x="990" y="1052" on="1"/>
        <pt x="804" y="1052" on="1"/>
        <pt x="804" y="308" on="1"/>
        <pt x="766" y="232" on="0"/>
        <pt x="630" y="136" on="0"/>
        <pt x="541" y="136" on="1"/>
        <pt x="437" y="136" on="0"/>
        <pt x="324" y="245" on="0"/>
        <pt x="324" y="371" on="1"/>
        <pt x="324" y="1052" on="1"/>
        <pt x="138" y="1052" on="1"/>
      </contour>
    </TTGlyph>
    <TTGlyph name="uacute" xMin="138" yMin="-20" xMax="990" yMax="1456">
      <component glyphName="u" x="0" y="0" flags="0x204"/>
      <component glyphName="acute" x="52" y="0" flags="0x4"/>
    </TTGlyph>
    <TTGlyph name="ucircumflex" xMin="138" yMin="-20" xMax="990" yMax="1456">
      <component glyphName="u" x="0" y="0" flags="0x204"/>
      <component glyphName="circumflex" x="52" y="0" flags="0x4"/>
    </TTGlyph>
    <TTGlyph name="udieresis" xMin="138" yMin="-20" xMax="990" yMax="1368">
      <component glyphName="u" x="0" y="0" flags="0x204"/>
      <component glyphName="dieresis" x="52" y="0" flags="0x4"/>
    </TTGlyph>
    <TTGlyph name="ugrave" xMin="138" yMin="-20" xMax="990" yMax="1456">
      <component glyphName="u" x="0" y="0" flags="0x204"/>
      <component glyphName="grave" x="52" y="0" flags="0x4"/>
    </TTGlyph>
    <TTGlyph name="underscore" xMin="0" yMin="-266" xMax="924" yMax="-100">
      <contour>
        <pt x="0" y="-266" on="1"/>
        <pt x="308" y="-266" on="1"/>
        <pt x="308" y="-100" on="1"/>
        <pt x="0" y="-100" on="1"/>
      </contour>
      <contour>
        <pt x="308" y="-266" on="1"/>
        <pt x="616" y="-266" on="1"/>
        <pt x="616" y="-100" on="1"/>
        <pt x="308" y="-100" on="1"/>
      </contour>
      <contour>
        <pt x="616" y="-266" on="1"/>
        <pt x="924" y="-266" on="1"/>
        <pt x="924" y="-100" on="1"/>
        <pt x="616" y="-100" on="1"/>
      </contour>
    </TTGlyph>
    <TTGlyph name="v" xMin="0" yMin="0" xMax="942" yMax="1052">
      <contour>
        <pt x="0" y="1052" on="1"/>
        <pt x="400" y="0" on="1"/>
        <pt x="542" y="0" on="1"/>
        <pt x="942" y="1052" on="1"/>
        <pt x="766" y="1052" on="1"/>
        <pt x="514" y="360" on="1"/>
        <pt x="499" y="320" on="0"/>
        <pt x="480" y="240" on="0"/>
        <pt x="476" y="200" on="1"/>
        <pt x="470" y="200" on="1"/>
        <pt x="466" y="240" on="0"/>
        <pt x="447" y="320" on="0"/>
        <pt x="432" y="360" on="1"/>
        <pt x="180" y="1052" on="1"/>
      </contour>
    </TTGlyph>
    <TTGlyph name="w" xMin="25" yMin="0" xMax="1521" yMax="1052">
      <contour>
        <pt x="25" y="1052" on="1"/>
        <pt x="350" y="0" on="1"/>
        <pt x="495" y="0" on="1"/>
        <pt x="724" y="680" on="1"/>
        <pt x="737" y="720" on="0"/>
        <pt x="760" y="800" on="0"/>
        <pt x="770" y="840" on="1"/>
        <pt x="776" y="840" on="1"/>
        <pt x="786" y="800" on="0"/>
        <pt x="809" y="720" on="0"/>
        <pt x="822" y="680" on="1"/>
        <pt x="1051" y="0" on="1"/>
        <pt x="1196" y="0" on="1"/>
        <pt x="1521" y="1052" on="1"/>
        <pt x="1351" y="1052" on="1"/>
        <pt x="1161" y="360" on="1"/>
        <pt x="1150" y="320" on="0"/>
        <pt x="1129" y="240" on="0"/>
        <pt x="1125" y="200" on="1"/>
        <pt x="1119" y="200" on="1"/>
        <pt x="1115" y="240" on="0"/>
        <pt x="1096" y="320" on="0"/>
        <pt x="1083" y="360" on="1"/>
        <pt x="856" y="1052" on="1"/>
        <pt x="700" y="1052" on="1"/>
        <pt x="473" y="360" on="1"/>
        <pt x="460" y="320" on="0"/>
        <pt x="441" y="240" on="0"/>
        <pt x="437" y="200" on="1"/>
        <pt x="431" y="200" on="1"/>
        <pt x="427" y="240" on="0"/>
        <pt x="406" y="320" on="0"/>
        <pt x="395" y="360" on="1"/>
        <pt x="205" y="1052" on="1"/>
      </contour>
    </TTGlyph>
    <TTGlyph name="won" xMin="20" yMin="-10" xMax="1402" yMax="1456">
      <contour>
        <pt x="336" y="-10" on="1"/>
        <pt x="512" y="-10" on="1"/>
        <pt x="671" y="470" on="1"/>
        <pt x="682" y="502" on="0"/>
        <pt x="700" y="565" on="0"/>
        <pt x="706" y="598" on="1"/>
        <pt x="710" y="598" on="1"/>
        <pt x="716" y="565" on="0"/>
        <pt x="734" y="502" on="0"/>
        <pt x="745" y="470" on="1"/>
        <pt x="904" y="-10" on="1"/>
        <pt x="1086" y="-10" on="1"/>
        <pt x="1332" y="1456" on="1"/>
        <pt x="1168" y="1456" on="1"/>
        <pt x="990" y="318" on="1"/>
        <pt x="985" y="284" on="0"/>
        <pt x="978" y="223" on="0"/>
        <pt x="977" y="190" on="1"/>
        <pt x="973" y="190" on="1"/>
        <pt x="968" y="223" on="0"/>
        <pt x="955" y="285" on="0"/>
        <pt x="944" y="318" on="1"/>
        <pt x="799" y="756" on="1"/>
        <pt x="629" y="756" on="1"/>
        <pt x="484" y="318" on="1"/>
        <pt x="473" y="285" on="0"/>
        <pt x="460" y="223" on="0"/>
        <pt x="455" y="190" on="1"/>
        <pt x="451" y="190" on="1"/>
        <pt x="450" y="223" on="0"/>
        <pt x="443" y="284" on="0"/>
        <pt x="438" y="318" on="1"/>
        <pt x="260" y="1456" on="1"/>
        <pt x="90" y="1456" on="1"/>
      </contour>
      <contour>
        <pt x="30" y="840" on="1"/>
        <pt x="1392" y="840" on="1"/>
        <pt x="1392" y="996" on="1"/>
        <pt x="30" y="996" on="1"/>
      </contour>
      <contour>
        <pt x="20" y="1160" on="1"/>
        <pt x="1402" y="1160" on="1"/>
        <pt x="1402" y="1316" on="1"/>
        <pt x="20" y="1316" on="1"/>
      </contour>
    </TTGlyph>
    <TTGlyph name="x" xMin="20" yMin="0" xMax="958" yMax="1052">
      <contour>
        <pt x="20" y="0" on="1"/>
        <pt x="230" y="0" on="1"/>
        <pt x="547" y="484" on="1"/>
        <pt x="558" y="484" on="1"/>
        <pt x="938" y="1052" on="1"/>
        <pt x="728" y="1052" on="1"/>
        <pt x="431" y="582" on="1"/>
        <pt x="420" y="582" on="1"/>
      </contour>
      <contour>
        <pt x="40" y="1052" on="1"/>
        <pt x="420" y="484" on="1"/>
        <pt x="428" y="484" on="1"/>
        <pt x="745" y="0" on="1"/>
        <pt x="958" y="0" on="1"/>
        <pt x="558" y="582" on="1"/>
        <pt x="550" y="582" on="1"/>
        <pt x="253" y="1052" on="1"/>
      </contour>
    </TTGlyph>
</ttFont>
